{
  "header": {
    "keySignatures": [],
    "meta": [],
    "name": "",
    "ppq": 384,
    "tempos": [
      {
        "bpm": 140.00014000014,
        "ticks": 0
      }
    ],
    "timeSignatures": [
      {
        "ticks": 0,
        "timeSignature": [
          4,
          4
        ],
        "measures": 0
      }
    ]
  },
  "tracks": [
    {
      "channel": 0,
      "controlChanges": {},
      "pitchBends": [],
      "instrument": {
        "family": "piano",
        "number": 0,
        "name": "acoustic grand piano"
      },
      "name": "Elec. Piano (Classic)",
      "notes": [
        {
          "duration": 0.10714275000000001,
          "durationTicks": 96,
          "midi": 65,
          "name": "F4",
          "ticks": 0,
          "time": 0,
          "velocity": 0.3937007874015748
        },
        {
          "duration": 0.21428550000000002,
          "durationTicks": 192,
          "midi": 53,
          "name": "F3",
          "ticks": 0,
          "time": 0,
          "velocity": 0.3937007874015748
        },
        {
          "duration": 0.10714275000000001,
          "durationTicks": 96,
          "midi": 56,
          "name": "G#3",
          "ticks": 0,
          "time": 0,
          "velocity": 0.3937007874015748
        },
        {
          "duration": 0.10714275000000001,
          "durationTicks": 96,
          "midi": 68,
          "name": "G#4",
          "ticks": 192,
          "time": 0.21428550000000002,
          "velocity": 0.3937007874015748
        },
        {
          "duration": 0.10714275000000001,
          "durationTicks": 96,
          "midi": 60,
          "name": "C4",
          "ticks": 288,
          "time": 0.32142825,
          "velocity": 0.3937007874015748
        },
        {
          "duration": 0.10714274999999995,
          "durationTicks": 96,
          "midi": 65,
          "name": "F4",
          "ticks": 384,
          "time": 0.42857100000000004,
          "velocity": 0.3937007874015748
        },
        {
          "duration": 0.10714275000000006,
          "durationTicks": 96,
          "midi": 56,
          "name": "G#3",
          "ticks": 576,
          "time": 0.6428565,
          "velocity": 0.3937007874015748
        },
        {
          "duration": 0.10714275000000006,
          "durationTicks": 96,
          "midi": 68,
          "name": "G#4",
          "ticks": 576,
          "time": 0.6428565,
          "velocity": 0.3937007874015748
        },
        {
          "duration": 0.10714274999999995,
          "durationTicks": 96,
          "midi": 65,
          "name": "F4",
          "ticks": 768,
          "time": 0.8571420000000001,
          "velocity": 0.3937007874015748
        },
        {
          "duration": 0.10714274999999995,
          "durationTicks": 96,
          "midi": 60,
          "name": "C4",
          "ticks": 864,
          "time": 0.96428475,
          "velocity": 0.3937007874015748
        },
        {
          "duration": 0.10714275000000018,
          "durationTicks": 96,
          "midi": 68,
          "name": "G#4",
          "ticks": 960,
          "time": 1.0714275,
          "velocity": 0.3937007874015748
        },
        {
          "duration": 0.10714274999999995,
          "durationTicks": 96,
          "midi": 65,
          "name": "F4",
          "ticks": 1152,
          "time": 1.285713,
          "velocity": 0.3937007874015748
        },
        {
          "duration": 0.10714274999999995,
          "durationTicks": 96,
          "midi": 56,
          "name": "G#3",
          "ticks": 1152,
          "time": 1.285713,
          "velocity": 0.3937007874015748
        },
        {
          "duration": 0.10714274999999995,
          "durationTicks": 96,
          "midi": 68,
          "name": "G#4",
          "ticks": 1344,
          "time": 1.4999985000000002,
          "velocity": 0.3937007874015748
        },
        {
          "duration": 0.10714274999999995,
          "durationTicks": 96,
          "midi": 60,
          "name": "C4",
          "ticks": 1440,
          "time": 1.6071412500000002,
          "velocity": 0.3937007874015748
        },
        {
          "duration": 0.10714274999999995,
          "durationTicks": 96,
          "midi": 65,
          "name": "F4",
          "ticks": 1536,
          "time": 1.7142840000000001,
          "velocity": 0.3937007874015748
        },
        {
          "duration": 0.10714274999999995,
          "durationTicks": 96,
          "midi": 68,
          "name": "G#4",
          "ticks": 1728,
          "time": 1.9285695,
          "velocity": 0.3937007874015748
        },
        {
          "duration": 0.10714274999999995,
          "durationTicks": 96,
          "midi": 56,
          "name": "G#3",
          "ticks": 1728,
          "time": 1.9285695,
          "velocity": 0.3937007874015748
        },
        {
          "duration": 0.1071427500000004,
          "durationTicks": 96,
          "midi": 65,
          "name": "F4",
          "ticks": 1920,
          "time": 2.142855,
          "velocity": 0.3937007874015748
        },
        {
          "duration": 0.10714274999999995,
          "durationTicks": 96,
          "midi": 60,
          "name": "C4",
          "ticks": 2016,
          "time": 2.2499977500000004,
          "velocity": 0.3937007874015748
        },
        {
          "duration": 0.10714274999999995,
          "durationTicks": 96,
          "midi": 68,
          "name": "G#4",
          "ticks": 2112,
          "time": 2.3571405000000003,
          "velocity": 0.3937007874015748
        },
        {
          "duration": 0.2142854999999999,
          "durationTicks": 192,
          "midi": 53,
          "name": "F3",
          "ticks": 2304,
          "time": 2.571426,
          "velocity": 0.3937007874015748
        },
        {
          "duration": 0.10714274999999995,
          "durationTicks": 96,
          "midi": 56,
          "name": "G#3",
          "ticks": 2304,
          "time": 2.571426,
          "velocity": 0.3937007874015748
        },
        {
          "duration": 0.10714274999999995,
          "durationTicks": 96,
          "midi": 72,
          "name": "C5",
          "ticks": 2304,
          "time": 2.571426,
          "velocity": 0.3937007874015748
        },
        {
          "duration": 0.10714274999999995,
          "durationTicks": 96,
          "midi": 65,
          "name": "F4",
          "ticks": 2496,
          "time": 2.7857115,
          "velocity": 0.3937007874015748
        },
        {
          "duration": 0.1071427500000004,
          "durationTicks": 96,
          "midi": 60,
          "name": "C4",
          "ticks": 2592,
          "time": 2.89285425,
          "velocity": 0.3937007874015748
        },
        {
          "duration": 0.10714274999999995,
          "durationTicks": 96,
          "midi": 72,
          "name": "C5",
          "ticks": 2688,
          "time": 2.9999970000000005,
          "velocity": 0.3937007874015748
        },
        {
          "duration": 0.10714274999999995,
          "durationTicks": 96,
          "midi": 56,
          "name": "G#3",
          "ticks": 2880,
          "time": 3.2142825000000004,
          "velocity": 0.3937007874015748
        },
        {
          "duration": 0.10714274999999995,
          "durationTicks": 96,
          "midi": 65,
          "name": "F4",
          "ticks": 2880,
          "time": 3.2142825000000004,
          "velocity": 0.3937007874015748
        },
        {
          "duration": 0.10714274999999995,
          "durationTicks": 96,
          "midi": 72,
          "name": "C5",
          "ticks": 3072,
          "time": 3.4285680000000003,
          "velocity": 0.3937007874015748
        },
        {
          "duration": 0.10714274999999995,
          "durationTicks": 96,
          "midi": 60,
          "name": "C4",
          "ticks": 3168,
          "time": 3.5357107500000002,
          "velocity": 0.3937007874015748
        },
        {
          "duration": 0.10714274999999995,
          "durationTicks": 96,
          "midi": 65,
          "name": "F4",
          "ticks": 3264,
          "time": 3.6428535,
          "velocity": 0.3937007874015748
        },
        {
          "duration": 0.1071427500000004,
          "durationTicks": 96,
          "midi": 72,
          "name": "C5",
          "ticks": 3456,
          "time": 3.857139,
          "velocity": 0.3937007874015748
        },
        {
          "duration": 0.1071427500000004,
          "durationTicks": 96,
          "midi": 56,
          "name": "G#3",
          "ticks": 3456,
          "time": 3.857139,
          "velocity": 0.3937007874015748
        },
        {
          "duration": 0.1071427500000004,
          "durationTicks": 96,
          "midi": 65,
          "name": "F4",
          "ticks": 3648,
          "time": 4.0714245,
          "velocity": 0.3937007874015748
        },
        {
          "duration": 0.10714274999999951,
          "durationTicks": 96,
          "midi": 60,
          "name": "C4",
          "ticks": 3744,
          "time": 4.17856725,
          "velocity": 0.3937007874015748
        },
        {
          "duration": 0.1071427500000004,
          "durationTicks": 96,
          "midi": 72,
          "name": "C5",
          "ticks": 3840,
          "time": 4.28571,
          "velocity": 0.3937007874015748
        },
        {
          "duration": 0.10714274999999951,
          "durationTicks": 96,
          "midi": 65,
          "name": "F4",
          "ticks": 4032,
          "time": 4.499995500000001,
          "velocity": 0.3937007874015748
        },
        {
          "duration": 0.10714274999999951,
          "durationTicks": 96,
          "midi": 56,
          "name": "G#3",
          "ticks": 4032,
          "time": 4.499995500000001,
          "velocity": 0.3937007874015748
        },
        {
          "duration": 0.10714274999999951,
          "durationTicks": 96,
          "midi": 72,
          "name": "C5",
          "ticks": 4224,
          "time": 4.714281000000001,
          "velocity": 0.3937007874015748
        },
        {
          "duration": 0.1071427500000004,
          "durationTicks": 96,
          "midi": 60,
          "name": "C4",
          "ticks": 4320,
          "time": 4.82142375,
          "velocity": 0.3937007874015748
        },
        {
          "duration": 0.10714274999999951,
          "durationTicks": 96,
          "midi": 65,
          "name": "F4",
          "ticks": 4416,
          "time": 4.9285665000000005,
          "velocity": 0.3937007874015748
        },
        {
          "duration": 0.1071427500000004,
          "durationTicks": 96,
          "midi": 67,
          "name": "G4",
          "ticks": 4608,
          "time": 5.142852,
          "velocity": 0.3937007874015748
        },
        {
          "duration": 0.2142854999999999,
          "durationTicks": 192,
          "midi": 51,
          "name": "D#3",
          "ticks": 4608,
          "time": 5.142852,
          "velocity": 0.3937007874015748
        },
        {
          "duration": 0.1071427500000004,
          "durationTicks": 96,
          "midi": 55,
          "name": "G3",
          "ticks": 4608,
          "time": 5.142852,
          "velocity": 0.3937007874015748
        },
        {
          "duration": 0.1071427500000004,
          "durationTicks": 96,
          "midi": 72,
          "name": "C5",
          "ticks": 4800,
          "time": 5.3571375,
          "velocity": 0.3937007874015748
        },
        {
          "duration": 0.10714274999999951,
          "durationTicks": 96,
          "midi": 58,
          "name": "A#3",
          "ticks": 4896,
          "time": 5.464280250000001,
          "velocity": 0.3937007874015748
        },
        {
          "duration": 0.1071427500000004,
          "durationTicks": 96,
          "midi": 67,
          "name": "G4",
          "ticks": 4992,
          "time": 5.571423,
          "velocity": 0.3937007874015748
        },
        {
          "duration": 0.1071427500000004,
          "durationTicks": 96,
          "midi": 72,
          "name": "C5",
          "ticks": 5184,
          "time": 5.7857085,
          "velocity": 0.3937007874015748
        },
        {
          "duration": 0.1071427500000004,
          "durationTicks": 96,
          "midi": 55,
          "name": "G3",
          "ticks": 5184,
          "time": 5.7857085,
          "velocity": 0.3937007874015748
        },
        {
          "duration": 0.10714274999999951,
          "durationTicks": 96,
          "midi": 67,
          "name": "G4",
          "ticks": 5376,
          "time": 5.999994000000001,
          "velocity": 0.3937007874015748
        },
        {
          "duration": 0.1071427500000004,
          "durationTicks": 96,
          "midi": 58,
          "name": "A#3",
          "ticks": 5472,
          "time": 6.1071367500000004,
          "velocity": 0.3937007874015748
        },
        {
          "duration": 0.10714274999999951,
          "durationTicks": 96,
          "midi": 72,
          "name": "C5",
          "ticks": 5568,
          "time": 6.214279500000001,
          "velocity": 0.3937007874015748
        },
        {
          "duration": 0.10714274999999951,
          "durationTicks": 96,
          "midi": 55,
          "name": "G3",
          "ticks": 5760,
          "time": 6.428565000000001,
          "velocity": 0.3937007874015748
        },
        {
          "duration": 0.10714274999999951,
          "durationTicks": 96,
          "midi": 67,
          "name": "G4",
          "ticks": 5760,
          "time": 6.428565000000001,
          "velocity": 0.3937007874015748
        },
        {
          "duration": 0.10714274999999951,
          "durationTicks": 96,
          "midi": 72,
          "name": "C5",
          "ticks": 5952,
          "time": 6.642850500000001,
          "velocity": 0.3937007874015748
        },
        {
          "duration": 0.1071427500000004,
          "durationTicks": 96,
          "midi": 58,
          "name": "A#3",
          "ticks": 6048,
          "time": 6.74999325,
          "velocity": 0.3937007874015748
        },
        {
          "duration": 0.1071427500000004,
          "durationTicks": 96,
          "midi": 67,
          "name": "G4",
          "ticks": 6144,
          "time": 6.857136000000001,
          "velocity": 0.3937007874015748
        },
        {
          "duration": 0.1071427500000004,
          "durationTicks": 96,
          "midi": 55,
          "name": "G3",
          "ticks": 6336,
          "time": 7.0714215000000005,
          "velocity": 0.3937007874015748
        },
        {
          "duration": 0.1071427500000004,
          "durationTicks": 96,
          "midi": 72,
          "name": "C5",
          "ticks": 6336,
          "time": 7.0714215000000005,
          "velocity": 0.3937007874015748
        },
        {
          "duration": 0.1071427500000004,
          "durationTicks": 96,
          "midi": 67,
          "name": "G4",
          "ticks": 6528,
          "time": 7.285707,
          "velocity": 0.3937007874015748
        },
        {
          "duration": 0.10714274999999951,
          "durationTicks": 96,
          "midi": 58,
          "name": "A#3",
          "ticks": 6624,
          "time": 7.392849750000001,
          "velocity": 0.3937007874015748
        },
        {
          "duration": 0.1071427500000004,
          "durationTicks": 96,
          "midi": 72,
          "name": "C5",
          "ticks": 6720,
          "time": 7.4999925,
          "velocity": 0.3937007874015748
        },
        {
          "duration": 0.1071427500000004,
          "durationTicks": 96,
          "midi": 55,
          "name": "G3",
          "ticks": 6912,
          "time": 7.714278,
          "velocity": 0.3937007874015748
        },
        {
          "duration": 0.1071427500000004,
          "durationTicks": 96,
          "midi": 68,
          "name": "G#4",
          "ticks": 6912,
          "time": 7.714278,
          "velocity": 0.3937007874015748
        },
        {
          "duration": 0.2142855000000008,
          "durationTicks": 192,
          "midi": 49,
          "name": "C#3",
          "ticks": 6912,
          "time": 7.714278,
          "velocity": 0.3937007874015748
        },
        {
          "duration": 0.10714274999999951,
          "durationTicks": 96,
          "midi": 72,
          "name": "C5",
          "ticks": 7104,
          "time": 7.928563500000001,
          "velocity": 0.3937007874015748
        },
        {
          "duration": 0.10714274999999951,
          "durationTicks": 96,
          "midi": 58,
          "name": "A#3",
          "ticks": 7200,
          "time": 8.03570625,
          "velocity": 0.3937007874015748
        },
        {
          "duration": 0.10714275000000129,
          "durationTicks": 96,
          "midi": 68,
          "name": "G#4",
          "ticks": 7296,
          "time": 8.142849,
          "velocity": 0.3937007874015748
        },
        {
          "duration": 0.10714274999999951,
          "durationTicks": 96,
          "midi": 72,
          "name": "C5",
          "ticks": 7488,
          "time": 8.3571345,
          "velocity": 0.3937007874015748
        },
        {
          "duration": 0.10714274999999951,
          "durationTicks": 96,
          "midi": 55,
          "name": "G3",
          "ticks": 7488,
          "time": 8.3571345,
          "velocity": 0.3937007874015748
        },
        {
          "duration": 0.10714275000000129,
          "durationTicks": 96,
          "midi": 68,
          "name": "G#4",
          "ticks": 7680,
          "time": 8.57142,
          "velocity": 0.3937007874015748
        },
        {
          "duration": 0.10714274999999951,
          "durationTicks": 96,
          "midi": 58,
          "name": "A#3",
          "ticks": 7776,
          "time": 8.678562750000001,
          "velocity": 0.3937007874015748
        },
        {
          "duration": 0.10714274999999951,
          "durationTicks": 96,
          "midi": 72,
          "name": "C5",
          "ticks": 7872,
          "time": 8.7857055,
          "velocity": 0.3937007874015748
        },
        {
          "duration": 0.10714274999999951,
          "durationTicks": 96,
          "midi": 68,
          "name": "G#4",
          "ticks": 8064,
          "time": 8.999991000000001,
          "velocity": 0.3937007874015748
        },
        {
          "duration": 0.10714274999999951,
          "durationTicks": 96,
          "midi": 55,
          "name": "G3",
          "ticks": 8064,
          "time": 8.999991000000001,
          "velocity": 0.3937007874015748
        },
        {
          "duration": 0.10714274999999951,
          "durationTicks": 96,
          "midi": 72,
          "name": "C5",
          "ticks": 8256,
          "time": 9.2142765,
          "velocity": 0.3937007874015748
        },
        {
          "duration": 0.10714275000000129,
          "durationTicks": 96,
          "midi": 58,
          "name": "A#3",
          "ticks": 8352,
          "time": 9.32141925,
          "velocity": 0.3937007874015748
        },
        {
          "duration": 0.10714274999999951,
          "durationTicks": 96,
          "midi": 68,
          "name": "G#4",
          "ticks": 8448,
          "time": 9.428562000000001,
          "velocity": 0.3937007874015748
        },
        {
          "duration": 0.10714275000000129,
          "durationTicks": 96,
          "midi": 55,
          "name": "G3",
          "ticks": 8640,
          "time": 9.6428475,
          "velocity": 0.3937007874015748
        },
        {
          "duration": 0.10714275000000129,
          "durationTicks": 96,
          "midi": 72,
          "name": "C5",
          "ticks": 8640,
          "time": 9.6428475,
          "velocity": 0.3937007874015748
        },
        {
          "duration": 0.10714274999999951,
          "durationTicks": 96,
          "midi": 68,
          "name": "G#4",
          "ticks": 8832,
          "time": 9.857133000000001,
          "velocity": 0.3937007874015748
        },
        {
          "duration": 0.10714274999999951,
          "durationTicks": 96,
          "midi": 58,
          "name": "A#3",
          "ticks": 8928,
          "time": 9.96427575,
          "velocity": 0.3937007874015748
        },
        {
          "duration": 0.10714275000000129,
          "durationTicks": 96,
          "midi": 72,
          "name": "C5",
          "ticks": 9024,
          "time": 10.0714185,
          "velocity": 0.3937007874015748
        },
        {
          "duration": 0.10714274999999951,
          "durationTicks": 96,
          "midi": 65,
          "name": "F4",
          "ticks": 9216,
          "time": 10.285704,
          "velocity": 0.3937007874015748
        },
        {
          "duration": 0.2142855000000008,
          "durationTicks": 192,
          "midi": 53,
          "name": "F3",
          "ticks": 9216,
          "time": 10.285704,
          "velocity": 0.3937007874015748
        },
        {
          "duration": 0.10714274999999951,
          "durationTicks": 96,
          "midi": 56,
          "name": "G#3",
          "ticks": 9216,
          "time": 10.285704,
          "velocity": 0.3937007874015748
        },
        {
          "duration": 0.10714274999999951,
          "durationTicks": 96,
          "midi": 68,
          "name": "G#4",
          "ticks": 9408,
          "time": 10.499989500000002,
          "velocity": 0.3937007874015748
        },
        {
          "duration": 0.10714274999999951,
          "durationTicks": 96,
          "midi": 60,
          "name": "C4",
          "ticks": 9504,
          "time": 10.607132250000001,
          "velocity": 0.3937007874015748
        },
        {
          "duration": 0.10714274999999951,
          "durationTicks": 96,
          "midi": 65,
          "name": "F4",
          "ticks": 9600,
          "time": 10.714275,
          "velocity": 0.3937007874015748
        },
        {
          "duration": 0.10714274999999951,
          "durationTicks": 96,
          "midi": 56,
          "name": "G#3",
          "ticks": 9792,
          "time": 10.928560500000001,
          "velocity": 0.3937007874015748
        },
        {
          "duration": 0.10714274999999951,
          "durationTicks": 96,
          "midi": 68,
          "name": "G#4",
          "ticks": 9792,
          "time": 10.928560500000001,
          "velocity": 0.3937007874015748
        },
        {
          "duration": 0.10714275000000129,
          "durationTicks": 96,
          "midi": 65,
          "name": "F4",
          "ticks": 9984,
          "time": 11.142846,
          "velocity": 0.3937007874015748
        },
        {
          "duration": 0.10714274999999951,
          "durationTicks": 96,
          "midi": 60,
          "name": "C4",
          "ticks": 10080,
          "time": 11.249988750000002,
          "velocity": 0.3937007874015748
        },
        {
          "duration": 0.10714274999999951,
          "durationTicks": 96,
          "midi": 68,
          "name": "G#4",
          "ticks": 10176,
          "time": 11.357131500000001,
          "velocity": 0.3937007874015748
        },
        {
          "duration": 0.10714275000000129,
          "durationTicks": 96,
          "midi": 65,
          "name": "F4",
          "ticks": 10368,
          "time": 11.571417,
          "velocity": 0.3937007874015748
        },
        {
          "duration": 0.10714275000000129,
          "durationTicks": 96,
          "midi": 56,
          "name": "G#3",
          "ticks": 10368,
          "time": 11.571417,
          "velocity": 0.3937007874015748
        },
        {
          "duration": 0.10714274999999951,
          "durationTicks": 96,
          "midi": 68,
          "name": "G#4",
          "ticks": 10560,
          "time": 11.785702500000001,
          "velocity": 0.3937007874015748
        },
        {
          "duration": 0.10714275000000129,
          "durationTicks": 96,
          "midi": 60,
          "name": "C4",
          "ticks": 10656,
          "time": 11.89284525,
          "velocity": 0.3937007874015748
        },
        {
          "duration": 0.10714274999999951,
          "durationTicks": 96,
          "midi": 65,
          "name": "F4",
          "ticks": 10752,
          "time": 11.999988000000002,
          "velocity": 0.3937007874015748
        },
        {
          "duration": 0.10714274999999951,
          "durationTicks": 96,
          "midi": 68,
          "name": "G#4",
          "ticks": 10944,
          "time": 12.214273500000001,
          "velocity": 0.3937007874015748
        },
        {
          "duration": 0.10714274999999951,
          "durationTicks": 96,
          "midi": 56,
          "name": "G#3",
          "ticks": 10944,
          "time": 12.214273500000001,
          "velocity": 0.3937007874015748
        },
        {
          "duration": 0.10714274999999951,
          "durationTicks": 96,
          "midi": 65,
          "name": "F4",
          "ticks": 11136,
          "time": 12.428559000000002,
          "velocity": 0.3937007874015748
        },
        {
          "duration": 0.10714274999999951,
          "durationTicks": 96,
          "midi": 60,
          "name": "C4",
          "ticks": 11232,
          "time": 12.535701750000001,
          "velocity": 0.3937007874015748
        },
        {
          "duration": 0.10714274999999951,
          "durationTicks": 96,
          "midi": 68,
          "name": "G#4",
          "ticks": 11328,
          "time": 12.6428445,
          "velocity": 0.3937007874015748
        },
        {
          "duration": 0.21428549999999902,
          "durationTicks": 192,
          "midi": 53,
          "name": "F3",
          "ticks": 11520,
          "time": 12.857130000000002,
          "velocity": 0.3937007874015748
        },
        {
          "duration": 0.10714274999999951,
          "durationTicks": 96,
          "midi": 56,
          "name": "G#3",
          "ticks": 11520,
          "time": 12.857130000000002,
          "velocity": 0.3937007874015748
        },
        {
          "duration": 0.10714274999999951,
          "durationTicks": 96,
          "midi": 72,
          "name": "C5",
          "ticks": 11520,
          "time": 12.857130000000002,
          "velocity": 0.3937007874015748
        },
        {
          "duration": 0.10714275000000129,
          "durationTicks": 96,
          "midi": 65,
          "name": "F4",
          "ticks": 11712,
          "time": 13.0714155,
          "velocity": 0.3937007874015748
        },
        {
          "duration": 0.10714274999999951,
          "durationTicks": 96,
          "midi": 60,
          "name": "C4",
          "ticks": 11808,
          "time": 13.178558250000002,
          "velocity": 0.3937007874015748
        },
        {
          "duration": 0.10714274999999951,
          "durationTicks": 96,
          "midi": 72,
          "name": "C5",
          "ticks": 11904,
          "time": 13.285701000000001,
          "velocity": 0.3937007874015748
        },
        {
          "duration": 0.10714275000000129,
          "durationTicks": 96,
          "midi": 56,
          "name": "G#3",
          "ticks": 12096,
          "time": 13.4999865,
          "velocity": 0.3937007874015748
        },
        {
          "duration": 0.10714275000000129,
          "durationTicks": 96,
          "midi": 65,
          "name": "F4",
          "ticks": 12096,
          "time": 13.4999865,
          "velocity": 0.3937007874015748
        },
        {
          "duration": 0.10714274999999951,
          "durationTicks": 96,
          "midi": 72,
          "name": "C5",
          "ticks": 12288,
          "time": 13.714272000000001,
          "velocity": 0.3937007874015748
        },
        {
          "duration": 0.10714275000000129,
          "durationTicks": 96,
          "midi": 60,
          "name": "C4",
          "ticks": 12384,
          "time": 13.82141475,
          "velocity": 0.3937007874015748
        },
        {
          "duration": 0.10714274999999951,
          "durationTicks": 96,
          "midi": 65,
          "name": "F4",
          "ticks": 12480,
          "time": 13.928557500000002,
          "velocity": 0.3937007874015748
        },
        {
          "duration": 0.10714274999999951,
          "durationTicks": 96,
          "midi": 72,
          "name": "C5",
          "ticks": 12672,
          "time": 14.142843000000001,
          "velocity": 0.3937007874015748
        },
        {
          "duration": 0.10714274999999951,
          "durationTicks": 96,
          "midi": 56,
          "name": "G#3",
          "ticks": 12672,
          "time": 14.142843000000001,
          "velocity": 0.3937007874015748
        },
        {
          "duration": 0.10714274999999951,
          "durationTicks": 96,
          "midi": 65,
          "name": "F4",
          "ticks": 12864,
          "time": 14.357128500000002,
          "velocity": 0.3937007874015748
        },
        {
          "duration": 0.10714274999999951,
          "durationTicks": 96,
          "midi": 60,
          "name": "C4",
          "ticks": 12960,
          "time": 14.464271250000001,
          "velocity": 0.3937007874015748
        },
        {
          "duration": 0.10714275000000129,
          "durationTicks": 96,
          "midi": 72,
          "name": "C5",
          "ticks": 13056,
          "time": 14.571414,
          "velocity": 0.3937007874015748
        },
        {
          "duration": 0.10714274999999951,
          "durationTicks": 96,
          "midi": 56,
          "name": "G#3",
          "ticks": 13248,
          "time": 14.785699500000002,
          "velocity": 0.3937007874015748
        },
        {
          "duration": 0.10714274999999951,
          "durationTicks": 96,
          "midi": 65,
          "name": "F4",
          "ticks": 13248,
          "time": 14.785699500000002,
          "velocity": 0.3937007874015748
        },
        {
          "duration": 0.10714275000000129,
          "durationTicks": 96,
          "midi": 72,
          "name": "C5",
          "ticks": 13440,
          "time": 14.999985,
          "velocity": 0.3937007874015748
        },
        {
          "duration": 0.10714274999999951,
          "durationTicks": 96,
          "midi": 60,
          "name": "C4",
          "ticks": 13536,
          "time": 15.107127750000002,
          "velocity": 0.3937007874015748
        },
        {
          "duration": 0.10714274999999951,
          "durationTicks": 96,
          "midi": 65,
          "name": "F4",
          "ticks": 13632,
          "time": 15.214270500000001,
          "velocity": 0.3937007874015748
        },
        {
          "duration": 0.10714275000000129,
          "durationTicks": 96,
          "midi": 67,
          "name": "G4",
          "ticks": 13824,
          "time": 15.428556,
          "velocity": 0.3937007874015748
        },
        {
          "duration": 0.10714275000000129,
          "durationTicks": 96,
          "midi": 55,
          "name": "G3",
          "ticks": 13824,
          "time": 15.428556,
          "velocity": 0.3937007874015748
        },
        {
          "duration": 0.2142855000000008,
          "durationTicks": 192,
          "midi": 51,
          "name": "D#3",
          "ticks": 13824,
          "time": 15.428556,
          "velocity": 0.3937007874015748
        },
        {
          "duration": 0.10714274999999951,
          "durationTicks": 96,
          "midi": 72,
          "name": "C5",
          "ticks": 14016,
          "time": 15.642841500000001,
          "velocity": 0.3937007874015748
        },
        {
          "duration": 0.10714275000000129,
          "durationTicks": 96,
          "midi": 58,
          "name": "A#3",
          "ticks": 14112,
          "time": 15.74998425,
          "velocity": 0.3937007874015748
        },
        {
          "duration": 0.10714274999999951,
          "durationTicks": 96,
          "midi": 67,
          "name": "G4",
          "ticks": 14208,
          "time": 15.857127000000002,
          "velocity": 0.3937007874015748
        },
        {
          "duration": 0.10714275000000129,
          "durationTicks": 96,
          "midi": 72,
          "name": "C5",
          "ticks": 14400,
          "time": 16.0714125,
          "velocity": 0.3937007874015748
        },
        {
          "duration": 0.10714275000000129,
          "durationTicks": 96,
          "midi": 55,
          "name": "G3",
          "ticks": 14400,
          "time": 16.0714125,
          "velocity": 0.3937007874015748
        },
        {
          "duration": 0.10714275000000129,
          "durationTicks": 96,
          "midi": 67,
          "name": "G4",
          "ticks": 14592,
          "time": 16.285698,
          "velocity": 0.3937007874015748
        },
        {
          "duration": 0.10714275000000129,
          "durationTicks": 96,
          "midi": 58,
          "name": "A#3",
          "ticks": 14688,
          "time": 16.39284075,
          "velocity": 0.3937007874015748
        },
        {
          "duration": 0.10714274999999773,
          "durationTicks": 96,
          "midi": 72,
          "name": "C5",
          "ticks": 14784,
          "time": 16.499983500000003,
          "velocity": 0.3937007874015748
        },
        {
          "duration": 0.10714275000000129,
          "durationTicks": 96,
          "midi": 67,
          "name": "G4",
          "ticks": 14976,
          "time": 16.714269,
          "velocity": 0.3937007874015748
        },
        {
          "duration": 0.10714275000000129,
          "durationTicks": 96,
          "midi": 55,
          "name": "G3",
          "ticks": 14976,
          "time": 16.714269,
          "velocity": 0.3937007874015748
        },
        {
          "duration": 0.10714275000000129,
          "durationTicks": 96,
          "midi": 72,
          "name": "C5",
          "ticks": 15168,
          "time": 16.9285545,
          "velocity": 0.3937007874015748
        },
        {
          "duration": 0.10714274999999773,
          "durationTicks": 96,
          "midi": 58,
          "name": "A#3",
          "ticks": 15264,
          "time": 17.035697250000002,
          "velocity": 0.3937007874015748
        },
        {
          "duration": 0.10714275000000129,
          "durationTicks": 96,
          "midi": 67,
          "name": "G4",
          "ticks": 15360,
          "time": 17.14284,
          "velocity": 0.3937007874015748
        },
        {
          "duration": 0.10714274999999773,
          "durationTicks": 96,
          "midi": 55,
          "name": "G3",
          "ticks": 15552,
          "time": 17.357125500000002,
          "velocity": 0.3937007874015748
        },
        {
          "duration": 0.10714274999999773,
          "durationTicks": 96,
          "midi": 72,
          "name": "C5",
          "ticks": 15552,
          "time": 17.357125500000002,
          "velocity": 0.3937007874015748
        },
        {
          "duration": 0.10714275000000129,
          "durationTicks": 96,
          "midi": 67,
          "name": "G4",
          "ticks": 15744,
          "time": 17.571411,
          "velocity": 0.3937007874015748
        },
        {
          "duration": 0.10714274999999773,
          "durationTicks": 96,
          "midi": 58,
          "name": "A#3",
          "ticks": 15840,
          "time": 17.678553750000003,
          "velocity": 0.3937007874015748
        },
        {
          "duration": 0.10714275000000129,
          "durationTicks": 96,
          "midi": 72,
          "name": "C5",
          "ticks": 15936,
          "time": 17.7856965,
          "velocity": 0.3937007874015748
        },
        {
          "duration": 0.21428549999999902,
          "durationTicks": 192,
          "midi": 49,
          "name": "C#3",
          "ticks": 16128,
          "time": 17.999982000000003,
          "velocity": 0.3937007874015748
        },
        {
          "duration": 0.10714274999999773,
          "durationTicks": 96,
          "midi": 55,
          "name": "G3",
          "ticks": 16128,
          "time": 17.999982000000003,
          "velocity": 0.3937007874015748
        },
        {
          "duration": 0.10714274999999773,
          "durationTicks": 96,
          "midi": 68,
          "name": "G#4",
          "ticks": 16128,
          "time": 17.999982000000003,
          "velocity": 0.3937007874015748
        },
        {
          "duration": 0.10714275000000129,
          "durationTicks": 96,
          "midi": 72,
          "name": "C5",
          "ticks": 16320,
          "time": 18.214267500000002,
          "velocity": 0.3937007874015748
        },
        {
          "duration": 0.10714274999999773,
          "durationTicks": 96,
          "midi": 58,
          "name": "A#3",
          "ticks": 16416,
          "time": 18.321410250000003,
          "velocity": 0.3937007874015748
        },
        {
          "duration": 0.10714275000000129,
          "durationTicks": 96,
          "midi": 68,
          "name": "G#4",
          "ticks": 16512,
          "time": 18.428553,
          "velocity": 0.3937007874015748
        },
        {
          "duration": 0.10714275000000129,
          "durationTicks": 96,
          "midi": 72,
          "name": "C5",
          "ticks": 16704,
          "time": 18.6428385,
          "velocity": 0.3937007874015748
        },
        {
          "duration": 0.10714275000000129,
          "durationTicks": 96,
          "midi": 55,
          "name": "G3",
          "ticks": 16704,
          "time": 18.6428385,
          "velocity": 0.3937007874015748
        },
        {
          "duration": 0.10714274999999773,
          "durationTicks": 96,
          "midi": 68,
          "name": "G#4",
          "ticks": 16896,
          "time": 18.857124000000002,
          "velocity": 0.3937007874015748
        },
        {
          "duration": 0.10714275000000129,
          "durationTicks": 96,
          "midi": 58,
          "name": "A#3",
          "ticks": 16992,
          "time": 18.96426675,
          "velocity": 0.3937007874015748
        },
        {
          "duration": 0.10714275000000129,
          "durationTicks": 96,
          "midi": 72,
          "name": "C5",
          "ticks": 17088,
          "time": 19.0714095,
          "velocity": 0.3937007874015748
        },
        {
          "duration": 0.10714275000000129,
          "durationTicks": 96,
          "midi": 68,
          "name": "G#4",
          "ticks": 17280,
          "time": 19.285695,
          "velocity": 0.3937007874015748
        },
        {
          "duration": 0.10714275000000129,
          "durationTicks": 96,
          "midi": 55,
          "name": "G3",
          "ticks": 17280,
          "time": 19.285695,
          "velocity": 0.3937007874015748
        },
        {
          "duration": 0.10714274999999773,
          "durationTicks": 96,
          "midi": 72,
          "name": "C5",
          "ticks": 17472,
          "time": 19.499980500000003,
          "velocity": 0.3937007874015748
        },
        {
          "duration": 0.10714275000000129,
          "durationTicks": 96,
          "midi": 58,
          "name": "A#3",
          "ticks": 17568,
          "time": 19.60712325,
          "velocity": 0.3937007874015748
        },
        {
          "duration": 0.10714275000000129,
          "durationTicks": 96,
          "midi": 68,
          "name": "G#4",
          "ticks": 17664,
          "time": 19.714266000000002,
          "velocity": 0.3937007874015748
        },
        {
          "duration": 0.10714275000000129,
          "durationTicks": 96,
          "midi": 72,
          "name": "C5",
          "ticks": 17856,
          "time": 19.9285515,
          "velocity": 0.3937007874015748
        },
        {
          "duration": 0.10714275000000129,
          "durationTicks": 96,
          "midi": 55,
          "name": "G3",
          "ticks": 17856,
          "time": 19.9285515,
          "velocity": 0.3937007874015748
        },
        {
          "duration": 0.10714275000000129,
          "durationTicks": 96,
          "midi": 68,
          "name": "G#4",
          "ticks": 18048,
          "time": 20.142837,
          "velocity": 0.3937007874015748
        },
        {
          "duration": 0.10714275000000129,
          "durationTicks": 96,
          "midi": 58,
          "name": "A#3",
          "ticks": 18144,
          "time": 20.24997975,
          "velocity": 0.3937007874015748
        },
        {
          "duration": 0.10714274999999773,
          "durationTicks": 96,
          "midi": 72,
          "name": "C5",
          "ticks": 18240,
          "time": 20.357122500000003,
          "velocity": 0.3937007874015748
        },
        {
          "duration": 0.10714275000000129,
          "durationTicks": 96,
          "midi": 65,
          "name": "F4",
          "ticks": 18432,
          "time": 20.571408,
          "velocity": 0.3937007874015748
        },
        {
          "duration": 0.10714275000000129,
          "durationTicks": 96,
          "midi": 56,
          "name": "G#3",
          "ticks": 18432,
          "time": 20.571408,
          "velocity": 0.3937007874015748
        },
        {
          "duration": 0.21428549999999902,
          "durationTicks": 192,
          "midi": 53,
          "name": "F3",
          "ticks": 18432,
          "time": 20.571408,
          "velocity": 0.3937007874015748
        },
        {
          "duration": 0.10714275000000129,
          "durationTicks": 96,
          "midi": 68,
          "name": "G#4",
          "ticks": 18624,
          "time": 20.7856935,
          "velocity": 0.3937007874015748
        },
        {
          "duration": 0.10714275000000129,
          "durationTicks": 96,
          "midi": 60,
          "name": "C4",
          "ticks": 18720,
          "time": 20.892836250000002,
          "velocity": 0.3937007874015748
        },
        {
          "duration": 0.10714274999999773,
          "durationTicks": 96,
          "midi": 65,
          "name": "F4",
          "ticks": 18816,
          "time": 20.999979000000003,
          "velocity": 0.3937007874015748
        },
        {
          "duration": 0.10714274999999773,
          "durationTicks": 96,
          "midi": 68,
          "name": "G#4",
          "ticks": 19008,
          "time": 21.214264500000002,
          "velocity": 0.3937007874015748
        },
        {
          "duration": 0.10714274999999773,
          "durationTicks": 96,
          "midi": 56,
          "name": "G#3",
          "ticks": 19008,
          "time": 21.214264500000002,
          "velocity": 0.3937007874015748
        },
        {
          "duration": 0.10714275000000129,
          "durationTicks": 96,
          "midi": 65,
          "name": "F4",
          "ticks": 19200,
          "time": 21.42855,
          "velocity": 0.3937007874015748
        },
        {
          "duration": 0.10714274999999773,
          "durationTicks": 96,
          "midi": 60,
          "name": "C4",
          "ticks": 19296,
          "time": 21.535692750000003,
          "velocity": 0.3937007874015748
        },
        {
          "duration": 0.10714275000000129,
          "durationTicks": 96,
          "midi": 68,
          "name": "G#4",
          "ticks": 19392,
          "time": 21.6428355,
          "velocity": 0.3937007874015748
        },
        {
          "duration": 0.10714274999999773,
          "durationTicks": 96,
          "midi": 56,
          "name": "G#3",
          "ticks": 19584,
          "time": 21.857121000000003,
          "velocity": 0.3937007874015748
        },
        {
          "duration": 0.10714274999999773,
          "durationTicks": 96,
          "midi": 65,
          "name": "F4",
          "ticks": 19584,
          "time": 21.857121000000003,
          "velocity": 0.3937007874015748
        },
        {
          "duration": 0.10714275000000129,
          "durationTicks": 96,
          "midi": 68,
          "name": "G#4",
          "ticks": 19776,
          "time": 22.071406500000002,
          "velocity": 0.3937007874015748
        },
        {
          "duration": 0.10714274999999773,
          "durationTicks": 96,
          "midi": 60,
          "name": "C4",
          "ticks": 19872,
          "time": 22.178549250000003,
          "velocity": 0.3937007874015748
        },
        {
          "duration": 0.10714275000000129,
          "durationTicks": 96,
          "midi": 65,
          "name": "F4",
          "ticks": 19968,
          "time": 22.285692,
          "velocity": 0.3937007874015748
        },
        {
          "duration": 0.10714274999999773,
          "durationTicks": 96,
          "midi": 68,
          "name": "G#4",
          "ticks": 20160,
          "time": 22.499977500000004,
          "velocity": 0.3937007874015748
        },
        {
          "duration": 0.10714274999999773,
          "durationTicks": 96,
          "midi": 56,
          "name": "G#3",
          "ticks": 20160,
          "time": 22.499977500000004,
          "velocity": 0.3937007874015748
        },
        {
          "duration": 0.10714274999999773,
          "durationTicks": 96,
          "midi": 65,
          "name": "F4",
          "ticks": 20352,
          "time": 22.714263000000003,
          "velocity": 0.3937007874015748
        },
        {
          "duration": 0.10714275000000129,
          "durationTicks": 96,
          "midi": 60,
          "name": "C4",
          "ticks": 20448,
          "time": 22.82140575,
          "velocity": 0.3937007874015748
        },
        {
          "duration": 0.10714275000000129,
          "durationTicks": 96,
          "midi": 68,
          "name": "G#4",
          "ticks": 20544,
          "time": 22.9285485,
          "velocity": 0.3937007874015748
        },
        {
          "duration": 0.21428550000000257,
          "durationTicks": 192,
          "midi": 53,
          "name": "F3",
          "ticks": 20736,
          "time": 23.142834,
          "velocity": 0.3937007874015748
        },
        {
          "duration": 0.10714275000000129,
          "durationTicks": 96,
          "midi": 56,
          "name": "G#3",
          "ticks": 20736,
          "time": 23.142834,
          "velocity": 0.3937007874015748
        },
        {
          "duration": 0.10714275000000129,
          "durationTicks": 96,
          "midi": 72,
          "name": "C5",
          "ticks": 20736,
          "time": 23.142834,
          "velocity": 0.3937007874015748
        },
        {
          "duration": 0.10714274999999773,
          "durationTicks": 96,
          "midi": 65,
          "name": "F4",
          "ticks": 20928,
          "time": 23.357119500000003,
          "velocity": 0.3937007874015748
        },
        {
          "duration": 0.10714275000000129,
          "durationTicks": 96,
          "midi": 60,
          "name": "C4",
          "ticks": 21024,
          "time": 23.46426225,
          "velocity": 0.3937007874015748
        },
        {
          "duration": 0.10714275000000129,
          "durationTicks": 96,
          "midi": 72,
          "name": "C5",
          "ticks": 21120,
          "time": 23.571405000000002,
          "velocity": 0.3937007874015748
        },
        {
          "duration": 0.10714275000000129,
          "durationTicks": 96,
          "midi": 65,
          "name": "F4",
          "ticks": 21312,
          "time": 23.7856905,
          "velocity": 0.3937007874015748
        },
        {
          "duration": 0.10714275000000129,
          "durationTicks": 96,
          "midi": 56,
          "name": "G#3",
          "ticks": 21312,
          "time": 23.7856905,
          "velocity": 0.3937007874015748
        },
        {
          "duration": 0.10714274999999773,
          "durationTicks": 96,
          "midi": 72,
          "name": "C5",
          "ticks": 21504,
          "time": 23.999976000000004,
          "velocity": 0.3937007874015748
        },
        {
          "duration": 0.10714275000000129,
          "durationTicks": 96,
          "midi": 60,
          "name": "C4",
          "ticks": 21600,
          "time": 24.10711875,
          "velocity": 0.3937007874015748
        },
        {
          "duration": 0.10714274999999773,
          "durationTicks": 96,
          "midi": 65,
          "name": "F4",
          "ticks": 21696,
          "time": 24.214261500000003,
          "velocity": 0.3937007874015748
        },
        {
          "duration": 0.10714275000000129,
          "durationTicks": 96,
          "midi": 56,
          "name": "G#3",
          "ticks": 21888,
          "time": 24.428547000000002,
          "velocity": 0.3937007874015748
        },
        {
          "duration": 0.10714275000000129,
          "durationTicks": 96,
          "midi": 72,
          "name": "C5",
          "ticks": 21888,
          "time": 24.428547000000002,
          "velocity": 0.3937007874015748
        },
        {
          "duration": 0.10714275000000129,
          "durationTicks": 96,
          "midi": 65,
          "name": "F4",
          "ticks": 22080,
          "time": 24.6428325,
          "velocity": 0.3937007874015748
        },
        {
          "duration": 0.10714275000000129,
          "durationTicks": 96,
          "midi": 60,
          "name": "C4",
          "ticks": 22176,
          "time": 24.749975250000002,
          "velocity": 0.3937007874015748
        },
        {
          "duration": 0.10714274999999773,
          "durationTicks": 96,
          "midi": 72,
          "name": "C5",
          "ticks": 22272,
          "time": 24.857118000000003,
          "velocity": 0.3937007874015748
        },
        {
          "duration": 0.10714275000000129,
          "durationTicks": 96,
          "midi": 56,
          "name": "G#3",
          "ticks": 22464,
          "time": 25.071403500000002,
          "velocity": 0.3937007874015748
        },
        {
          "duration": 0.10714275000000129,
          "durationTicks": 96,
          "midi": 65,
          "name": "F4",
          "ticks": 22464,
          "time": 25.071403500000002,
          "velocity": 0.3937007874015748
        },
        {
          "duration": 0.10714275000000129,
          "durationTicks": 96,
          "midi": 72,
          "name": "C5",
          "ticks": 22656,
          "time": 25.285689,
          "velocity": 0.3937007874015748
        },
        {
          "duration": 0.10714274999999773,
          "durationTicks": 96,
          "midi": 60,
          "name": "C4",
          "ticks": 22752,
          "time": 25.392831750000003,
          "velocity": 0.3937007874015748
        },
        {
          "duration": 0.10714275000000129,
          "durationTicks": 96,
          "midi": 65,
          "name": "F4",
          "ticks": 22848,
          "time": 25.4999745,
          "velocity": 0.3937007874015748
        },
        {
          "duration": 0.21428549999999902,
          "durationTicks": 192,
          "midi": 51,
          "name": "D#3",
          "ticks": 23040,
          "time": 25.714260000000003,
          "velocity": 0.3937007874015748
        },
        {
          "duration": 0.10714274999999773,
          "durationTicks": 96,
          "midi": 67,
          "name": "G4",
          "ticks": 23040,
          "time": 25.714260000000003,
          "velocity": 0.3937007874015748
        },
        {
          "duration": 0.10714274999999773,
          "durationTicks": 96,
          "midi": 55,
          "name": "G3",
          "ticks": 23040,
          "time": 25.714260000000003,
          "velocity": 0.3937007874015748
        },
        {
          "duration": 0.10714275000000129,
          "durationTicks": 96,
          "midi": 72,
          "name": "C5",
          "ticks": 23232,
          "time": 25.928545500000002,
          "velocity": 0.3937007874015748
        },
        {
          "duration": 0.10714274999999773,
          "durationTicks": 96,
          "midi": 58,
          "name": "A#3",
          "ticks": 23328,
          "time": 26.035688250000003,
          "velocity": 0.3937007874015748
        },
        {
          "duration": 0.10714275000000129,
          "durationTicks": 96,
          "midi": 67,
          "name": "G4",
          "ticks": 23424,
          "time": 26.142831,
          "velocity": 0.3937007874015748
        },
        {
          "duration": 0.10714274999999773,
          "durationTicks": 96,
          "midi": 72,
          "name": "C5",
          "ticks": 23616,
          "time": 26.357116500000004,
          "velocity": 0.3937007874015748
        },
        {
          "duration": 0.10714274999999773,
          "durationTicks": 96,
          "midi": 55,
          "name": "G3",
          "ticks": 23616,
          "time": 26.357116500000004,
          "velocity": 0.3937007874015748
        },
        {
          "duration": 0.10714275000000129,
          "durationTicks": 96,
          "midi": 67,
          "name": "G4",
          "ticks": 23808,
          "time": 26.571402000000003,
          "velocity": 0.3937007874015748
        },
        {
          "duration": 0.10714274999999773,
          "durationTicks": 96,
          "midi": 58,
          "name": "A#3",
          "ticks": 23904,
          "time": 26.678544750000004,
          "velocity": 0.3937007874015748
        },
        {
          "duration": 0.10714275000000129,
          "durationTicks": 96,
          "midi": 72,
          "name": "C5",
          "ticks": 24000,
          "time": 26.7856875,
          "velocity": 0.3937007874015748
        },
        {
          "duration": 0.10714275000000129,
          "durationTicks": 96,
          "midi": 55,
          "name": "G3",
          "ticks": 24192,
          "time": 26.999973,
          "velocity": 0.3937007874015748
        },
        {
          "duration": 0.10714275000000129,
          "durationTicks": 96,
          "midi": 67,
          "name": "G4",
          "ticks": 24192,
          "time": 26.999973,
          "velocity": 0.3937007874015748
        },
        {
          "duration": 0.10714274999999773,
          "durationTicks": 96,
          "midi": 72,
          "name": "C5",
          "ticks": 24384,
          "time": 27.214258500000003,
          "velocity": 0.3937007874015748
        },
        {
          "duration": 0.10714275000000129,
          "durationTicks": 96,
          "midi": 58,
          "name": "A#3",
          "ticks": 24480,
          "time": 27.32140125,
          "velocity": 0.3937007874015748
        },
        {
          "duration": 0.10714275000000129,
          "durationTicks": 96,
          "midi": 67,
          "name": "G4",
          "ticks": 24576,
          "time": 27.428544000000002,
          "velocity": 0.3937007874015748
        },
        {
          "duration": 0.10714275000000129,
          "durationTicks": 96,
          "midi": 72,
          "name": "C5",
          "ticks": 24768,
          "time": 27.6428295,
          "velocity": 0.3937007874015748
        },
        {
          "duration": 0.10714275000000129,
          "durationTicks": 96,
          "midi": 55,
          "name": "G3",
          "ticks": 24768,
          "time": 27.6428295,
          "velocity": 0.3937007874015748
        },
        {
          "duration": 0.10714274999999773,
          "durationTicks": 96,
          "midi": 67,
          "name": "G4",
          "ticks": 24960,
          "time": 27.857115000000004,
          "velocity": 0.3937007874015748
        },
        {
          "duration": 0.10714275000000129,
          "durationTicks": 96,
          "midi": 58,
          "name": "A#3",
          "ticks": 25056,
          "time": 27.96425775,
          "velocity": 0.3937007874015748
        },
        {
          "duration": 0.10714274999999773,
          "durationTicks": 96,
          "midi": 72,
          "name": "C5",
          "ticks": 25152,
          "time": 28.071400500000003,
          "velocity": 0.3937007874015748
        },
        {
          "duration": 0.10714275000000129,
          "durationTicks": 96,
          "midi": 68,
          "name": "G#4",
          "ticks": 25344,
          "time": 28.285686000000002,
          "velocity": 0.3937007874015748
        },
        {
          "duration": 0.10714275000000129,
          "durationTicks": 96,
          "midi": 55,
          "name": "G3",
          "ticks": 25344,
          "time": 28.285686000000002,
          "velocity": 0.3937007874015748
        },
        {
          "duration": 0.21428549999999902,
          "durationTicks": 192,
          "midi": 49,
          "name": "C#3",
          "ticks": 25344,
          "time": 28.285686000000002,
          "velocity": 0.3937007874015748
        },
        {
          "duration": 0.10714275000000129,
          "durationTicks": 96,
          "midi": 72,
          "name": "C5",
          "ticks": 25536,
          "time": 28.4999715,
          "velocity": 0.3937007874015748
        },
        {
          "duration": 0.10714275000000129,
          "durationTicks": 96,
          "midi": 58,
          "name": "A#3",
          "ticks": 25632,
          "time": 28.607114250000002,
          "velocity": 0.3937007874015748
        },
        {
          "duration": 0.10714274999999773,
          "durationTicks": 96,
          "midi": 68,
          "name": "G#4",
          "ticks": 25728,
          "time": 28.714257000000003,
          "velocity": 0.3937007874015748
        },
        {
          "duration": 0.10714275000000129,
          "durationTicks": 96,
          "midi": 55,
          "name": "G3",
          "ticks": 25920,
          "time": 28.928542500000002,
          "velocity": 0.3937007874015748
        },
        {
          "duration": 0.10714275000000129,
          "durationTicks": 96,
          "midi": 72,
          "name": "C5",
          "ticks": 25920,
          "time": 28.928542500000002,
          "velocity": 0.3937007874015748
        },
        {
          "duration": 0.10714275000000129,
          "durationTicks": 96,
          "midi": 68,
          "name": "G#4",
          "ticks": 26112,
          "time": 29.142828,
          "velocity": 0.3937007874015748
        },
        {
          "duration": 0.10714275000000129,
          "durationTicks": 96,
          "midi": 58,
          "name": "A#3",
          "ticks": 26208,
          "time": 29.249970750000003,
          "velocity": 0.3937007874015748
        },
        {
          "duration": 0.10714274999999773,
          "durationTicks": 96,
          "midi": 72,
          "name": "C5",
          "ticks": 26304,
          "time": 29.357113500000004,
          "velocity": 0.3937007874015748
        },
        {
          "duration": 0.10714274999999773,
          "durationTicks": 96,
          "midi": 68,
          "name": "G#4",
          "ticks": 26496,
          "time": 29.571399000000003,
          "velocity": 0.3937007874015748
        },
        {
          "duration": 0.10714274999999773,
          "durationTicks": 96,
          "midi": 55,
          "name": "G3",
          "ticks": 26496,
          "time": 29.571399000000003,
          "velocity": 0.3937007874015748
        },
        {
          "duration": 0.10714275000000129,
          "durationTicks": 96,
          "midi": 72,
          "name": "C5",
          "ticks": 26688,
          "time": 29.785684500000002,
          "velocity": 0.3937007874015748
        },
        {
          "duration": 0.10714274999999773,
          "durationTicks": 96,
          "midi": 58,
          "name": "A#3",
          "ticks": 26784,
          "time": 29.892827250000003,
          "velocity": 0.3937007874015748
        },
        {
          "duration": 0.10714275000000129,
          "durationTicks": 96,
          "midi": 68,
          "name": "G#4",
          "ticks": 26880,
          "time": 29.99997,
          "velocity": 0.3937007874015748
        },
        {
          "duration": 0.10714274999999773,
          "durationTicks": 96,
          "midi": 72,
          "name": "C5",
          "ticks": 27072,
          "time": 30.214255500000004,
          "velocity": 0.3937007874015748
        },
        {
          "duration": 0.10714274999999773,
          "durationTicks": 96,
          "midi": 55,
          "name": "G3",
          "ticks": 27072,
          "time": 30.214255500000004,
          "velocity": 0.3937007874015748
        },
        {
          "duration": 0.10714275000000129,
          "durationTicks": 96,
          "midi": 68,
          "name": "G#4",
          "ticks": 27264,
          "time": 30.428541000000003,
          "velocity": 0.3937007874015748
        },
        {
          "duration": 0.10714274999999773,
          "durationTicks": 96,
          "midi": 58,
          "name": "A#3",
          "ticks": 27360,
          "time": 30.535683750000004,
          "velocity": 0.3937007874015748
        },
        {
          "duration": 0.10714275000000129,
          "durationTicks": 96,
          "midi": 72,
          "name": "C5",
          "ticks": 27456,
          "time": 30.6428265,
          "velocity": 0.3937007874015748
        },
        {
          "duration": 0.10714275000000129,
          "durationTicks": 96,
          "midi": 56,
          "name": "G#3",
          "ticks": 27648,
          "time": 30.857112,
          "velocity": 0.3937007874015748
        },
        {
          "duration": 0.21428550000000257,
          "durationTicks": 192,
          "midi": 53,
          "name": "F3",
          "ticks": 27648,
          "time": 30.857112,
          "velocity": 0.3937007874015748
        },
        {
          "duration": 0.10714275000000129,
          "durationTicks": 96,
          "midi": 65,
          "name": "F4",
          "ticks": 27648,
          "time": 30.857112,
          "velocity": 0.3937007874015748
        },
        {
          "duration": 0.10714274999999773,
          "durationTicks": 96,
          "midi": 68,
          "name": "G#4",
          "ticks": 27840,
          "time": 31.071397500000003,
          "velocity": 0.3937007874015748
        },
        {
          "duration": 0.10714275000000129,
          "durationTicks": 96,
          "midi": 60,
          "name": "C4",
          "ticks": 27936,
          "time": 31.17854025,
          "velocity": 0.3937007874015748
        },
        {
          "duration": 0.10714275000000129,
          "durationTicks": 96,
          "midi": 65,
          "name": "F4",
          "ticks": 28032,
          "time": 31.285683000000002,
          "velocity": 0.3937007874015748
        },
        {
          "duration": 0.10714275000000129,
          "durationTicks": 96,
          "midi": 68,
          "name": "G#4",
          "ticks": 28224,
          "time": 31.4999685,
          "velocity": 0.3937007874015748
        },
        {
          "duration": 0.10714275000000129,
          "durationTicks": 96,
          "midi": 56,
          "name": "G#3",
          "ticks": 28224,
          "time": 31.4999685,
          "velocity": 0.3937007874015748
        },
        {
          "duration": 0.10714274999999773,
          "durationTicks": 96,
          "midi": 65,
          "name": "F4",
          "ticks": 28416,
          "time": 31.714254000000004,
          "velocity": 0.3937007874015748
        },
        {
          "duration": 0.10714275000000129,
          "durationTicks": 96,
          "midi": 60,
          "name": "C4",
          "ticks": 28512,
          "time": 31.82139675,
          "velocity": 0.3937007874015748
        },
        {
          "duration": 0.10714274999999773,
          "durationTicks": 96,
          "midi": 68,
          "name": "G#4",
          "ticks": 28608,
          "time": 31.928539500000003,
          "velocity": 0.3937007874015748
        },
        {
          "duration": 0.10714275000000129,
          "durationTicks": 96,
          "midi": 65,
          "name": "F4",
          "ticks": 28800,
          "time": 32.142825,
          "velocity": 0.3937007874015748
        },
        {
          "duration": 0.10714275000000129,
          "durationTicks": 96,
          "midi": 56,
          "name": "G#3",
          "ticks": 28800,
          "time": 32.142825,
          "velocity": 0.3937007874015748
        },
        {
          "duration": 0.10714275000000129,
          "durationTicks": 96,
          "midi": 68,
          "name": "G#4",
          "ticks": 28992,
          "time": 32.357110500000005,
          "velocity": 0.3937007874015748
        },
        {
          "duration": 0.10714274999999418,
          "durationTicks": 96,
          "midi": 60,
          "name": "C4",
          "ticks": 29088,
          "time": 32.464253250000006,
          "velocity": 0.3937007874015748
        },
        {
          "duration": 0.10714275000000129,
          "durationTicks": 96,
          "midi": 65,
          "name": "F4",
          "ticks": 29184,
          "time": 32.571396,
          "velocity": 0.3937007874015748
        },
        {
          "duration": 0.10714275000000129,
          "durationTicks": 96,
          "midi": 56,
          "name": "G#3",
          "ticks": 29376,
          "time": 32.7856815,
          "velocity": 0.3937007874015748
        },
        {
          "duration": 0.10714275000000129,
          "durationTicks": 96,
          "midi": 68,
          "name": "G#4",
          "ticks": 29376,
          "time": 32.7856815,
          "velocity": 0.3937007874015748
        },
        {
          "duration": 0.10714274999999418,
          "durationTicks": 96,
          "midi": 65,
          "name": "F4",
          "ticks": 29568,
          "time": 32.999967000000005,
          "velocity": 0.3937007874015748
        },
        {
          "duration": 0.10714275000000129,
          "durationTicks": 96,
          "midi": 60,
          "name": "C4",
          "ticks": 29664,
          "time": 33.10710975,
          "velocity": 0.3937007874015748
        },
        {
          "duration": 0.10714275000000129,
          "durationTicks": 96,
          "midi": 68,
          "name": "G#4",
          "ticks": 29760,
          "time": 33.2142525,
          "velocity": 0.3937007874015748
        },
        {
          "duration": 0.10714275000000129,
          "durationTicks": 96,
          "midi": 56,
          "name": "G#3",
          "ticks": 29952,
          "time": 33.428538,
          "velocity": 0.3937007874015748
        },
        {
          "duration": 0.10714275000000129,
          "durationTicks": 96,
          "midi": 72,
          "name": "C5",
          "ticks": 29952,
          "time": 33.428538,
          "velocity": 0.3937007874015748
        },
        {
          "duration": 0.21428550000000257,
          "durationTicks": 192,
          "midi": 53,
          "name": "F3",
          "ticks": 29952,
          "time": 33.428538,
          "velocity": 0.3937007874015748
        },
        {
          "duration": 0.10714274999999418,
          "durationTicks": 96,
          "midi": 65,
          "name": "F4",
          "ticks": 30144,
          "time": 33.642823500000006,
          "velocity": 0.3937007874015748
        },
        {
          "duration": 0.10714275000000129,
          "durationTicks": 96,
          "midi": 60,
          "name": "C4",
          "ticks": 30240,
          "time": 33.74996625,
          "velocity": 0.3937007874015748
        },
        {
          "duration": 0.10714275000000129,
          "durationTicks": 96,
          "midi": 72,
          "name": "C5",
          "ticks": 30336,
          "time": 33.857109,
          "velocity": 0.3937007874015748
        },
        {
          "duration": 0.10714275000000129,
          "durationTicks": 96,
          "midi": 65,
          "name": "F4",
          "ticks": 30528,
          "time": 34.071394500000004,
          "velocity": 0.3937007874015748
        },
        {
          "duration": 0.10714275000000129,
          "durationTicks": 96,
          "midi": 56,
          "name": "G#3",
          "ticks": 30528,
          "time": 34.071394500000004,
          "velocity": 0.3937007874015748
        },
        {
          "duration": 0.10714275000000129,
          "durationTicks": 96,
          "midi": 72,
          "name": "C5",
          "ticks": 30720,
          "time": 34.28568,
          "velocity": 0.3937007874015748
        },
        {
          "duration": 0.10714275000000129,
          "durationTicks": 96,
          "midi": 60,
          "name": "C4",
          "ticks": 30816,
          "time": 34.39282275,
          "velocity": 0.3937007874015748
        },
        {
          "duration": 0.10714275000000129,
          "durationTicks": 96,
          "midi": 65,
          "name": "F4",
          "ticks": 30912,
          "time": 34.4999655,
          "velocity": 0.3937007874015748
        },
        {
          "duration": 0.10714275000000129,
          "durationTicks": 96,
          "midi": 72,
          "name": "C5",
          "ticks": 31104,
          "time": 34.714251000000004,
          "velocity": 0.3937007874015748
        },
        {
          "duration": 0.10714275000000129,
          "durationTicks": 96,
          "midi": 56,
          "name": "G#3",
          "ticks": 31104,
          "time": 34.714251000000004,
          "velocity": 0.3937007874015748
        },
        {
          "duration": 0.10714275000000129,
          "durationTicks": 96,
          "midi": 65,
          "name": "F4",
          "ticks": 31296,
          "time": 34.9285365,
          "velocity": 0.3937007874015748
        },
        {
          "duration": 0.10714275000000129,
          "durationTicks": 96,
          "midi": 60,
          "name": "C4",
          "ticks": 31392,
          "time": 35.03567925,
          "velocity": 0.3937007874015748
        },
        {
          "duration": 0.10714275000000129,
          "durationTicks": 96,
          "midi": 72,
          "name": "C5",
          "ticks": 31488,
          "time": 35.142822,
          "velocity": 0.3937007874015748
        },
        {
          "duration": 0.10714275000000129,
          "durationTicks": 96,
          "midi": 56,
          "name": "G#3",
          "ticks": 31680,
          "time": 35.357107500000005,
          "velocity": 0.3937007874015748
        },
        {
          "duration": 0.10714275000000129,
          "durationTicks": 96,
          "midi": 65,
          "name": "F4",
          "ticks": 31680,
          "time": 35.357107500000005,
          "velocity": 0.3937007874015748
        },
        {
          "duration": 0.10714275000000129,
          "durationTicks": 96,
          "midi": 72,
          "name": "C5",
          "ticks": 31872,
          "time": 35.571393,
          "velocity": 0.3937007874015748
        },
        {
          "duration": 0.10714275000000129,
          "durationTicks": 96,
          "midi": 60,
          "name": "C4",
          "ticks": 31968,
          "time": 35.67853575,
          "velocity": 0.3937007874015748
        },
        {
          "duration": 0.10714275000000129,
          "durationTicks": 96,
          "midi": 65,
          "name": "F4",
          "ticks": 32064,
          "time": 35.7856785,
          "velocity": 0.3937007874015748
        },
        {
          "duration": 0.10714274999999418,
          "durationTicks": 96,
          "midi": 55,
          "name": "G3",
          "ticks": 32256,
          "time": 35.999964000000006,
          "velocity": 0.3937007874015748
        },
        {
          "duration": 0.21428549999999547,
          "durationTicks": 192,
          "midi": 51,
          "name": "D#3",
          "ticks": 32256,
          "time": 35.999964000000006,
          "velocity": 0.3937007874015748
        },
        {
          "duration": 0.10714274999999418,
          "durationTicks": 96,
          "midi": 67,
          "name": "G4",
          "ticks": 32256,
          "time": 35.999964000000006,
          "velocity": 0.3937007874015748
        },
        {
          "duration": 0.10714275000000129,
          "durationTicks": 96,
          "midi": 72,
          "name": "C5",
          "ticks": 32448,
          "time": 36.2142495,
          "velocity": 0.3937007874015748
        },
        {
          "duration": 0.10714275000000129,
          "durationTicks": 96,
          "midi": 58,
          "name": "A#3",
          "ticks": 32544,
          "time": 36.32139225,
          "velocity": 0.3937007874015748
        },
        {
          "duration": 0.10714275000000129,
          "durationTicks": 96,
          "midi": 67,
          "name": "G4",
          "ticks": 32640,
          "time": 36.428535000000004,
          "velocity": 0.3937007874015748
        },
        {
          "duration": 0.10714274999999418,
          "durationTicks": 96,
          "midi": 55,
          "name": "G3",
          "ticks": 32832,
          "time": 36.642820500000006,
          "velocity": 0.3937007874015748
        },
        {
          "duration": 0.10714274999999418,
          "durationTicks": 96,
          "midi": 72,
          "name": "C5",
          "ticks": 32832,
          "time": 36.642820500000006,
          "velocity": 0.3937007874015748
        },
        {
          "duration": 0.10714275000000129,
          "durationTicks": 96,
          "midi": 67,
          "name": "G4",
          "ticks": 33024,
          "time": 36.857106,
          "velocity": 0.3937007874015748
        },
        {
          "duration": 0.10714275000000129,
          "durationTicks": 96,
          "midi": 58,
          "name": "A#3",
          "ticks": 33120,
          "time": 36.96424875,
          "velocity": 0.3937007874015748
        },
        {
          "duration": 0.10714275000000129,
          "durationTicks": 96,
          "midi": 72,
          "name": "C5",
          "ticks": 33216,
          "time": 37.071391500000004,
          "velocity": 0.3937007874015748
        },
        {
          "duration": 0.10714275000000129,
          "durationTicks": 96,
          "midi": 55,
          "name": "G3",
          "ticks": 33408,
          "time": 37.285677,
          "velocity": 0.3937007874015748
        },
        {
          "duration": 0.10714275000000129,
          "durationTicks": 96,
          "midi": 67,
          "name": "G4",
          "ticks": 33408,
          "time": 37.285677,
          "velocity": 0.3937007874015748
        },
        {
          "duration": 0.10714275000000129,
          "durationTicks": 96,
          "midi": 72,
          "name": "C5",
          "ticks": 33600,
          "time": 37.4999625,
          "velocity": 0.3937007874015748
        },
        {
          "duration": 0.10714275000000129,
          "durationTicks": 96,
          "midi": 58,
          "name": "A#3",
          "ticks": 33696,
          "time": 37.607105250000004,
          "velocity": 0.3937007874015748
        },
        {
          "duration": 0.10714275000000129,
          "durationTicks": 96,
          "midi": 67,
          "name": "G4",
          "ticks": 33792,
          "time": 37.714248000000005,
          "velocity": 0.3937007874015748
        },
        {
          "duration": 0.10714275000000129,
          "durationTicks": 96,
          "midi": 72,
          "name": "C5",
          "ticks": 33984,
          "time": 37.9285335,
          "velocity": 0.3937007874015748
        },
        {
          "duration": 0.10714275000000129,
          "durationTicks": 96,
          "midi": 55,
          "name": "G3",
          "ticks": 33984,
          "time": 37.9285335,
          "velocity": 0.3937007874015748
        },
        {
          "duration": 0.10714275000000129,
          "durationTicks": 96,
          "midi": 67,
          "name": "G4",
          "ticks": 34176,
          "time": 38.142819,
          "velocity": 0.3937007874015748
        },
        {
          "duration": 0.10714275000000129,
          "durationTicks": 96,
          "midi": 58,
          "name": "A#3",
          "ticks": 34272,
          "time": 38.249961750000004,
          "velocity": 0.3937007874015748
        },
        {
          "duration": 0.10714274999999418,
          "durationTicks": 96,
          "midi": 72,
          "name": "C5",
          "ticks": 34368,
          "time": 38.357104500000005,
          "velocity": 0.3937007874015748
        },
        {
          "duration": 0.21428550000000257,
          "durationTicks": 192,
          "midi": 46,
          "name": "A#2",
          "ticks": 34560,
          "time": 38.57139,
          "velocity": 0.3937007874015748
        },
        {
          "duration": 0.10714275000000129,
          "durationTicks": 96,
          "midi": 68,
          "name": "G#4",
          "ticks": 34560,
          "time": 38.57139,
          "velocity": 0.3937007874015748
        },
        {
          "duration": 0.10714275000000129,
          "durationTicks": 96,
          "midi": 55,
          "name": "G3",
          "ticks": 34560,
          "time": 38.57139,
          "velocity": 0.3937007874015748
        },
        {
          "duration": 0.10714275000000129,
          "durationTicks": 96,
          "midi": 72,
          "name": "C5",
          "ticks": 34752,
          "time": 38.7856755,
          "velocity": 0.3937007874015748
        },
        {
          "duration": 0.10714275000000129,
          "durationTicks": 96,
          "midi": 58,
          "name": "A#3",
          "ticks": 34848,
          "time": 38.892818250000005,
          "velocity": 0.3937007874015748
        },
        {
          "duration": 0.10714274999999418,
          "durationTicks": 96,
          "midi": 68,
          "name": "G#4",
          "ticks": 34944,
          "time": 38.999961000000006,
          "velocity": 0.3937007874015748
        },
        {
          "duration": 0.10714275000000129,
          "durationTicks": 96,
          "midi": 72,
          "name": "C5",
          "ticks": 35136,
          "time": 39.2142465,
          "velocity": 0.3937007874015748
        },
        {
          "duration": 0.10714275000000129,
          "durationTicks": 96,
          "midi": 55,
          "name": "G3",
          "ticks": 35136,
          "time": 39.2142465,
          "velocity": 0.3937007874015748
        },
        {
          "duration": 0.10714275000000129,
          "durationTicks": 96,
          "midi": 68,
          "name": "G#4",
          "ticks": 35328,
          "time": 39.428532000000004,
          "velocity": 0.3937007874015748
        },
        {
          "duration": 0.10714275000000129,
          "durationTicks": 96,
          "midi": 58,
          "name": "A#3",
          "ticks": 35424,
          "time": 39.535674750000005,
          "velocity": 0.3937007874015748
        },
        {
          "duration": 0.10714274999999418,
          "durationTicks": 96,
          "midi": 72,
          "name": "C5",
          "ticks": 35520,
          "time": 39.64281750000001,
          "velocity": 0.3937007874015748
        },
        {
          "duration": 0.10714275000000129,
          "durationTicks": 96,
          "midi": 68,
          "name": "G#4",
          "ticks": 35712,
          "time": 39.857103,
          "velocity": 0.3937007874015748
        },
        {
          "duration": 0.10714275000000129,
          "durationTicks": 96,
          "midi": 55,
          "name": "G3",
          "ticks": 35712,
          "time": 39.857103,
          "velocity": 0.3937007874015748
        },
        {
          "duration": 0.10714275000000129,
          "durationTicks": 96,
          "midi": 72,
          "name": "C5",
          "ticks": 35904,
          "time": 40.071388500000005,
          "velocity": 0.3937007874015748
        },
        {
          "duration": 0.10714274999999418,
          "durationTicks": 96,
          "midi": 58,
          "name": "A#3",
          "ticks": 36000,
          "time": 40.178531250000006,
          "velocity": 0.3937007874015748
        },
        {
          "duration": 0.10714275000000129,
          "durationTicks": 96,
          "midi": 68,
          "name": "G#4",
          "ticks": 36096,
          "time": 40.285674,
          "velocity": 0.3937007874015748
        },
        {
          "duration": 0.10714275000000129,
          "durationTicks": 96,
          "midi": 55,
          "name": "G3",
          "ticks": 36288,
          "time": 40.4999595,
          "velocity": 0.3937007874015748
        },
        {
          "duration": 0.10714275000000129,
          "durationTicks": 96,
          "midi": 72,
          "name": "C5",
          "ticks": 36288,
          "time": 40.4999595,
          "velocity": 0.3937007874015748
        },
        {
          "duration": 0.10714275000000129,
          "durationTicks": 96,
          "midi": 68,
          "name": "G#4",
          "ticks": 36480,
          "time": 40.714245000000005,
          "velocity": 0.3937007874015748
        },
        {
          "duration": 0.10714274999999418,
          "durationTicks": 96,
          "midi": 58,
          "name": "A#3",
          "ticks": 36576,
          "time": 40.82138775000001,
          "velocity": 0.3937007874015748
        },
        {
          "duration": 0.10714275000000129,
          "durationTicks": 96,
          "midi": 72,
          "name": "C5",
          "ticks": 36672,
          "time": 40.9285305,
          "velocity": 0.3937007874015748
        },
        {
          "duration": 0.10714275000000129,
          "durationTicks": 96,
          "midi": 60,
          "name": "C4",
          "ticks": 36864,
          "time": 41.142816,
          "velocity": 0.3937007874015748
        },
        {
          "duration": 0.21428550000000257,
          "durationTicks": 192,
          "midi": 48,
          "name": "C3",
          "ticks": 36864,
          "time": 41.142816,
          "velocity": 0.3937007874015748
        },
        {
          "duration": 0.10714275000000129,
          "durationTicks": 96,
          "midi": 53,
          "name": "F3",
          "ticks": 36864,
          "time": 41.142816,
          "velocity": 0.3937007874015748
        },
        {
          "duration": 0.10714274999999418,
          "durationTicks": 96,
          "midi": 65,
          "name": "F4",
          "ticks": 37056,
          "time": 41.357101500000006,
          "velocity": 0.3937007874015748
        },
        {
          "duration": 0.10714275000000129,
          "durationTicks": 96,
          "midi": 56,
          "name": "G#3",
          "ticks": 37152,
          "time": 41.46424425,
          "velocity": 0.3937007874015748
        },
        {
          "duration": 0.10714275000000129,
          "durationTicks": 96,
          "midi": 60,
          "name": "C4",
          "ticks": 37248,
          "time": 41.571387,
          "velocity": 0.3937007874015748
        },
        {
          "duration": 0.10714275000000129,
          "durationTicks": 96,
          "midi": 53,
          "name": "F3",
          "ticks": 37440,
          "time": 41.785672500000004,
          "velocity": 0.3937007874015748
        },
        {
          "duration": 0.10714275000000129,
          "durationTicks": 96,
          "midi": 65,
          "name": "F4",
          "ticks": 37440,
          "time": 41.785672500000004,
          "velocity": 0.3937007874015748
        },
        {
          "duration": 0.10714274999999418,
          "durationTicks": 96,
          "midi": 60,
          "name": "C4",
          "ticks": 37632,
          "time": 41.99995800000001,
          "velocity": 0.3937007874015748
        },
        {
          "duration": 0.10714275000000129,
          "durationTicks": 96,
          "midi": 56,
          "name": "G#3",
          "ticks": 37728,
          "time": 42.10710075,
          "velocity": 0.3937007874015748
        },
        {
          "duration": 0.10714275000000129,
          "durationTicks": 96,
          "midi": 65,
          "name": "F4",
          "ticks": 37824,
          "time": 42.2142435,
          "velocity": 0.3937007874015748
        },
        {
          "duration": 0.10714275000000129,
          "durationTicks": 96,
          "midi": 53,
          "name": "F3",
          "ticks": 38016,
          "time": 42.428529000000005,
          "velocity": 0.3937007874015748
        },
        {
          "duration": 0.10714275000000129,
          "durationTicks": 96,
          "midi": 60,
          "name": "C4",
          "ticks": 38016,
          "time": 42.428529000000005,
          "velocity": 0.3937007874015748
        },
        {
          "duration": 0.10714275000000129,
          "durationTicks": 96,
          "midi": 65,
          "name": "F4",
          "ticks": 38208,
          "time": 42.6428145,
          "velocity": 0.3937007874015748
        },
        {
          "duration": 0.10714275000000129,
          "durationTicks": 96,
          "midi": 56,
          "name": "G#3",
          "ticks": 38304,
          "time": 42.74995725,
          "velocity": 0.3937007874015748
        },
        {
          "duration": 0.10714275000000129,
          "durationTicks": 96,
          "midi": 60,
          "name": "C4",
          "ticks": 38400,
          "time": 42.8571,
          "velocity": 0.3937007874015748
        },
        {
          "duration": 0.10714275000000129,
          "durationTicks": 96,
          "midi": 53,
          "name": "F3",
          "ticks": 38592,
          "time": 43.071385500000005,
          "velocity": 0.3937007874015748
        },
        {
          "duration": 0.10714275000000129,
          "durationTicks": 96,
          "midi": 65,
          "name": "F4",
          "ticks": 38592,
          "time": 43.071385500000005,
          "velocity": 0.3937007874015748
        },
        {
          "duration": 0.10714275000000129,
          "durationTicks": 96,
          "midi": 60,
          "name": "C4",
          "ticks": 38784,
          "time": 43.285671,
          "velocity": 0.3937007874015748
        },
        {
          "duration": 0.10714275000000129,
          "durationTicks": 96,
          "midi": 56,
          "name": "G#3",
          "ticks": 38880,
          "time": 43.39281375,
          "velocity": 0.3937007874015748
        },
        {
          "duration": 0.10714275000000129,
          "durationTicks": 96,
          "midi": 65,
          "name": "F4",
          "ticks": 38976,
          "time": 43.4999565,
          "velocity": 0.3937007874015748
        },
        {
          "duration": 0.10714275000000129,
          "durationTicks": 96,
          "midi": 53,
          "name": "F3",
          "ticks": 39168,
          "time": 43.714242000000006,
          "velocity": 0.3937007874015748
        },
        {
          "duration": 0.10714275000000129,
          "durationTicks": 96,
          "midi": 62,
          "name": "D4",
          "ticks": 39168,
          "time": 43.714242000000006,
          "velocity": 0.3937007874015748
        },
        {
          "duration": 0.21428549999999547,
          "durationTicks": 192,
          "midi": 46,
          "name": "A#2",
          "ticks": 39168,
          "time": 43.714242000000006,
          "velocity": 0.3937007874015748
        },
        {
          "duration": 0.10714275000000129,
          "durationTicks": 96,
          "midi": 65,
          "name": "F4",
          "ticks": 39360,
          "time": 43.9285275,
          "velocity": 0.3937007874015748
        },
        {
          "duration": 0.10714275000000129,
          "durationTicks": 96,
          "midi": 56,
          "name": "G#3",
          "ticks": 39456,
          "time": 44.03567025,
          "velocity": 0.3937007874015748
        },
        {
          "duration": 0.10714275000000129,
          "durationTicks": 96,
          "midi": 62,
          "name": "D4",
          "ticks": 39552,
          "time": 44.142813000000004,
          "velocity": 0.3937007874015748
        },
        {
          "duration": 0.10714274999999418,
          "durationTicks": 96,
          "midi": 53,
          "name": "F3",
          "ticks": 39744,
          "time": 44.357098500000006,
          "velocity": 0.3937007874015748
        },
        {
          "duration": 0.10714274999999418,
          "durationTicks": 96,
          "midi": 65,
          "name": "F4",
          "ticks": 39744,
          "time": 44.357098500000006,
          "velocity": 0.3937007874015748
        },
        {
          "duration": 0.10714275000000129,
          "durationTicks": 96,
          "midi": 62,
          "name": "D4",
          "ticks": 39936,
          "time": 44.571384,
          "velocity": 0.3937007874015748
        },
        {
          "duration": 0.10714275000000129,
          "durationTicks": 96,
          "midi": 56,
          "name": "G#3",
          "ticks": 40032,
          "time": 44.67852675,
          "velocity": 0.3937007874015748
        },
        {
          "duration": 0.10714275000000129,
          "durationTicks": 96,
          "midi": 65,
          "name": "F4",
          "ticks": 40128,
          "time": 44.785669500000004,
          "velocity": 0.3937007874015748
        },
        {
          "duration": 0.10714274999999418,
          "durationTicks": 96,
          "midi": 53,
          "name": "F3",
          "ticks": 40320,
          "time": 44.99995500000001,
          "velocity": 0.3937007874015748
        },
        {
          "duration": 0.10714274999999418,
          "durationTicks": 96,
          "midi": 62,
          "name": "D4",
          "ticks": 40320,
          "time": 44.99995500000001,
          "velocity": 0.3937007874015748
        },
        {
          "duration": 0.10714275000000129,
          "durationTicks": 96,
          "midi": 65,
          "name": "F4",
          "ticks": 40512,
          "time": 45.2142405,
          "velocity": 0.3937007874015748
        },
        {
          "duration": 0.10714275000000129,
          "durationTicks": 96,
          "midi": 56,
          "name": "G#3",
          "ticks": 40608,
          "time": 45.321383250000004,
          "velocity": 0.3937007874015748
        },
        {
          "duration": 0.10714275000000129,
          "durationTicks": 96,
          "midi": 62,
          "name": "D4",
          "ticks": 40704,
          "time": 45.428526000000005,
          "velocity": 0.3937007874015748
        },
        {
          "duration": 0.10714275000000129,
          "durationTicks": 96,
          "midi": 65,
          "name": "F4",
          "ticks": 40896,
          "time": 45.6428115,
          "velocity": 0.3937007874015748
        },
        {
          "duration": 0.10714275000000129,
          "durationTicks": 96,
          "midi": 53,
          "name": "F3",
          "ticks": 40896,
          "time": 45.6428115,
          "velocity": 0.3937007874015748
        },
        {
          "duration": 0.10714275000000129,
          "durationTicks": 96,
          "midi": 62,
          "name": "D4",
          "ticks": 41088,
          "time": 45.857097,
          "velocity": 0.3937007874015748
        },
        {
          "duration": 0.10714275000000129,
          "durationTicks": 96,
          "midi": 56,
          "name": "G#3",
          "ticks": 41184,
          "time": 45.964239750000004,
          "velocity": 0.3937007874015748
        },
        {
          "duration": 0.10714275000000129,
          "durationTicks": 96,
          "midi": 65,
          "name": "F4",
          "ticks": 41280,
          "time": 46.071382500000006,
          "velocity": 0.3937007874015748
        },
        {
          "duration": 0.10714275000000129,
          "durationTicks": 96,
          "midi": 51,
          "name": "D#3",
          "ticks": 41472,
          "time": 46.285668,
          "velocity": 0.3937007874015748
        },
        {
          "duration": 0.21428550000000257,
          "durationTicks": 192,
          "midi": 46,
          "name": "A#2",
          "ticks": 41472,
          "time": 46.285668,
          "velocity": 0.3937007874015748
        },
        {
          "duration": 0.10714275000000129,
          "durationTicks": 96,
          "midi": 58,
          "name": "A#3",
          "ticks": 41472,
          "time": 46.285668,
          "velocity": 0.3937007874015748
        },
        {
          "duration": 0.10714275000000129,
          "durationTicks": 96,
          "midi": 63,
          "name": "D#4",
          "ticks": 41664,
          "time": 46.499953500000004,
          "velocity": 0.3937007874015748
        },
        {
          "duration": 0.10714275000000129,
          "durationTicks": 96,
          "midi": 55,
          "name": "G3",
          "ticks": 41760,
          "time": 46.607096250000005,
          "velocity": 0.3937007874015748
        },
        {
          "duration": 0.10714274999999418,
          "durationTicks": 96,
          "midi": 58,
          "name": "A#3",
          "ticks": 41856,
          "time": 46.714239000000006,
          "velocity": 0.3937007874015748
        },
        {
          "duration": 0.10714275000000129,
          "durationTicks": 96,
          "midi": 63,
          "name": "D#4",
          "ticks": 42048,
          "time": 46.9285245,
          "velocity": 0.3937007874015748
        },
        {
          "duration": 0.10714275000000129,
          "durationTicks": 96,
          "midi": 51,
          "name": "D#3",
          "ticks": 42048,
          "time": 46.9285245,
          "velocity": 0.3937007874015748
        },
        {
          "duration": 0.10714275000000129,
          "durationTicks": 96,
          "midi": 58,
          "name": "A#3",
          "ticks": 42240,
          "time": 47.142810000000004,
          "velocity": 0.3937007874015748
        },
        {
          "duration": 0.10714275000000129,
          "durationTicks": 96,
          "midi": 55,
          "name": "G3",
          "ticks": 42336,
          "time": 47.249952750000006,
          "velocity": 0.3937007874015748
        },
        {
          "duration": 0.10714274999999418,
          "durationTicks": 96,
          "midi": 63,
          "name": "D#4",
          "ticks": 42432,
          "time": 47.35709550000001,
          "velocity": 0.3937007874015748
        },
        {
          "duration": 0.10714275000000129,
          "durationTicks": 96,
          "midi": 51,
          "name": "D#3",
          "ticks": 42624,
          "time": 47.571381,
          "velocity": 0.3937007874015748
        },
        {
          "duration": 0.10714275000000129,
          "durationTicks": 96,
          "midi": 58,
          "name": "A#3",
          "ticks": 42624,
          "time": 47.571381,
          "velocity": 0.3937007874015748
        },
        {
          "duration": 0.10714275000000129,
          "durationTicks": 96,
          "midi": 63,
          "name": "D#4",
          "ticks": 42816,
          "time": 47.785666500000005,
          "velocity": 0.3937007874015748
        },
        {
          "duration": 0.10714275000000129,
          "durationTicks": 96,
          "midi": 55,
          "name": "G3",
          "ticks": 42912,
          "time": 47.892809250000006,
          "velocity": 0.3937007874015748
        },
        {
          "duration": 0.10714274999999418,
          "durationTicks": 96,
          "midi": 58,
          "name": "A#3",
          "ticks": 43008,
          "time": 47.99995200000001,
          "velocity": 0.3937007874015748
        },
        {
          "duration": 0.10714275000000129,
          "durationTicks": 96,
          "midi": 51,
          "name": "D#3",
          "ticks": 43200,
          "time": 48.2142375,
          "velocity": 0.3937007874015748
        },
        {
          "duration": 0.10714275000000129,
          "durationTicks": 96,
          "midi": 63,
          "name": "D#4",
          "ticks": 43200,
          "time": 48.2142375,
          "velocity": 0.3937007874015748
        },
        {
          "duration": 0.10714275000000129,
          "durationTicks": 96,
          "midi": 58,
          "name": "A#3",
          "ticks": 43392,
          "time": 48.428523000000006,
          "velocity": 0.3937007874015748
        },
        {
          "duration": 0.10714274999999418,
          "durationTicks": 96,
          "midi": 55,
          "name": "G3",
          "ticks": 43488,
          "time": 48.53566575000001,
          "velocity": 0.3937007874015748
        },
        {
          "duration": 0.10714275000000129,
          "durationTicks": 96,
          "midi": 63,
          "name": "D#4",
          "ticks": 43584,
          "time": 48.6428085,
          "velocity": 0.3937007874015748
        },
        {
          "duration": 0.10714275000000129,
          "durationTicks": 96,
          "midi": 60,
          "name": "C4",
          "ticks": 43776,
          "time": 48.857094000000004,
          "velocity": 0.3937007874015748
        },
        {
          "duration": 0.10714275000000129,
          "durationTicks": 96,
          "midi": 51,
          "name": "D#3",
          "ticks": 43776,
          "time": 48.857094000000004,
          "velocity": 0.3937007874015748
        },
        {
          "duration": 0.21428550000000257,
          "durationTicks": 192,
          "midi": 43,
          "name": "G2",
          "ticks": 43776,
          "time": 48.857094000000004,
          "velocity": 0.3937007874015748
        },
        {
          "duration": 0.10714275000000129,
          "durationTicks": 96,
          "midi": 63,
          "name": "D#4",
          "ticks": 43968,
          "time": 49.071379500000006,
          "velocity": 0.3937007874015748
        },
        {
          "duration": 0.10714274999999418,
          "durationTicks": 96,
          "midi": 55,
          "name": "G3",
          "ticks": 44064,
          "time": 49.17852225000001,
          "velocity": 0.3937007874015748
        },
        {
          "duration": 0.10714275000000129,
          "durationTicks": 96,
          "midi": 60,
          "name": "C4",
          "ticks": 44160,
          "time": 49.285665,
          "velocity": 0.3937007874015748
        },
        {
          "duration": 0.10714275000000129,
          "durationTicks": 96,
          "midi": 63,
          "name": "D#4",
          "ticks": 44352,
          "time": 49.499950500000004,
          "velocity": 0.3937007874015748
        },
        {
          "duration": 0.10714275000000129,
          "durationTicks": 96,
          "midi": 51,
          "name": "D#3",
          "ticks": 44352,
          "time": 49.499950500000004,
          "velocity": 0.3937007874015748
        },
        {
          "duration": 0.10714274999999418,
          "durationTicks": 96,
          "midi": 60,
          "name": "C4",
          "ticks": 44544,
          "time": 49.71423600000001,
          "velocity": 0.3937007874015748
        },
        {
          "duration": 0.10714275000000129,
          "durationTicks": 96,
          "midi": 55,
          "name": "G3",
          "ticks": 44640,
          "time": 49.82137875,
          "velocity": 0.3937007874015748
        },
        {
          "duration": 0.10714275000000129,
          "durationTicks": 96,
          "midi": 63,
          "name": "D#4",
          "ticks": 44736,
          "time": 49.9285215,
          "velocity": 0.3937007874015748
        },
        {
          "duration": 0.10714275000000129,
          "durationTicks": 96,
          "midi": 60,
          "name": "C4",
          "ticks": 44928,
          "time": 50.142807000000005,
          "velocity": 0.3937007874015748
        },
        {
          "duration": 0.10714275000000129,
          "durationTicks": 96,
          "midi": 51,
          "name": "D#3",
          "ticks": 44928,
          "time": 50.142807000000005,
          "velocity": 0.3937007874015748
        },
        {
          "duration": 0.10714274999999418,
          "durationTicks": 96,
          "midi": 63,
          "name": "D#4",
          "ticks": 45120,
          "time": 50.35709250000001,
          "velocity": 0.3937007874015748
        },
        {
          "duration": 0.10714275000000129,
          "durationTicks": 96,
          "midi": 55,
          "name": "G3",
          "ticks": 45216,
          "time": 50.46423525,
          "velocity": 0.3937007874015748
        },
        {
          "duration": 0.10714275000000129,
          "durationTicks": 96,
          "midi": 60,
          "name": "C4",
          "ticks": 45312,
          "time": 50.571378,
          "velocity": 0.3937007874015748
        },
        {
          "duration": 0.10714275000000129,
          "durationTicks": 96,
          "midi": 51,
          "name": "D#3",
          "ticks": 45504,
          "time": 50.785663500000005,
          "velocity": 0.3937007874015748
        },
        {
          "duration": 0.10714275000000129,
          "durationTicks": 96,
          "midi": 63,
          "name": "D#4",
          "ticks": 45504,
          "time": 50.785663500000005,
          "velocity": 0.3937007874015748
        },
        {
          "duration": 0.10714275000000129,
          "durationTicks": 96,
          "midi": 60,
          "name": "C4",
          "ticks": 45696,
          "time": 50.999949,
          "velocity": 0.3937007874015748
        },
        {
          "duration": 0.10714275000000129,
          "durationTicks": 96,
          "midi": 55,
          "name": "G3",
          "ticks": 45792,
          "time": 51.10709175,
          "velocity": 0.3937007874015748
        },
        {
          "duration": 0.10714275000000129,
          "durationTicks": 96,
          "midi": 63,
          "name": "D#4",
          "ticks": 45888,
          "time": 51.2142345,
          "velocity": 0.3937007874015748
        },
        {
          "duration": 0.10714275000000129,
          "durationTicks": 96,
          "midi": 53,
          "name": "F3",
          "ticks": 46080,
          "time": 51.428520000000006,
          "velocity": 0.3937007874015748
        },
        {
          "duration": 0.10714275000000129,
          "durationTicks": 96,
          "midi": 60,
          "name": "C4",
          "ticks": 46080,
          "time": 51.428520000000006,
          "velocity": 0.3937007874015748
        },
        {
          "duration": 0.21428549999999547,
          "durationTicks": 192,
          "midi": 48,
          "name": "C3",
          "ticks": 46080,
          "time": 51.428520000000006,
          "velocity": 0.3937007874015748
        },
        {
          "duration": 0.10714275000000129,
          "durationTicks": 96,
          "midi": 65,
          "name": "F4",
          "ticks": 46272,
          "time": 51.6428055,
          "velocity": 0.3937007874015748
        },
        {
          "duration": 0.10714275000000129,
          "durationTicks": 96,
          "midi": 56,
          "name": "G#3",
          "ticks": 46368,
          "time": 51.74994825,
          "velocity": 0.3937007874015748
        },
        {
          "duration": 0.10714275000000129,
          "durationTicks": 96,
          "midi": 60,
          "name": "C4",
          "ticks": 46464,
          "time": 51.857091000000004,
          "velocity": 0.3937007874015748
        },
        {
          "duration": 0.10714274999999418,
          "durationTicks": 96,
          "midi": 53,
          "name": "F3",
          "ticks": 46656,
          "time": 52.07137650000001,
          "velocity": 0.3937007874015748
        },
        {
          "duration": 0.10714274999999418,
          "durationTicks": 96,
          "midi": 65,
          "name": "F4",
          "ticks": 46656,
          "time": 52.07137650000001,
          "velocity": 0.3937007874015748
        },
        {
          "duration": 0.10714275000000129,
          "durationTicks": 96,
          "midi": 60,
          "name": "C4",
          "ticks": 46848,
          "time": 52.285662,
          "velocity": 0.3937007874015748
        },
        {
          "duration": 0.10714275000000129,
          "durationTicks": 96,
          "midi": 56,
          "name": "G#3",
          "ticks": 46944,
          "time": 52.39280475,
          "velocity": 0.3937007874015748
        },
        {
          "duration": 0.10714275000000129,
          "durationTicks": 96,
          "midi": 65,
          "name": "F4",
          "ticks": 47040,
          "time": 52.499947500000005,
          "velocity": 0.3937007874015748
        },
        {
          "duration": 0.10714274999999418,
          "durationTicks": 96,
          "midi": 53,
          "name": "F3",
          "ticks": 47232,
          "time": 52.71423300000001,
          "velocity": 0.3937007874015748
        },
        {
          "duration": 0.10714274999999418,
          "durationTicks": 96,
          "midi": 60,
          "name": "C4",
          "ticks": 47232,
          "time": 52.71423300000001,
          "velocity": 0.3937007874015748
        },
        {
          "duration": 0.10714275000000129,
          "durationTicks": 96,
          "midi": 65,
          "name": "F4",
          "ticks": 47424,
          "time": 52.9285185,
          "velocity": 0.3937007874015748
        },
        {
          "duration": 0.10714275000000129,
          "durationTicks": 96,
          "midi": 56,
          "name": "G#3",
          "ticks": 47520,
          "time": 53.035661250000004,
          "velocity": 0.3937007874015748
        },
        {
          "duration": 0.10714275000000129,
          "durationTicks": 96,
          "midi": 60,
          "name": "C4",
          "ticks": 47616,
          "time": 53.142804000000005,
          "velocity": 0.3937007874015748
        },
        {
          "duration": 0.10714274999999418,
          "durationTicks": 96,
          "midi": 53,
          "name": "F3",
          "ticks": 47808,
          "time": 53.35708950000001,
          "velocity": 0.3937007874015748
        },
        {
          "duration": 0.10714274999999418,
          "durationTicks": 96,
          "midi": 65,
          "name": "F4",
          "ticks": 47808,
          "time": 53.35708950000001,
          "velocity": 0.3937007874015748
        },
        {
          "duration": 0.10714275000000129,
          "durationTicks": 96,
          "midi": 60,
          "name": "C4",
          "ticks": 48000,
          "time": 53.571375,
          "velocity": 0.3937007874015748
        },
        {
          "duration": 0.10714275000000129,
          "durationTicks": 96,
          "midi": 56,
          "name": "G#3",
          "ticks": 48096,
          "time": 53.678517750000005,
          "velocity": 0.3937007874015748
        },
        {
          "duration": 0.10714275000000129,
          "durationTicks": 96,
          "midi": 65,
          "name": "F4",
          "ticks": 48192,
          "time": 53.785660500000006,
          "velocity": 0.3937007874015748
        },
        {
          "duration": 0.21428550000000257,
          "durationTicks": 192,
          "midi": 46,
          "name": "A#2",
          "ticks": 48384,
          "time": 53.999946,
          "velocity": 0.3937007874015748
        },
        {
          "duration": 0.10714275000000129,
          "durationTicks": 96,
          "midi": 62,
          "name": "D4",
          "ticks": 48384,
          "time": 53.999946,
          "velocity": 0.3937007874015748
        },
        {
          "duration": 0.10714275000000129,
          "durationTicks": 96,
          "midi": 53,
          "name": "F3",
          "ticks": 48384,
          "time": 53.999946,
          "velocity": 0.3937007874015748
        },
        {
          "duration": 0.10714275000000129,
          "durationTicks": 96,
          "midi": 65,
          "name": "F4",
          "ticks": 48576,
          "time": 54.214231500000004,
          "velocity": 0.3937007874015748
        },
        {
          "duration": 0.10714275000000129,
          "durationTicks": 96,
          "midi": 56,
          "name": "G#3",
          "ticks": 48672,
          "time": 54.321374250000005,
          "velocity": 0.3937007874015748
        },
        {
          "duration": 0.10714275000000129,
          "durationTicks": 96,
          "midi": 62,
          "name": "D4",
          "ticks": 48768,
          "time": 54.42851700000001,
          "velocity": 0.3937007874015748
        },
        {
          "duration": 0.10714275000000129,
          "durationTicks": 96,
          "midi": 65,
          "name": "F4",
          "ticks": 48960,
          "time": 54.6428025,
          "velocity": 0.3937007874015748
        },
        {
          "duration": 0.10714275000000129,
          "durationTicks": 96,
          "midi": 53,
          "name": "F3",
          "ticks": 48960,
          "time": 54.6428025,
          "velocity": 0.3937007874015748
        },
        {
          "duration": 0.10714275000000129,
          "durationTicks": 96,
          "midi": 62,
          "name": "D4",
          "ticks": 49152,
          "time": 54.857088000000005,
          "velocity": 0.3937007874015748
        },
        {
          "duration": 0.10714275000000129,
          "durationTicks": 96,
          "midi": 56,
          "name": "G#3",
          "ticks": 49248,
          "time": 54.964230750000006,
          "velocity": 0.3937007874015748
        },
        {
          "duration": 0.10714274999999418,
          "durationTicks": 96,
          "midi": 65,
          "name": "F4",
          "ticks": 49344,
          "time": 55.07137350000001,
          "velocity": 0.3937007874015748
        },
        {
          "duration": 0.10714275000000129,
          "durationTicks": 96,
          "midi": 62,
          "name": "D4",
          "ticks": 49536,
          "time": 55.285659,
          "velocity": 0.3937007874015748
        },
        {
          "duration": 0.10714275000000129,
          "durationTicks": 96,
          "midi": 53,
          "name": "F3",
          "ticks": 49536,
          "time": 55.285659,
          "velocity": 0.3937007874015748
        },
        {
          "duration": 0.10714275000000129,
          "durationTicks": 96,
          "midi": 65,
          "name": "F4",
          "ticks": 49728,
          "time": 55.499944500000005,
          "velocity": 0.3937007874015748
        },
        {
          "duration": 0.10714275000000129,
          "durationTicks": 96,
          "midi": 56,
          "name": "G#3",
          "ticks": 49824,
          "time": 55.607087250000006,
          "velocity": 0.3937007874015748
        },
        {
          "duration": 0.10714274999999418,
          "durationTicks": 96,
          "midi": 62,
          "name": "D4",
          "ticks": 49920,
          "time": 55.71423000000001,
          "velocity": 0.3937007874015748
        },
        {
          "duration": 0.10714275000000129,
          "durationTicks": 96,
          "midi": 53,
          "name": "F3",
          "ticks": 50112,
          "time": 55.9285155,
          "velocity": 0.3937007874015748
        },
        {
          "duration": 0.10714275000000129,
          "durationTicks": 96,
          "midi": 65,
          "name": "F4",
          "ticks": 50112,
          "time": 55.9285155,
          "velocity": 0.3937007874015748
        },
        {
          "duration": 0.10714275000000129,
          "durationTicks": 96,
          "midi": 62,
          "name": "D4",
          "ticks": 50304,
          "time": 56.142801000000006,
          "velocity": 0.3937007874015748
        },
        {
          "duration": 0.10714274999999418,
          "durationTicks": 96,
          "midi": 56,
          "name": "G#3",
          "ticks": 50400,
          "time": 56.24994375000001,
          "velocity": 0.3937007874015748
        },
        {
          "duration": 0.10714275000000129,
          "durationTicks": 96,
          "midi": 65,
          "name": "F4",
          "ticks": 50496,
          "time": 56.3570865,
          "velocity": 0.3937007874015748
        },
        {
          "duration": 0.10714275000000129,
          "durationTicks": 96,
          "midi": 51,
          "name": "D#3",
          "ticks": 50688,
          "time": 56.571372000000004,
          "velocity": 0.3937007874015748
        },
        {
          "duration": 0.21428550000000257,
          "durationTicks": 192,
          "midi": 46,
          "name": "A#2",
          "ticks": 50688,
          "time": 56.571372000000004,
          "velocity": 0.3937007874015748
        },
        {
          "duration": 0.10714275000000129,
          "durationTicks": 96,
          "midi": 58,
          "name": "A#3",
          "ticks": 50688,
          "time": 56.571372000000004,
          "velocity": 0.3937007874015748
        },
        {
          "duration": 0.10714275000000129,
          "durationTicks": 96,
          "midi": 63,
          "name": "D#4",
          "ticks": 50880,
          "time": 56.785657500000006,
          "velocity": 0.3937007874015748
        },
        {
          "duration": 0.10714274999999418,
          "durationTicks": 96,
          "midi": 55,
          "name": "G3",
          "ticks": 50976,
          "time": 56.89280025000001,
          "velocity": 0.3937007874015748
        },
        {
          "duration": 0.10714275000000129,
          "durationTicks": 96,
          "midi": 58,
          "name": "A#3",
          "ticks": 51072,
          "time": 56.999943,
          "velocity": 0.3937007874015748
        },
        {
          "duration": 0.10714275000000129,
          "durationTicks": 96,
          "midi": 51,
          "name": "D#3",
          "ticks": 51264,
          "time": 57.214228500000004,
          "velocity": 0.3937007874015748
        },
        {
          "duration": 0.10714275000000129,
          "durationTicks": 96,
          "midi": 63,
          "name": "D#4",
          "ticks": 51264,
          "time": 57.214228500000004,
          "velocity": 0.3937007874015748
        },
        {
          "duration": 0.10714275000000129,
          "durationTicks": 96,
          "midi": 58,
          "name": "A#3",
          "ticks": 51456,
          "time": 57.42851400000001,
          "velocity": 0.3937007874015748
        },
        {
          "duration": 0.10714274999999418,
          "durationTicks": 96,
          "midi": 55,
          "name": "G3",
          "ticks": 51552,
          "time": 57.53565675000001,
          "velocity": 0.3937007874015748
        },
        {
          "duration": 0.10714275000000129,
          "durationTicks": 96,
          "midi": 63,
          "name": "D#4",
          "ticks": 51648,
          "time": 57.6427995,
          "velocity": 0.3937007874015748
        },
        {
          "duration": 0.10714275000000129,
          "durationTicks": 96,
          "midi": 58,
          "name": "A#3",
          "ticks": 51840,
          "time": 57.857085000000005,
          "velocity": 0.3937007874015748
        },
        {
          "duration": 0.10714275000000129,
          "durationTicks": 96,
          "midi": 51,
          "name": "D#3",
          "ticks": 51840,
          "time": 57.857085000000005,
          "velocity": 0.3937007874015748
        },
        {
          "duration": 0.10714274999999418,
          "durationTicks": 96,
          "midi": 63,
          "name": "D#4",
          "ticks": 52032,
          "time": 58.07137050000001,
          "velocity": 0.3937007874015748
        },
        {
          "duration": 0.10714275000000129,
          "durationTicks": 96,
          "midi": 55,
          "name": "G3",
          "ticks": 52128,
          "time": 58.17851325,
          "velocity": 0.3937007874015748
        },
        {
          "duration": 0.10714275000000129,
          "durationTicks": 96,
          "midi": 58,
          "name": "A#3",
          "ticks": 52224,
          "time": 58.285656,
          "velocity": 0.3937007874015748
        },
        {
          "duration": 0.10714275000000129,
          "durationTicks": 96,
          "midi": 63,
          "name": "D#4",
          "ticks": 52416,
          "time": 58.499941500000006,
          "velocity": 0.3937007874015748
        },
        {
          "duration": 0.10714275000000129,
          "durationTicks": 96,
          "midi": 51,
          "name": "D#3",
          "ticks": 52416,
          "time": 58.499941500000006,
          "velocity": 0.3937007874015748
        },
        {
          "duration": 0.10714274999999418,
          "durationTicks": 96,
          "midi": 58,
          "name": "A#3",
          "ticks": 52608,
          "time": 58.71422700000001,
          "velocity": 0.3937007874015748
        },
        {
          "duration": 0.10714275000000129,
          "durationTicks": 96,
          "midi": 55,
          "name": "G3",
          "ticks": 52704,
          "time": 58.82136975,
          "velocity": 0.3937007874015748
        },
        {
          "duration": 0.10714275000000129,
          "durationTicks": 96,
          "midi": 63,
          "name": "D#4",
          "ticks": 52800,
          "time": 58.928512500000004,
          "velocity": 0.3937007874015748
        },
        {
          "duration": 0.10714275000000129,
          "durationTicks": 96,
          "midi": 60,
          "name": "C4",
          "ticks": 52992,
          "time": 59.142798000000006,
          "velocity": 0.3937007874015748
        },
        {
          "duration": 0.21428549999999547,
          "durationTicks": 192,
          "midi": 43,
          "name": "G2",
          "ticks": 52992,
          "time": 59.142798000000006,
          "velocity": 0.3937007874015748
        },
        {
          "duration": 0.10714275000000129,
          "durationTicks": 96,
          "midi": 51,
          "name": "D#3",
          "ticks": 52992,
          "time": 59.142798000000006,
          "velocity": 0.3937007874015748
        },
        {
          "duration": 0.10714275000000129,
          "durationTicks": 96,
          "midi": 63,
          "name": "D#4",
          "ticks": 53184,
          "time": 59.3570835,
          "velocity": 0.3937007874015748
        },
        {
          "duration": 0.10714275000000129,
          "durationTicks": 96,
          "midi": 55,
          "name": "G3",
          "ticks": 53280,
          "time": 59.46422625,
          "velocity": 0.3937007874015748
        },
        {
          "duration": 0.10714275000000129,
          "durationTicks": 96,
          "midi": 60,
          "name": "C4",
          "ticks": 53376,
          "time": 59.571369000000004,
          "velocity": 0.3937007874015748
        },
        {
          "duration": 0.10714275000000129,
          "durationTicks": 96,
          "midi": 51,
          "name": "D#3",
          "ticks": 53568,
          "time": 59.78565450000001,
          "velocity": 0.3937007874015748
        },
        {
          "duration": 0.10714275000000129,
          "durationTicks": 96,
          "midi": 63,
          "name": "D#4",
          "ticks": 53568,
          "time": 59.78565450000001,
          "velocity": 0.3937007874015748
        },
        {
          "duration": 0.10714275000000129,
          "durationTicks": 96,
          "midi": 60,
          "name": "C4",
          "ticks": 53760,
          "time": 59.99994,
          "velocity": 0.3937007874015748
        },
        {
          "duration": 0.10714275000000129,
          "durationTicks": 96,
          "midi": 55,
          "name": "G3",
          "ticks": 53856,
          "time": 60.107082750000004,
          "velocity": 0.3937007874015748
        },
        {
          "duration": 0.10714275000000129,
          "durationTicks": 96,
          "midi": 63,
          "name": "D#4",
          "ticks": 53952,
          "time": 60.214225500000005,
          "velocity": 0.3937007874015748
        },
        {
          "duration": 0.10714274999999418,
          "durationTicks": 96,
          "midi": 60,
          "name": "C4",
          "ticks": 54144,
          "time": 60.42851100000001,
          "velocity": 0.3937007874015748
        },
        {
          "duration": 0.10714274999999418,
          "durationTicks": 96,
          "midi": 51,
          "name": "D#3",
          "ticks": 54144,
          "time": 60.42851100000001,
          "velocity": 0.3937007874015748
        },
        {
          "duration": 0.10714275000000129,
          "durationTicks": 96,
          "midi": 63,
          "name": "D#4",
          "ticks": 54336,
          "time": 60.6427965,
          "velocity": 0.3937007874015748
        },
        {
          "duration": 0.10714275000000129,
          "durationTicks": 96,
          "midi": 55,
          "name": "G3",
          "ticks": 54432,
          "time": 60.749939250000004,
          "velocity": 0.3937007874015748
        },
        {
          "duration": 0.10714275000000129,
          "durationTicks": 96,
          "midi": 60,
          "name": "C4",
          "ticks": 54528,
          "time": 60.857082000000005,
          "velocity": 0.3937007874015748
        },
        {
          "duration": 0.10714274999999418,
          "durationTicks": 96,
          "midi": 51,
          "name": "D#3",
          "ticks": 54720,
          "time": 61.07136750000001,
          "velocity": 0.3937007874015748
        },
        {
          "duration": 0.10714274999999418,
          "durationTicks": 96,
          "midi": 63,
          "name": "D#4",
          "ticks": 54720,
          "time": 61.07136750000001,
          "velocity": 0.3937007874015748
        },
        {
          "duration": 0.10714275000000129,
          "durationTicks": 96,
          "midi": 60,
          "name": "C4",
          "ticks": 54912,
          "time": 61.285653,
          "velocity": 0.3937007874015748
        },
        {
          "duration": 0.10714275000000129,
          "durationTicks": 96,
          "midi": 55,
          "name": "G3",
          "ticks": 55008,
          "time": 61.392795750000005,
          "velocity": 0.3937007874015748
        },
        {
          "duration": 0.10714275000000129,
          "durationTicks": 96,
          "midi": 63,
          "name": "D#4",
          "ticks": 55104,
          "time": 61.499938500000006,
          "velocity": 0.3937007874015748
        },
        {
          "duration": 0.21428550000000257,
          "durationTicks": 192,
          "midi": 48,
          "name": "C3",
          "ticks": 55296,
          "time": 61.714224,
          "velocity": 0.3937007874015748
        },
        {
          "duration": 0.10714275000000129,
          "durationTicks": 96,
          "midi": 53,
          "name": "F3",
          "ticks": 55296,
          "time": 61.714224,
          "velocity": 0.3937007874015748
        },
        {
          "duration": 0.10714275000000129,
          "durationTicks": 96,
          "midi": 60,
          "name": "C4",
          "ticks": 55296,
          "time": 61.714224,
          "velocity": 0.3937007874015748
        },
        {
          "duration": 0.10714275000000129,
          "durationTicks": 96,
          "midi": 65,
          "name": "F4",
          "ticks": 55488,
          "time": 61.928509500000004,
          "velocity": 0.3937007874015748
        },
        {
          "duration": 0.10714275000000129,
          "durationTicks": 96,
          "midi": 56,
          "name": "G#3",
          "ticks": 55584,
          "time": 62.035652250000005,
          "velocity": 0.3937007874015748
        },
        {
          "duration": 0.10714275000000129,
          "durationTicks": 96,
          "midi": 60,
          "name": "C4",
          "ticks": 55680,
          "time": 62.14279500000001,
          "velocity": 0.3937007874015748
        },
        {
          "duration": 0.10714275000000129,
          "durationTicks": 96,
          "midi": 53,
          "name": "F3",
          "ticks": 55872,
          "time": 62.3570805,
          "velocity": 0.3937007874015748
        },
        {
          "duration": 0.10714275000000129,
          "durationTicks": 96,
          "midi": 65,
          "name": "F4",
          "ticks": 55872,
          "time": 62.3570805,
          "velocity": 0.3937007874015748
        },
        {
          "duration": 0.10714275000000129,
          "durationTicks": 96,
          "midi": 60,
          "name": "C4",
          "ticks": 56064,
          "time": 62.571366000000005,
          "velocity": 0.3937007874015748
        },
        {
          "duration": 0.10714275000000129,
          "durationTicks": 96,
          "midi": 56,
          "name": "G#3",
          "ticks": 56160,
          "time": 62.678508750000006,
          "velocity": 0.3937007874015748
        },
        {
          "duration": 0.10714275000000129,
          "durationTicks": 96,
          "midi": 65,
          "name": "F4",
          "ticks": 56256,
          "time": 62.78565150000001,
          "velocity": 0.3937007874015748
        },
        {
          "duration": 0.10714275000000129,
          "durationTicks": 96,
          "midi": 53,
          "name": "F3",
          "ticks": 56448,
          "time": 62.999937,
          "velocity": 0.3937007874015748
        },
        {
          "duration": 0.10714275000000129,
          "durationTicks": 96,
          "midi": 60,
          "name": "C4",
          "ticks": 56448,
          "time": 62.999937,
          "velocity": 0.3937007874015748
        },
        {
          "duration": 0.10714275000000129,
          "durationTicks": 96,
          "midi": 65,
          "name": "F4",
          "ticks": 56640,
          "time": 63.214222500000005,
          "velocity": 0.3937007874015748
        },
        {
          "duration": 0.10714275000000129,
          "durationTicks": 96,
          "midi": 56,
          "name": "G#3",
          "ticks": 56736,
          "time": 63.32136525000001,
          "velocity": 0.3937007874015748
        },
        {
          "duration": 0.10714274999999418,
          "durationTicks": 96,
          "midi": 60,
          "name": "C4",
          "ticks": 56832,
          "time": 63.42850800000001,
          "velocity": 0.3937007874015748
        },
        {
          "duration": 0.10714275000000129,
          "durationTicks": 96,
          "midi": 65,
          "name": "F4",
          "ticks": 57024,
          "time": 63.6427935,
          "velocity": 0.3937007874015748
        },
        {
          "duration": 0.10714275000000129,
          "durationTicks": 96,
          "midi": 53,
          "name": "F3",
          "ticks": 57024,
          "time": 63.6427935,
          "velocity": 0.3937007874015748
        },
        {
          "duration": 0.10714275000000129,
          "durationTicks": 96,
          "midi": 60,
          "name": "C4",
          "ticks": 57216,
          "time": 63.857079000000006,
          "velocity": 0.3937007874015748
        },
        {
          "duration": 0.10714274999999418,
          "durationTicks": 96,
          "midi": 56,
          "name": "G#3",
          "ticks": 57312,
          "time": 63.96422175000001,
          "velocity": 0.3937007874015748
        },
        {
          "duration": 0.10714275000000839,
          "durationTicks": 96,
          "midi": 65,
          "name": "F4",
          "ticks": 57408,
          "time": 64.0713645,
          "velocity": 0.3937007874015748
        },
        {
          "duration": 0.10714275000000839,
          "durationTicks": 96,
          "midi": 53,
          "name": "F3",
          "ticks": 57600,
          "time": 64.28565,
          "velocity": 0.3937007874015748
        },
        {
          "duration": 0.21428550000000257,
          "durationTicks": 192,
          "midi": 46,
          "name": "A#2",
          "ticks": 57600,
          "time": 64.28565,
          "velocity": 0.3937007874015748
        },
        {
          "duration": 0.10714275000000839,
          "durationTicks": 96,
          "midi": 62,
          "name": "D4",
          "ticks": 57600,
          "time": 64.28565,
          "velocity": 0.3937007874015748
        },
        {
          "duration": 0.10714274999999418,
          "durationTicks": 96,
          "midi": 65,
          "name": "F4",
          "ticks": 57792,
          "time": 64.4999355,
          "velocity": 0.3937007874015748
        },
        {
          "duration": 0.10714275000000839,
          "durationTicks": 96,
          "midi": 56,
          "name": "G#3",
          "ticks": 57888,
          "time": 64.60707825,
          "velocity": 0.3937007874015748
        },
        {
          "duration": 0.10714274999999418,
          "durationTicks": 96,
          "midi": 62,
          "name": "D4",
          "ticks": 57984,
          "time": 64.71422100000001,
          "velocity": 0.3937007874015748
        },
        {
          "duration": 0.10714274999999418,
          "durationTicks": 96,
          "midi": 65,
          "name": "F4",
          "ticks": 58176,
          "time": 64.92850650000001,
          "velocity": 0.3937007874015748
        },
        {
          "duration": 0.10714274999999418,
          "durationTicks": 96,
          "midi": 53,
          "name": "F3",
          "ticks": 58176,
          "time": 64.92850650000001,
          "velocity": 0.3937007874015748
        },
        {
          "duration": 0.10714275000000839,
          "durationTicks": 96,
          "midi": 62,
          "name": "D4",
          "ticks": 58368,
          "time": 65.142792,
          "velocity": 0.3937007874015748
        },
        {
          "duration": 0.10714274999999418,
          "durationTicks": 96,
          "midi": 56,
          "name": "G#3",
          "ticks": 58464,
          "time": 65.24993475000001,
          "velocity": 0.3937007874015748
        },
        {
          "duration": 0.10714275000000839,
          "durationTicks": 96,
          "midi": 65,
          "name": "F4",
          "ticks": 58560,
          "time": 65.3570775,
          "velocity": 0.3937007874015748
        },
        {
          "duration": 0.10714274999999418,
          "durationTicks": 96,
          "midi": 62,
          "name": "D4",
          "ticks": 58752,
          "time": 65.571363,
          "velocity": 0.3937007874015748
        },
        {
          "duration": 0.10714274999999418,
          "durationTicks": 96,
          "midi": 53,
          "name": "F3",
          "ticks": 58752,
          "time": 65.571363,
          "velocity": 0.3937007874015748
        },
        {
          "duration": 0.10714274999999418,
          "durationTicks": 96,
          "midi": 65,
          "name": "F4",
          "ticks": 58944,
          "time": 65.78564850000001,
          "velocity": 0.3937007874015748
        },
        {
          "duration": 0.10714275000000839,
          "durationTicks": 96,
          "midi": 56,
          "name": "G#3",
          "ticks": 59040,
          "time": 65.89279125,
          "velocity": 0.3937007874015748
        },
        {
          "duration": 0.10714274999999418,
          "durationTicks": 96,
          "midi": 62,
          "name": "D4",
          "ticks": 59136,
          "time": 65.99993400000001,
          "velocity": 0.3937007874015748
        },
        {
          "duration": 0.10714275000000839,
          "durationTicks": 96,
          "midi": 53,
          "name": "F3",
          "ticks": 59328,
          "time": 66.2142195,
          "velocity": 0.3937007874015748
        },
        {
          "duration": 0.10714275000000839,
          "durationTicks": 96,
          "midi": 65,
          "name": "F4",
          "ticks": 59328,
          "time": 66.2142195,
          "velocity": 0.3937007874015748
        },
        {
          "duration": 0.10714275000000839,
          "durationTicks": 96,
          "midi": 62,
          "name": "D4",
          "ticks": 59520,
          "time": 66.428505,
          "velocity": 0.3937007874015748
        },
        {
          "duration": 0.10714274999999418,
          "durationTicks": 96,
          "midi": 56,
          "name": "G#3",
          "ticks": 59616,
          "time": 66.53564775000001,
          "velocity": 0.3937007874015748
        },
        {
          "duration": 0.10714275000000839,
          "durationTicks": 96,
          "midi": 65,
          "name": "F4",
          "ticks": 59712,
          "time": 66.6427905,
          "velocity": 0.3937007874015748
        },
        {
          "duration": 0.10714274999999418,
          "durationTicks": 96,
          "midi": 58,
          "name": "A#3",
          "ticks": 59904,
          "time": 66.857076,
          "velocity": 0.3937007874015748
        },
        {
          "duration": 0.10714274999999418,
          "durationTicks": 96,
          "midi": 51,
          "name": "D#3",
          "ticks": 59904,
          "time": 66.857076,
          "velocity": 0.3937007874015748
        },
        {
          "duration": 0.21428550000000257,
          "durationTicks": 192,
          "midi": 46,
          "name": "A#2",
          "ticks": 59904,
          "time": 66.857076,
          "velocity": 0.3937007874015748
        },
        {
          "duration": 0.10714274999999418,
          "durationTicks": 96,
          "midi": 63,
          "name": "D#4",
          "ticks": 60096,
          "time": 67.07136150000001,
          "velocity": 0.3937007874015748
        },
        {
          "duration": 0.10714275000000839,
          "durationTicks": 96,
          "midi": 55,
          "name": "G3",
          "ticks": 60192,
          "time": 67.17850425,
          "velocity": 0.3937007874015748
        },
        {
          "duration": 0.10714274999999418,
          "durationTicks": 96,
          "midi": 58,
          "name": "A#3",
          "ticks": 60288,
          "time": 67.28564700000001,
          "velocity": 0.3937007874015748
        },
        {
          "duration": 0.10714275000000839,
          "durationTicks": 96,
          "midi": 63,
          "name": "D#4",
          "ticks": 60480,
          "time": 67.4999325,
          "velocity": 0.3937007874015748
        },
        {
          "duration": 0.10714275000000839,
          "durationTicks": 96,
          "midi": 51,
          "name": "D#3",
          "ticks": 60480,
          "time": 67.4999325,
          "velocity": 0.3937007874015748
        },
        {
          "duration": 0.10714275000000839,
          "durationTicks": 96,
          "midi": 58,
          "name": "A#3",
          "ticks": 60672,
          "time": 67.714218,
          "velocity": 0.3937007874015748
        },
        {
          "duration": 0.10714274999999418,
          "durationTicks": 96,
          "midi": 55,
          "name": "G3",
          "ticks": 60768,
          "time": 67.82136075000001,
          "velocity": 0.3937007874015748
        },
        {
          "duration": 0.10714274999999418,
          "durationTicks": 96,
          "midi": 63,
          "name": "D#4",
          "ticks": 60864,
          "time": 67.9285035,
          "velocity": 0.3937007874015748
        },
        {
          "duration": 0.10714274999999418,
          "durationTicks": 96,
          "midi": 58,
          "name": "A#3",
          "ticks": 61056,
          "time": 68.14278900000001,
          "velocity": 0.3937007874015748
        },
        {
          "duration": 0.10714274999999418,
          "durationTicks": 96,
          "midi": 51,
          "name": "D#3",
          "ticks": 61056,
          "time": 68.14278900000001,
          "velocity": 0.3937007874015748
        },
        {
          "duration": 0.10714274999999418,
          "durationTicks": 96,
          "midi": 63,
          "name": "D#4",
          "ticks": 61248,
          "time": 68.35707450000001,
          "velocity": 0.3937007874015748
        },
        {
          "duration": 0.10714274999999418,
          "durationTicks": 96,
          "midi": 55,
          "name": "G3",
          "ticks": 61344,
          "time": 68.46421725,
          "velocity": 0.3937007874015748
        },
        {
          "duration": 0.10714275000000839,
          "durationTicks": 96,
          "midi": 58,
          "name": "A#3",
          "ticks": 61440,
          "time": 68.57136,
          "velocity": 0.3937007874015748
        },
        {
          "duration": 0.10714275000000839,
          "durationTicks": 96,
          "midi": 51,
          "name": "D#3",
          "ticks": 61632,
          "time": 68.7856455,
          "velocity": 0.3937007874015748
        },
        {
          "duration": 0.10714275000000839,
          "durationTicks": 96,
          "midi": 63,
          "name": "D#4",
          "ticks": 61632,
          "time": 68.7856455,
          "velocity": 0.3937007874015748
        },
        {
          "duration": 0.10714275000000839,
          "durationTicks": 96,
          "midi": 58,
          "name": "A#3",
          "ticks": 61824,
          "time": 68.999931,
          "velocity": 0.3937007874015748
        },
        {
          "duration": 0.10714274999999418,
          "durationTicks": 96,
          "midi": 55,
          "name": "G3",
          "ticks": 61920,
          "time": 69.10707375000001,
          "velocity": 0.3937007874015748
        },
        {
          "duration": 0.10714274999999418,
          "durationTicks": 96,
          "midi": 63,
          "name": "D#4",
          "ticks": 62016,
          "time": 69.2142165,
          "velocity": 0.3937007874015748
        },
        {
          "duration": 0.10714274999999418,
          "durationTicks": 96,
          "midi": 51,
          "name": "D#3",
          "ticks": 62208,
          "time": 69.42850200000001,
          "velocity": 0.3937007874015748
        },
        {
          "duration": 0.10714274999999418,
          "durationTicks": 96,
          "midi": 60,
          "name": "C4",
          "ticks": 62208,
          "time": 69.42850200000001,
          "velocity": 0.3937007874015748
        },
        {
          "duration": 0.21428550000000257,
          "durationTicks": 192,
          "midi": 43,
          "name": "G2",
          "ticks": 62208,
          "time": 69.42850200000001,
          "velocity": 0.3937007874015748
        },
        {
          "duration": 0.10714274999999418,
          "durationTicks": 96,
          "midi": 63,
          "name": "D#4",
          "ticks": 62400,
          "time": 69.64278750000001,
          "velocity": 0.3937007874015748
        },
        {
          "duration": 0.10714274999999418,
          "durationTicks": 96,
          "midi": 55,
          "name": "G3",
          "ticks": 62496,
          "time": 69.74993025,
          "velocity": 0.3937007874015748
        },
        {
          "duration": 0.10714275000000839,
          "durationTicks": 96,
          "midi": 60,
          "name": "C4",
          "ticks": 62592,
          "time": 69.857073,
          "velocity": 0.3937007874015748
        },
        {
          "duration": 0.10714275000000839,
          "durationTicks": 96,
          "midi": 51,
          "name": "D#3",
          "ticks": 62784,
          "time": 70.0713585,
          "velocity": 0.3937007874015748
        },
        {
          "duration": 0.10714275000000839,
          "durationTicks": 96,
          "midi": 63,
          "name": "D#4",
          "ticks": 62784,
          "time": 70.0713585,
          "velocity": 0.3937007874015748
        },
        {
          "duration": 0.10714274999999418,
          "durationTicks": 96,
          "midi": 60,
          "name": "C4",
          "ticks": 62976,
          "time": 70.285644,
          "velocity": 0.3937007874015748
        },
        {
          "duration": 0.10714275000000839,
          "durationTicks": 96,
          "midi": 55,
          "name": "G3",
          "ticks": 63072,
          "time": 70.39278675,
          "velocity": 0.3937007874015748
        },
        {
          "duration": 0.10714274999999418,
          "durationTicks": 96,
          "midi": 63,
          "name": "D#4",
          "ticks": 63168,
          "time": 70.49992950000001,
          "velocity": 0.3937007874015748
        },
        {
          "duration": 0.10714274999999418,
          "durationTicks": 96,
          "midi": 51,
          "name": "D#3",
          "ticks": 63360,
          "time": 70.71421500000001,
          "velocity": 0.3937007874015748
        },
        {
          "duration": 0.10714274999999418,
          "durationTicks": 96,
          "midi": 60,
          "name": "C4",
          "ticks": 63360,
          "time": 70.71421500000001,
          "velocity": 0.3937007874015748
        },
        {
          "duration": 0.10714274999999418,
          "durationTicks": 96,
          "midi": 63,
          "name": "D#4",
          "ticks": 63552,
          "time": 70.92850050000001,
          "velocity": 0.3937007874015748
        },
        {
          "duration": 0.10714274999999418,
          "durationTicks": 96,
          "midi": 55,
          "name": "G3",
          "ticks": 63648,
          "time": 71.03564325,
          "velocity": 0.3937007874015748
        },
        {
          "duration": 0.10714275000000839,
          "durationTicks": 96,
          "midi": 60,
          "name": "C4",
          "ticks": 63744,
          "time": 71.142786,
          "velocity": 0.3937007874015748
        },
        {
          "duration": 0.10714275000000839,
          "durationTicks": 96,
          "midi": 51,
          "name": "D#3",
          "ticks": 63936,
          "time": 71.3570715,
          "velocity": 0.3937007874015748
        },
        {
          "duration": 0.10714275000000839,
          "durationTicks": 96,
          "midi": 63,
          "name": "D#4",
          "ticks": 63936,
          "time": 71.3570715,
          "velocity": 0.3937007874015748
        },
        {
          "duration": 0.10714274999999418,
          "durationTicks": 96,
          "midi": 60,
          "name": "C4",
          "ticks": 64128,
          "time": 71.571357,
          "velocity": 0.3937007874015748
        },
        {
          "duration": 0.10714275000000839,
          "durationTicks": 96,
          "midi": 55,
          "name": "G3",
          "ticks": 64224,
          "time": 71.67849975,
          "velocity": 0.3937007874015748
        },
        {
          "duration": 0.10714274999999418,
          "durationTicks": 96,
          "midi": 63,
          "name": "D#4",
          "ticks": 64320,
          "time": 71.78564250000001,
          "velocity": 0.3937007874015748
        },
        {
          "duration": 0.10714274999999418,
          "durationTicks": 96,
          "midi": 53,
          "name": "F3",
          "ticks": 64512,
          "time": 71.99992800000001,
          "velocity": 0.3937007874015748
        },
        {
          "duration": 0.10714274999999418,
          "durationTicks": 96,
          "midi": 60,
          "name": "C4",
          "ticks": 64512,
          "time": 71.99992800000001,
          "velocity": 0.3937007874015748
        },
        {
          "duration": 0.21428549999998836,
          "durationTicks": 192,
          "midi": 48,
          "name": "C3",
          "ticks": 64512,
          "time": 71.99992800000001,
          "velocity": 0.3937007874015748
        },
        {
          "duration": 0.10714275000000839,
          "durationTicks": 96,
          "midi": 65,
          "name": "F4",
          "ticks": 64704,
          "time": 72.2142135,
          "velocity": 0.3937007874015748
        },
        {
          "duration": 0.10714274999999418,
          "durationTicks": 96,
          "midi": 56,
          "name": "G#3",
          "ticks": 64800,
          "time": 72.32135625000001,
          "velocity": 0.3937007874015748
        },
        {
          "duration": 0.10714275000000839,
          "durationTicks": 96,
          "midi": 60,
          "name": "C4",
          "ticks": 64896,
          "time": 72.428499,
          "velocity": 0.3937007874015748
        },
        {
          "duration": 0.10714274999999418,
          "durationTicks": 96,
          "midi": 65,
          "name": "F4",
          "ticks": 65088,
          "time": 72.6427845,
          "velocity": 0.3937007874015748
        },
        {
          "duration": 0.10714274999999418,
          "durationTicks": 96,
          "midi": 53,
          "name": "F3",
          "ticks": 65088,
          "time": 72.6427845,
          "velocity": 0.3937007874015748
        },
        {
          "duration": 0.10714274999999418,
          "durationTicks": 96,
          "midi": 60,
          "name": "C4",
          "ticks": 65280,
          "time": 72.85707000000001,
          "velocity": 0.3937007874015748
        },
        {
          "duration": 0.10714275000000839,
          "durationTicks": 96,
          "midi": 56,
          "name": "G#3",
          "ticks": 65376,
          "time": 72.96421275,
          "velocity": 0.3937007874015748
        },
        {
          "duration": 0.10714274999999418,
          "durationTicks": 96,
          "midi": 65,
          "name": "F4",
          "ticks": 65472,
          "time": 73.07135550000001,
          "velocity": 0.3937007874015748
        },
        {
          "duration": 0.10714274999999418,
          "durationTicks": 96,
          "midi": 60,
          "name": "C4",
          "ticks": 65664,
          "time": 73.28564100000001,
          "velocity": 0.3937007874015748
        },
        {
          "duration": 0.10714274999999418,
          "durationTicks": 96,
          "midi": 53,
          "name": "F3",
          "ticks": 65664,
          "time": 73.28564100000001,
          "velocity": 0.3937007874015748
        },
        {
          "duration": 0.10714275000000839,
          "durationTicks": 96,
          "midi": 65,
          "name": "F4",
          "ticks": 65856,
          "time": 73.4999265,
          "velocity": 0.3937007874015748
        },
        {
          "duration": 0.10714274999999418,
          "durationTicks": 96,
          "midi": 56,
          "name": "G#3",
          "ticks": 65952,
          "time": 73.60706925000001,
          "velocity": 0.3937007874015748
        },
        {
          "duration": 0.10714275000000839,
          "durationTicks": 96,
          "midi": 60,
          "name": "C4",
          "ticks": 66048,
          "time": 73.714212,
          "velocity": 0.3937007874015748
        },
        {
          "duration": 0.10714274999999418,
          "durationTicks": 96,
          "midi": 53,
          "name": "F3",
          "ticks": 66240,
          "time": 73.9284975,
          "velocity": 0.3937007874015748
        },
        {
          "duration": 0.10714274999999418,
          "durationTicks": 96,
          "midi": 65,
          "name": "F4",
          "ticks": 66240,
          "time": 73.9284975,
          "velocity": 0.3937007874015748
        },
        {
          "duration": 0.10714274999999418,
          "durationTicks": 96,
          "midi": 60,
          "name": "C4",
          "ticks": 66432,
          "time": 74.14278300000001,
          "velocity": 0.3937007874015748
        },
        {
          "duration": 0.10714275000000839,
          "durationTicks": 96,
          "midi": 56,
          "name": "G#3",
          "ticks": 66528,
          "time": 74.24992575,
          "velocity": 0.3937007874015748
        },
        {
          "duration": 0.10714274999999418,
          "durationTicks": 96,
          "midi": 65,
          "name": "F4",
          "ticks": 66624,
          "time": 74.35706850000001,
          "velocity": 0.3937007874015748
        },
        {
          "duration": 0.10714275000000839,
          "durationTicks": 96,
          "midi": 53,
          "name": "F3",
          "ticks": 66816,
          "time": 74.571354,
          "velocity": 0.3937007874015748
        },
        {
          "duration": 0.10714275000000839,
          "durationTicks": 96,
          "midi": 62,
          "name": "D4",
          "ticks": 66816,
          "time": 74.571354,
          "velocity": 0.3937007874015748
        },
        {
          "duration": 0.21428550000000257,
          "durationTicks": 192,
          "midi": 46,
          "name": "A#2",
          "ticks": 66816,
          "time": 74.571354,
          "velocity": 0.3937007874015748
        },
        {
          "duration": 0.10714275000000839,
          "durationTicks": 96,
          "midi": 65,
          "name": "F4",
          "ticks": 67008,
          "time": 74.7856395,
          "velocity": 0.3937007874015748
        },
        {
          "duration": 0.10714274999999418,
          "durationTicks": 96,
          "midi": 56,
          "name": "G#3",
          "ticks": 67104,
          "time": 74.89278225000001,
          "velocity": 0.3937007874015748
        },
        {
          "duration": 0.10714275000000839,
          "durationTicks": 96,
          "midi": 62,
          "name": "D4",
          "ticks": 67200,
          "time": 74.999925,
          "velocity": 0.3937007874015748
        },
        {
          "duration": 0.10714274999999418,
          "durationTicks": 96,
          "midi": 53,
          "name": "F3",
          "ticks": 67392,
          "time": 75.21421050000001,
          "velocity": 0.3937007874015748
        },
        {
          "duration": 0.10714274999999418,
          "durationTicks": 96,
          "midi": 65,
          "name": "F4",
          "ticks": 67392,
          "time": 75.21421050000001,
          "velocity": 0.3937007874015748
        },
        {
          "duration": 0.10714274999999418,
          "durationTicks": 96,
          "midi": 62,
          "name": "D4",
          "ticks": 67584,
          "time": 75.42849600000001,
          "velocity": 0.3937007874015748
        },
        {
          "duration": 0.10714275000000839,
          "durationTicks": 96,
          "midi": 56,
          "name": "G#3",
          "ticks": 67680,
          "time": 75.53563875,
          "velocity": 0.3937007874015748
        },
        {
          "duration": 0.10714274999999418,
          "durationTicks": 96,
          "midi": 65,
          "name": "F4",
          "ticks": 67776,
          "time": 75.64278150000001,
          "velocity": 0.3937007874015748
        },
        {
          "duration": 0.10714275000000839,
          "durationTicks": 96,
          "midi": 53,
          "name": "F3",
          "ticks": 67968,
          "time": 75.857067,
          "velocity": 0.3937007874015748
        },
        {
          "duration": 0.10714275000000839,
          "durationTicks": 96,
          "midi": 62,
          "name": "D4",
          "ticks": 67968,
          "time": 75.857067,
          "velocity": 0.3937007874015748
        },
        {
          "duration": 0.10714275000000839,
          "durationTicks": 96,
          "midi": 65,
          "name": "F4",
          "ticks": 68160,
          "time": 76.0713525,
          "velocity": 0.3937007874015748
        },
        {
          "duration": 0.10714274999999418,
          "durationTicks": 96,
          "midi": 56,
          "name": "G#3",
          "ticks": 68256,
          "time": 76.17849525000001,
          "velocity": 0.3937007874015748
        },
        {
          "duration": 0.10714274999999418,
          "durationTicks": 96,
          "midi": 62,
          "name": "D4",
          "ticks": 68352,
          "time": 76.285638,
          "velocity": 0.3937007874015748
        },
        {
          "duration": 0.10714274999999418,
          "durationTicks": 96,
          "midi": 53,
          "name": "F3",
          "ticks": 68544,
          "time": 76.49992350000001,
          "velocity": 0.3937007874015748
        },
        {
          "duration": 0.10714274999999418,
          "durationTicks": 96,
          "midi": 65,
          "name": "F4",
          "ticks": 68544,
          "time": 76.49992350000001,
          "velocity": 0.3937007874015748
        },
        {
          "duration": 0.10714274999999418,
          "durationTicks": 96,
          "midi": 62,
          "name": "D4",
          "ticks": 68736,
          "time": 76.71420900000001,
          "velocity": 0.3937007874015748
        },
        {
          "duration": 0.10714274999999418,
          "durationTicks": 96,
          "midi": 56,
          "name": "G#3",
          "ticks": 68832,
          "time": 76.82135175,
          "velocity": 0.3937007874015748
        },
        {
          "duration": 0.10714275000000839,
          "durationTicks": 96,
          "midi": 65,
          "name": "F4",
          "ticks": 68928,
          "time": 76.9284945,
          "velocity": 0.3937007874015748
        },
        {
          "duration": 0.21428550000000257,
          "durationTicks": 192,
          "midi": 46,
          "name": "A#2",
          "ticks": 69120,
          "time": 77.14278,
          "velocity": 0.3937007874015748
        },
        {
          "duration": 0.10714275000000839,
          "durationTicks": 96,
          "midi": 58,
          "name": "A#3",
          "ticks": 69120,
          "time": 77.14278,
          "velocity": 0.3937007874015748
        },
        {
          "duration": 0.10714275000000839,
          "durationTicks": 96,
          "midi": 51,
          "name": "D#3",
          "ticks": 69120,
          "time": 77.14278,
          "velocity": 0.3937007874015748
        },
        {
          "duration": 0.10714275000000839,
          "durationTicks": 96,
          "midi": 63,
          "name": "D#4",
          "ticks": 69312,
          "time": 77.3570655,
          "velocity": 0.3937007874015748
        },
        {
          "duration": 0.10714274999999418,
          "durationTicks": 96,
          "midi": 55,
          "name": "G3",
          "ticks": 69408,
          "time": 77.46420825000001,
          "velocity": 0.3937007874015748
        },
        {
          "duration": 0.10714274999999418,
          "durationTicks": 96,
          "midi": 58,
          "name": "A#3",
          "ticks": 69504,
          "time": 77.571351,
          "velocity": 0.3937007874015748
        },
        {
          "duration": 0.10714274999999418,
          "durationTicks": 96,
          "midi": 63,
          "name": "D#4",
          "ticks": 69696,
          "time": 77.78563650000001,
          "velocity": 0.3937007874015748
        },
        {
          "duration": 0.10714274999999418,
          "durationTicks": 96,
          "midi": 51,
          "name": "D#3",
          "ticks": 69696,
          "time": 77.78563650000001,
          "velocity": 0.3937007874015748
        },
        {
          "duration": 0.10714274999999418,
          "durationTicks": 96,
          "midi": 58,
          "name": "A#3",
          "ticks": 69888,
          "time": 77.99992200000001,
          "velocity": 0.3937007874015748
        },
        {
          "duration": 0.10714274999999418,
          "durationTicks": 96,
          "midi": 55,
          "name": "G3",
          "ticks": 69984,
          "time": 78.10706475,
          "velocity": 0.3937007874015748
        },
        {
          "duration": 0.10714275000000839,
          "durationTicks": 96,
          "midi": 63,
          "name": "D#4",
          "ticks": 70080,
          "time": 78.2142075,
          "velocity": 0.3937007874015748
        },
        {
          "duration": 0.10714275000000839,
          "durationTicks": 96,
          "midi": 51,
          "name": "D#3",
          "ticks": 70272,
          "time": 78.428493,
          "velocity": 0.3937007874015748
        },
        {
          "duration": 0.10714275000000839,
          "durationTicks": 96,
          "midi": 58,
          "name": "A#3",
          "ticks": 70272,
          "time": 78.428493,
          "velocity": 0.3937007874015748
        },
        {
          "duration": 0.10714274999999418,
          "durationTicks": 96,
          "midi": 63,
          "name": "D#4",
          "ticks": 70464,
          "time": 78.6427785,
          "velocity": 0.3937007874015748
        },
        {
          "duration": 0.10714275000000839,
          "durationTicks": 96,
          "midi": 55,
          "name": "G3",
          "ticks": 70560,
          "time": 78.74992125,
          "velocity": 0.3937007874015748
        },
        {
          "duration": 0.10714274999999418,
          "durationTicks": 96,
          "midi": 58,
          "name": "A#3",
          "ticks": 70656,
          "time": 78.85706400000001,
          "velocity": 0.3937007874015748
        },
        {
          "duration": 0.10714274999999418,
          "durationTicks": 96,
          "midi": 63,
          "name": "D#4",
          "ticks": 70848,
          "time": 79.07134950000001,
          "velocity": 0.3937007874015748
        },
        {
          "duration": 0.10714274999999418,
          "durationTicks": 96,
          "midi": 51,
          "name": "D#3",
          "ticks": 70848,
          "time": 79.07134950000001,
          "velocity": 0.3937007874015748
        },
        {
          "duration": 0.10714274999999418,
          "durationTicks": 96,
          "midi": 58,
          "name": "A#3",
          "ticks": 71040,
          "time": 79.28563500000001,
          "velocity": 0.3937007874015748
        },
        {
          "duration": 0.10714274999999418,
          "durationTicks": 96,
          "midi": 55,
          "name": "G3",
          "ticks": 71136,
          "time": 79.39277775000001,
          "velocity": 0.3937007874015748
        },
        {
          "duration": 0.10714275000000839,
          "durationTicks": 96,
          "midi": 63,
          "name": "D#4",
          "ticks": 71232,
          "time": 79.4999205,
          "velocity": 0.3937007874015748
        },
        {
          "duration": 0.10714275000000839,
          "durationTicks": 96,
          "midi": 51,
          "name": "D#3",
          "ticks": 71424,
          "time": 79.714206,
          "velocity": 0.3937007874015748
        },
        {
          "duration": 0.21428550000000257,
          "durationTicks": 192,
          "midi": 43,
          "name": "G2",
          "ticks": 71424,
          "time": 79.714206,
          "velocity": 0.3937007874015748
        },
        {
          "duration": 0.10714275000000839,
          "durationTicks": 96,
          "midi": 58,
          "name": "A#3",
          "ticks": 71424,
          "time": 79.714206,
          "velocity": 0.3937007874015748
        },
        {
          "duration": 0.10714274999999418,
          "durationTicks": 96,
          "midi": 63,
          "name": "D#4",
          "ticks": 71616,
          "time": 79.9284915,
          "velocity": 0.3937007874015748
        },
        {
          "duration": 0.10714275000000839,
          "durationTicks": 96,
          "midi": 55,
          "name": "G3",
          "ticks": 71712,
          "time": 80.03563425,
          "velocity": 0.3937007874015748
        },
        {
          "duration": 0.10714274999999418,
          "durationTicks": 96,
          "midi": 58,
          "name": "A#3",
          "ticks": 71808,
          "time": 80.14277700000001,
          "velocity": 0.3937007874015748
        },
        {
          "duration": 0.10714274999999418,
          "durationTicks": 96,
          "midi": 51,
          "name": "D#3",
          "ticks": 72000,
          "time": 80.35706250000001,
          "velocity": 0.3937007874015748
        },
        {
          "duration": 0.10714274999999418,
          "durationTicks": 96,
          "midi": 63,
          "name": "D#4",
          "ticks": 72000,
          "time": 80.35706250000001,
          "velocity": 0.3937007874015748
        },
        {
          "duration": 0.10714275000000839,
          "durationTicks": 96,
          "midi": 58,
          "name": "A#3",
          "ticks": 72192,
          "time": 80.571348,
          "velocity": 0.3937007874015748
        },
        {
          "duration": 0.10714274999999418,
          "durationTicks": 96,
          "midi": 55,
          "name": "G3",
          "ticks": 72288,
          "time": 80.67849075000001,
          "velocity": 0.3937007874015748
        },
        {
          "duration": 0.10714275000000839,
          "durationTicks": 96,
          "midi": 63,
          "name": "D#4",
          "ticks": 72384,
          "time": 80.7856335,
          "velocity": 0.3937007874015748
        },
        {
          "duration": 0.10714274999999418,
          "durationTicks": 96,
          "midi": 58,
          "name": "A#3",
          "ticks": 72576,
          "time": 80.999919,
          "velocity": 0.3937007874015748
        },
        {
          "duration": 0.10714274999999418,
          "durationTicks": 96,
          "midi": 51,
          "name": "D#3",
          "ticks": 72576,
          "time": 80.999919,
          "velocity": 0.3937007874015748
        },
        {
          "duration": 0.10714274999999418,
          "durationTicks": 96,
          "midi": 63,
          "name": "D#4",
          "ticks": 72768,
          "time": 81.21420450000001,
          "velocity": 0.3937007874015748
        },
        {
          "duration": 0.10714275000000839,
          "durationTicks": 96,
          "midi": 55,
          "name": "G3",
          "ticks": 72864,
          "time": 81.32134725,
          "velocity": 0.3937007874015748
        },
        {
          "duration": 0.10714274999999418,
          "durationTicks": 96,
          "midi": 58,
          "name": "A#3",
          "ticks": 72960,
          "time": 81.42849000000001,
          "velocity": 0.3937007874015748
        },
        {
          "duration": 0.10714274999999418,
          "durationTicks": 96,
          "midi": 63,
          "name": "D#4",
          "ticks": 73152,
          "time": 81.64277550000001,
          "velocity": 0.3937007874015748
        },
        {
          "duration": 0.10714274999999418,
          "durationTicks": 96,
          "midi": 51,
          "name": "D#3",
          "ticks": 73152,
          "time": 81.64277550000001,
          "velocity": 0.3937007874015748
        },
        {
          "duration": 0.10714275000000839,
          "durationTicks": 96,
          "midi": 58,
          "name": "A#3",
          "ticks": 73344,
          "time": 81.857061,
          "velocity": 0.3937007874015748
        },
        {
          "duration": 0.10714274999999418,
          "durationTicks": 96,
          "midi": 55,
          "name": "G3",
          "ticks": 73440,
          "time": 81.96420375000001,
          "velocity": 0.3937007874015748
        },
        {
          "duration": 0.10714275000000839,
          "durationTicks": 96,
          "midi": 63,
          "name": "D#4",
          "ticks": 73536,
          "time": 82.0713465,
          "velocity": 0.3937007874015748
        },
        {
          "duration": 0.10714274999999418,
          "durationTicks": 96,
          "midi": 74,
          "name": "D5",
          "ticks": 73728,
          "time": 82.285632,
          "velocity": 0.3937007874015748
        },
        {
          "duration": 0.10714274999999418,
          "durationTicks": 96,
          "midi": 58,
          "name": "A#3",
          "ticks": 73728,
          "time": 82.285632,
          "velocity": 0.3937007874015748
        },
        {
          "duration": 0.21428550000000257,
          "durationTicks": 192,
          "midi": 53,
          "name": "F3",
          "ticks": 73728,
          "time": 82.285632,
          "velocity": 0.3937007874015748
        },
        {
          "duration": 0.10714274999999418,
          "durationTicks": 96,
          "midi": 65,
          "name": "F4",
          "ticks": 73920,
          "time": 82.49991750000001,
          "velocity": 0.3937007874015748
        },
        {
          "duration": 0.10714275000000839,
          "durationTicks": 96,
          "midi": 62,
          "name": "D4",
          "ticks": 74016,
          "time": 82.60706025,
          "velocity": 0.3937007874015748
        },
        {
          "duration": 0.10714274999999418,
          "durationTicks": 96,
          "midi": 74,
          "name": "D5",
          "ticks": 74112,
          "time": 82.71420300000001,
          "velocity": 0.3937007874015748
        },
        {
          "duration": 0.10714275000000839,
          "durationTicks": 96,
          "midi": 58,
          "name": "A#3",
          "ticks": 74304,
          "time": 82.9284885,
          "velocity": 0.3937007874015748
        },
        {
          "duration": 0.10714275000000839,
          "durationTicks": 96,
          "midi": 65,
          "name": "F4",
          "ticks": 74304,
          "time": 82.9284885,
          "velocity": 0.3937007874015748
        },
        {
          "duration": 0.10714275000000839,
          "durationTicks": 96,
          "midi": 74,
          "name": "D5",
          "ticks": 74496,
          "time": 83.142774,
          "velocity": 0.3937007874015748
        },
        {
          "duration": 0.10714274999999418,
          "durationTicks": 96,
          "midi": 62,
          "name": "D4",
          "ticks": 74592,
          "time": 83.24991675000001,
          "velocity": 0.3937007874015748
        },
        {
          "duration": 0.10714275000000839,
          "durationTicks": 96,
          "midi": 65,
          "name": "F4",
          "ticks": 74688,
          "time": 83.3570595,
          "velocity": 0.3937007874015748
        },
        {
          "duration": 0.10714274999999418,
          "durationTicks": 96,
          "midi": 58,
          "name": "A#3",
          "ticks": 74880,
          "time": 83.57134500000001,
          "velocity": 0.3937007874015748
        },
        {
          "duration": 0.10714274999999418,
          "durationTicks": 96,
          "midi": 74,
          "name": "D5",
          "ticks": 74880,
          "time": 83.57134500000001,
          "velocity": 0.3937007874015748
        },
        {
          "duration": 0.10714274999999418,
          "durationTicks": 96,
          "midi": 65,
          "name": "F4",
          "ticks": 75072,
          "time": 83.78563050000001,
          "velocity": 0.3937007874015748
        },
        {
          "duration": 0.10714275000000839,
          "durationTicks": 96,
          "midi": 62,
          "name": "D4",
          "ticks": 75168,
          "time": 83.89277325,
          "velocity": 0.3937007874015748
        },
        {
          "duration": 0.10714274999999418,
          "durationTicks": 96,
          "midi": 74,
          "name": "D5",
          "ticks": 75264,
          "time": 83.99991600000001,
          "velocity": 0.3937007874015748
        },
        {
          "duration": 0.10714275000000839,
          "durationTicks": 96,
          "midi": 65,
          "name": "F4",
          "ticks": 75456,
          "time": 84.2142015,
          "velocity": 0.3937007874015748
        },
        {
          "duration": 0.10714275000000839,
          "durationTicks": 96,
          "midi": 58,
          "name": "A#3",
          "ticks": 75456,
          "time": 84.2142015,
          "velocity": 0.3937007874015748
        },
        {
          "duration": 0.10714275000000839,
          "durationTicks": 96,
          "midi": 74,
          "name": "D5",
          "ticks": 75648,
          "time": 84.428487,
          "velocity": 0.3937007874015748
        },
        {
          "duration": 0.10714274999999418,
          "durationTicks": 96,
          "midi": 62,
          "name": "D4",
          "ticks": 75744,
          "time": 84.53562975000001,
          "velocity": 0.3937007874015748
        },
        {
          "duration": 0.10714274999999418,
          "durationTicks": 96,
          "midi": 65,
          "name": "F4",
          "ticks": 75840,
          "time": 84.6427725,
          "velocity": 0.3937007874015748
        },
        {
          "duration": 0.21428550000000257,
          "durationTicks": 192,
          "midi": 53,
          "name": "F3",
          "ticks": 76032,
          "time": 84.85705800000001,
          "velocity": 0.3937007874015748
        },
        {
          "duration": 0.10714274999999418,
          "durationTicks": 96,
          "midi": 68,
          "name": "G#4",
          "ticks": 76032,
          "time": 84.85705800000001,
          "velocity": 0.3937007874015748
        },
        {
          "duration": 0.10714274999999418,
          "durationTicks": 96,
          "midi": 58,
          "name": "A#3",
          "ticks": 76032,
          "time": 84.85705800000001,
          "velocity": 0.3937007874015748
        },
        {
          "duration": 0.10714274999999418,
          "durationTicks": 96,
          "midi": 74,
          "name": "D5",
          "ticks": 76224,
          "time": 85.07134350000001,
          "velocity": 0.3937007874015748
        },
        {
          "duration": 0.10714274999999418,
          "durationTicks": 96,
          "midi": 62,
          "name": "D4",
          "ticks": 76320,
          "time": 85.17848625,
          "velocity": 0.3937007874015748
        },
        {
          "duration": 0.10714275000000839,
          "durationTicks": 96,
          "midi": 68,
          "name": "G#4",
          "ticks": 76416,
          "time": 85.285629,
          "velocity": 0.3937007874015748
        },
        {
          "duration": 0.10714275000000839,
          "durationTicks": 96,
          "midi": 74,
          "name": "D5",
          "ticks": 76608,
          "time": 85.4999145,
          "velocity": 0.3937007874015748
        },
        {
          "duration": 0.10714275000000839,
          "durationTicks": 96,
          "midi": 58,
          "name": "A#3",
          "ticks": 76608,
          "time": 85.4999145,
          "velocity": 0.3937007874015748
        },
        {
          "duration": 0.10714275000000839,
          "durationTicks": 96,
          "midi": 68,
          "name": "G#4",
          "ticks": 76800,
          "time": 85.7142,
          "velocity": 0.3937007874015748
        },
        {
          "duration": 0.10714274999999418,
          "durationTicks": 96,
          "midi": 62,
          "name": "D4",
          "ticks": 76896,
          "time": 85.82134275000001,
          "velocity": 0.3937007874015748
        },
        {
          "duration": 0.10714274999999418,
          "durationTicks": 96,
          "midi": 74,
          "name": "D5",
          "ticks": 76992,
          "time": 85.92848550000001,
          "velocity": 0.3937007874015748
        },
        {
          "duration": 0.10714274999999418,
          "durationTicks": 96,
          "midi": 68,
          "name": "G#4",
          "ticks": 77184,
          "time": 86.14277100000001,
          "velocity": 0.3937007874015748
        },
        {
          "duration": 0.10714274999999418,
          "durationTicks": 96,
          "midi": 58,
          "name": "A#3",
          "ticks": 77184,
          "time": 86.14277100000001,
          "velocity": 0.3937007874015748
        },
        {
          "duration": 0.10714274999999418,
          "durationTicks": 96,
          "midi": 74,
          "name": "D5",
          "ticks": 77376,
          "time": 86.35705650000001,
          "velocity": 0.3937007874015748
        },
        {
          "duration": 0.10714274999999418,
          "durationTicks": 96,
          "midi": 62,
          "name": "D4",
          "ticks": 77472,
          "time": 86.46419925000001,
          "velocity": 0.3937007874015748
        },
        {
          "duration": 0.10714275000000839,
          "durationTicks": 96,
          "midi": 68,
          "name": "G#4",
          "ticks": 77568,
          "time": 86.571342,
          "velocity": 0.3937007874015748
        },
        {
          "duration": 0.10714275000000839,
          "durationTicks": 96,
          "midi": 58,
          "name": "A#3",
          "ticks": 77760,
          "time": 86.7856275,
          "velocity": 0.3937007874015748
        },
        {
          "duration": 0.10714275000000839,
          "durationTicks": 96,
          "midi": 74,
          "name": "D5",
          "ticks": 77760,
          "time": 86.7856275,
          "velocity": 0.3937007874015748
        },
        {
          "duration": 0.10714274999999418,
          "durationTicks": 96,
          "midi": 68,
          "name": "G#4",
          "ticks": 77952,
          "time": 86.999913,
          "velocity": 0.3937007874015748
        },
        {
          "duration": 0.10714275000000839,
          "durationTicks": 96,
          "midi": 62,
          "name": "D4",
          "ticks": 78048,
          "time": 87.10705575,
          "velocity": 0.3937007874015748
        },
        {
          "duration": 0.10714274999999418,
          "durationTicks": 96,
          "midi": 74,
          "name": "D5",
          "ticks": 78144,
          "time": 87.21419850000001,
          "velocity": 0.3937007874015748
        },
        {
          "duration": 0.10714274999999418,
          "durationTicks": 96,
          "midi": 75,
          "name": "D#5",
          "ticks": 78336,
          "time": 87.42848400000001,
          "velocity": 0.3937007874015748
        },
        {
          "duration": 0.21428550000000257,
          "durationTicks": 192,
          "midi": 58,
          "name": "A#3",
          "ticks": 78336,
          "time": 87.42848400000001,
          "velocity": 0.3937007874015748
        },
        {
          "duration": 0.10714274999999418,
          "durationTicks": 96,
          "midi": 60,
          "name": "C4",
          "ticks": 78336,
          "time": 87.42848400000001,
          "velocity": 0.3937007874015748
        },
        {
          "duration": 0.10714274999999418,
          "durationTicks": 96,
          "midi": 68,
          "name": "G#4",
          "ticks": 78528,
          "time": 87.64276950000001,
          "velocity": 0.3937007874015748
        },
        {
          "duration": 0.10714274999999418,
          "durationTicks": 96,
          "midi": 63,
          "name": "D#4",
          "ticks": 78624,
          "time": 87.74991225000001,
          "velocity": 0.3937007874015748
        },
        {
          "duration": 0.10714275000000839,
          "durationTicks": 96,
          "midi": 75,
          "name": "D#5",
          "ticks": 78720,
          "time": 87.857055,
          "velocity": 0.3937007874015748
        },
        {
          "duration": 0.10714275000000839,
          "durationTicks": 96,
          "midi": 60,
          "name": "C4",
          "ticks": 78912,
          "time": 88.0713405,
          "velocity": 0.3937007874015748
        },
        {
          "duration": 0.10714275000000839,
          "durationTicks": 96,
          "midi": 68,
          "name": "G#4",
          "ticks": 78912,
          "time": 88.0713405,
          "velocity": 0.3937007874015748
        },
        {
          "duration": 0.10714274999999418,
          "durationTicks": 96,
          "midi": 75,
          "name": "D#5",
          "ticks": 79104,
          "time": 88.28562600000001,
          "velocity": 0.3937007874015748
        },
        {
          "duration": 0.10714275000000839,
          "durationTicks": 96,
          "midi": 63,
          "name": "D#4",
          "ticks": 79200,
          "time": 88.39276875,
          "velocity": 0.3937007874015748
        },
        {
          "duration": 0.10714274999999418,
          "durationTicks": 96,
          "midi": 68,
          "name": "G#4",
          "ticks": 79296,
          "time": 88.49991150000001,
          "velocity": 0.3937007874015748
        },
        {
          "duration": 0.10714274999999418,
          "durationTicks": 96,
          "midi": 75,
          "name": "D#5",
          "ticks": 79488,
          "time": 88.71419700000001,
          "velocity": 0.3937007874015748
        },
        {
          "duration": 0.10714274999999418,
          "durationTicks": 96,
          "midi": 60,
          "name": "C4",
          "ticks": 79488,
          "time": 88.71419700000001,
          "velocity": 0.3937007874015748
        },
        {
          "duration": 0.10714275000000839,
          "durationTicks": 96,
          "midi": 68,
          "name": "G#4",
          "ticks": 79680,
          "time": 88.9284825,
          "velocity": 0.3937007874015748
        },
        {
          "duration": 0.10714274999999418,
          "durationTicks": 96,
          "midi": 63,
          "name": "D#4",
          "ticks": 79776,
          "time": 89.03562525000001,
          "velocity": 0.3937007874015748
        },
        {
          "duration": 0.10714275000000839,
          "durationTicks": 96,
          "midi": 75,
          "name": "D#5",
          "ticks": 79872,
          "time": 89.142768,
          "velocity": 0.3937007874015748
        },
        {
          "duration": 0.10714274999999418,
          "durationTicks": 96,
          "midi": 68,
          "name": "G#4",
          "ticks": 80064,
          "time": 89.3570535,
          "velocity": 0.3937007874015748
        },
        {
          "duration": 0.10714274999999418,
          "durationTicks": 96,
          "midi": 60,
          "name": "C4",
          "ticks": 80064,
          "time": 89.3570535,
          "velocity": 0.3937007874015748
        },
        {
          "duration": 0.10714274999999418,
          "durationTicks": 96,
          "midi": 75,
          "name": "D#5",
          "ticks": 80256,
          "time": 89.57133900000001,
          "velocity": 0.3937007874015748
        },
        {
          "duration": 0.10714275000000839,
          "durationTicks": 96,
          "midi": 63,
          "name": "D#4",
          "ticks": 80352,
          "time": 89.67848175,
          "velocity": 0.3937007874015748
        },
        {
          "duration": 0.10714274999999418,
          "durationTicks": 96,
          "midi": 68,
          "name": "G#4",
          "ticks": 80448,
          "time": 89.78562450000001,
          "velocity": 0.3937007874015748
        },
        {
          "duration": 0.21428549999998836,
          "durationTicks": 192,
          "midi": 58,
          "name": "A#3",
          "ticks": 80640,
          "time": 89.99991000000001,
          "velocity": 0.3937007874015748
        },
        {
          "duration": 0.10714274999999418,
          "durationTicks": 96,
          "midi": 60,
          "name": "C4",
          "ticks": 80640,
          "time": 89.99991000000001,
          "velocity": 0.3937007874015748
        },
        {
          "duration": 0.10714274999999418,
          "durationTicks": 96,
          "midi": 75,
          "name": "D#5",
          "ticks": 80640,
          "time": 89.99991000000001,
          "velocity": 0.3937007874015748
        },
        {
          "duration": 0.10714275000000839,
          "durationTicks": 96,
          "midi": 68,
          "name": "G#4",
          "ticks": 80832,
          "time": 90.2141955,
          "velocity": 0.3937007874015748
        },
        {
          "duration": 0.10714274999999418,
          "durationTicks": 96,
          "midi": 63,
          "name": "D#4",
          "ticks": 80928,
          "time": 90.32133825000001,
          "velocity": 0.3937007874015748
        },
        {
          "duration": 0.10714275000000839,
          "durationTicks": 96,
          "midi": 75,
          "name": "D#5",
          "ticks": 81024,
          "time": 90.428481,
          "velocity": 0.3937007874015748
        },
        {
          "duration": 0.10714274999999418,
          "durationTicks": 96,
          "midi": 68,
          "name": "G#4",
          "ticks": 81216,
          "time": 90.64276650000001,
          "velocity": 0.3937007874015748
        },
        {
          "duration": 0.10714274999999418,
          "durationTicks": 96,
          "midi": 60,
          "name": "C4",
          "ticks": 81216,
          "time": 90.64276650000001,
          "velocity": 0.3937007874015748
        },
        {
          "duration": 0.10714274999999418,
          "durationTicks": 96,
          "midi": 75,
          "name": "D#5",
          "ticks": 81408,
          "time": 90.85705200000001,
          "velocity": 0.3937007874015748
        },
        {
          "duration": 0.10714275000000839,
          "durationTicks": 96,
          "midi": 63,
          "name": "D#4",
          "ticks": 81504,
          "time": 90.96419475,
          "velocity": 0.3937007874015748
        },
        {
          "duration": 0.10714274999999418,
          "durationTicks": 96,
          "midi": 68,
          "name": "G#4",
          "ticks": 81600,
          "time": 91.07133750000001,
          "velocity": 0.3937007874015748
        },
        {
          "duration": 0.10714275000000839,
          "durationTicks": 96,
          "midi": 60,
          "name": "C4",
          "ticks": 81792,
          "time": 91.285623,
          "velocity": 0.3937007874015748
        },
        {
          "duration": 0.10714275000000839,
          "durationTicks": 96,
          "midi": 75,
          "name": "D#5",
          "ticks": 81792,
          "time": 91.285623,
          "velocity": 0.3937007874015748
        },
        {
          "duration": 0.10714275000000839,
          "durationTicks": 96,
          "midi": 68,
          "name": "G#4",
          "ticks": 81984,
          "time": 91.4999085,
          "velocity": 0.3937007874015748
        },
        {
          "duration": 0.10714274999999418,
          "durationTicks": 96,
          "midi": 63,
          "name": "D#4",
          "ticks": 82080,
          "time": 91.60705125000001,
          "velocity": 0.3937007874015748
        },
        {
          "duration": 0.10714275000000839,
          "durationTicks": 96,
          "midi": 75,
          "name": "D#5",
          "ticks": 82176,
          "time": 91.714194,
          "velocity": 0.3937007874015748
        },
        {
          "duration": 0.10714274999999418,
          "durationTicks": 96,
          "midi": 60,
          "name": "C4",
          "ticks": 82368,
          "time": 91.92847950000001,
          "velocity": 0.3937007874015748
        },
        {
          "duration": 0.10714274999999418,
          "durationTicks": 96,
          "midi": 68,
          "name": "G#4",
          "ticks": 82368,
          "time": 91.92847950000001,
          "velocity": 0.3937007874015748
        },
        {
          "duration": 0.10714274999999418,
          "durationTicks": 96,
          "midi": 75,
          "name": "D#5",
          "ticks": 82560,
          "time": 92.14276500000001,
          "velocity": 0.3937007874015748
        },
        {
          "duration": 0.10714275000000839,
          "durationTicks": 96,
          "midi": 63,
          "name": "D#4",
          "ticks": 82656,
          "time": 92.24990775,
          "velocity": 0.3937007874015748
        },
        {
          "duration": 0.10714274999999418,
          "durationTicks": 96,
          "midi": 68,
          "name": "G#4",
          "ticks": 82752,
          "time": 92.35705050000001,
          "velocity": 0.3937007874015748
        },
        {
          "duration": 0.10714275000000839,
          "durationTicks": 96,
          "midi": 74,
          "name": "D5",
          "ticks": 82944,
          "time": 92.571336,
          "velocity": 0.3937007874015748
        },
        {
          "duration": 0.10714275000000839,
          "durationTicks": 96,
          "midi": 58,
          "name": "A#3",
          "ticks": 82944,
          "time": 92.571336,
          "velocity": 0.3937007874015748
        },
        {
          "duration": 0.21428550000000257,
          "durationTicks": 192,
          "midi": 53,
          "name": "F3",
          "ticks": 82944,
          "time": 92.571336,
          "velocity": 0.3937007874015748
        },
        {
          "duration": 0.10714275000000839,
          "durationTicks": 96,
          "midi": 65,
          "name": "F4",
          "ticks": 83136,
          "time": 92.7856215,
          "velocity": 0.3937007874015748
        },
        {
          "duration": 0.10714274999999418,
          "durationTicks": 96,
          "midi": 62,
          "name": "D4",
          "ticks": 83232,
          "time": 92.89276425000001,
          "velocity": 0.3937007874015748
        },
        {
          "duration": 0.10714274999999418,
          "durationTicks": 96,
          "midi": 74,
          "name": "D5",
          "ticks": 83328,
          "time": 92.99990700000001,
          "velocity": 0.3937007874015748
        },
        {
          "duration": 0.10714274999999418,
          "durationTicks": 96,
          "midi": 58,
          "name": "A#3",
          "ticks": 83520,
          "time": 93.21419250000001,
          "velocity": 0.3937007874015748
        },
        {
          "duration": 0.10714274999999418,
          "durationTicks": 96,
          "midi": 65,
          "name": "F4",
          "ticks": 83520,
          "time": 93.21419250000001,
          "velocity": 0.3937007874015748
        },
        {
          "duration": 0.10714274999999418,
          "durationTicks": 96,
          "midi": 74,
          "name": "D5",
          "ticks": 83712,
          "time": 93.42847800000001,
          "velocity": 0.3937007874015748
        },
        {
          "duration": 0.10714274999999418,
          "durationTicks": 96,
          "midi": 62,
          "name": "D4",
          "ticks": 83808,
          "time": 93.53562075,
          "velocity": 0.3937007874015748
        },
        {
          "duration": 0.10714275000000839,
          "durationTicks": 96,
          "midi": 65,
          "name": "F4",
          "ticks": 83904,
          "time": 93.6427635,
          "velocity": 0.3937007874015748
        },
        {
          "duration": 0.10714275000000839,
          "durationTicks": 96,
          "midi": 58,
          "name": "A#3",
          "ticks": 84096,
          "time": 93.857049,
          "velocity": 0.3937007874015748
        },
        {
          "duration": 0.10714275000000839,
          "durationTicks": 96,
          "midi": 74,
          "name": "D5",
          "ticks": 84096,
          "time": 93.857049,
          "velocity": 0.3937007874015748
        },
        {
          "duration": 0.10714275000000839,
          "durationTicks": 96,
          "midi": 65,
          "name": "F4",
          "ticks": 84288,
          "time": 94.0713345,
          "velocity": 0.3937007874015748
        },
        {
          "duration": 0.10714274999999418,
          "durationTicks": 96,
          "midi": 62,
          "name": "D4",
          "ticks": 84384,
          "time": 94.17847725000001,
          "velocity": 0.3937007874015748
        },
        {
          "duration": 0.10714274999999418,
          "durationTicks": 96,
          "midi": 74,
          "name": "D5",
          "ticks": 84480,
          "time": 94.28562000000001,
          "velocity": 0.3937007874015748
        },
        {
          "duration": 0.10714274999999418,
          "durationTicks": 96,
          "midi": 65,
          "name": "F4",
          "ticks": 84672,
          "time": 94.49990550000001,
          "velocity": 0.3937007874015748
        },
        {
          "duration": 0.10714274999999418,
          "durationTicks": 96,
          "midi": 58,
          "name": "A#3",
          "ticks": 84672,
          "time": 94.49990550000001,
          "velocity": 0.3937007874015748
        },
        {
          "duration": 0.10714274999999418,
          "durationTicks": 96,
          "midi": 74,
          "name": "D5",
          "ticks": 84864,
          "time": 94.71419100000001,
          "velocity": 0.3937007874015748
        },
        {
          "duration": 0.10714274999999418,
          "durationTicks": 96,
          "midi": 62,
          "name": "D4",
          "ticks": 84960,
          "time": 94.82133375000001,
          "velocity": 0.3937007874015748
        },
        {
          "duration": 0.10714275000000839,
          "durationTicks": 96,
          "midi": 65,
          "name": "F4",
          "ticks": 85056,
          "time": 94.9284765,
          "velocity": 0.3937007874015748
        },
        {
          "duration": 0.10714275000000839,
          "durationTicks": 96,
          "midi": 58,
          "name": "A#3",
          "ticks": 85248,
          "time": 95.142762,
          "velocity": 0.3937007874015748
        },
        {
          "duration": 0.21428550000000257,
          "durationTicks": 192,
          "midi": 53,
          "name": "F3",
          "ticks": 85248,
          "time": 95.142762,
          "velocity": 0.3937007874015748
        },
        {
          "duration": 0.10714275000000839,
          "durationTicks": 96,
          "midi": 68,
          "name": "G#4",
          "ticks": 85248,
          "time": 95.142762,
          "velocity": 0.3937007874015748
        },
        {
          "duration": 0.10714274999999418,
          "durationTicks": 96,
          "midi": 74,
          "name": "D5",
          "ticks": 85440,
          "time": 95.35704750000001,
          "velocity": 0.3937007874015748
        },
        {
          "duration": 0.10714275000000839,
          "durationTicks": 96,
          "midi": 62,
          "name": "D4",
          "ticks": 85536,
          "time": 95.46419025,
          "velocity": 0.3937007874015748
        },
        {
          "duration": 0.10714274999999418,
          "durationTicks": 96,
          "midi": 68,
          "name": "G#4",
          "ticks": 85632,
          "time": 95.57133300000001,
          "velocity": 0.3937007874015748
        },
        {
          "duration": 0.10714274999999418,
          "durationTicks": 96,
          "midi": 74,
          "name": "D5",
          "ticks": 85824,
          "time": 95.78561850000001,
          "velocity": 0.3937007874015748
        },
        {
          "duration": 0.10714274999999418,
          "durationTicks": 96,
          "midi": 58,
          "name": "A#3",
          "ticks": 85824,
          "time": 95.78561850000001,
          "velocity": 0.3937007874015748
        },
        {
          "duration": 0.10714274999999418,
          "durationTicks": 96,
          "midi": 68,
          "name": "G#4",
          "ticks": 86016,
          "time": 95.99990400000002,
          "velocity": 0.3937007874015748
        },
        {
          "duration": 0.10714274999999418,
          "durationTicks": 96,
          "midi": 62,
          "name": "D4",
          "ticks": 86112,
          "time": 96.10704675000001,
          "velocity": 0.3937007874015748
        },
        {
          "duration": 0.10714275000000839,
          "durationTicks": 96,
          "midi": 74,
          "name": "D5",
          "ticks": 86208,
          "time": 96.2141895,
          "velocity": 0.3937007874015748
        },
        {
          "duration": 0.10714275000000839,
          "durationTicks": 96,
          "midi": 68,
          "name": "G#4",
          "ticks": 86400,
          "time": 96.428475,
          "velocity": 0.3937007874015748
        },
        {
          "duration": 0.10714275000000839,
          "durationTicks": 96,
          "midi": 58,
          "name": "A#3",
          "ticks": 86400,
          "time": 96.428475,
          "velocity": 0.3937007874015748
        },
        {
          "duration": 0.10714274999999418,
          "durationTicks": 96,
          "midi": 74,
          "name": "D5",
          "ticks": 86592,
          "time": 96.64276050000001,
          "velocity": 0.3937007874015748
        },
        {
          "duration": 0.10714275000000839,
          "durationTicks": 96,
          "midi": 62,
          "name": "D4",
          "ticks": 86688,
          "time": 96.74990325,
          "velocity": 0.3937007874015748
        },
        {
          "duration": 0.10714274999999418,
          "durationTicks": 96,
          "midi": 68,
          "name": "G#4",
          "ticks": 86784,
          "time": 96.85704600000001,
          "velocity": 0.3937007874015748
        },
        {
          "duration": 0.10714274999999418,
          "durationTicks": 96,
          "midi": 74,
          "name": "D5",
          "ticks": 86976,
          "time": 97.07133150000001,
          "velocity": 0.3937007874015748
        },
        {
          "duration": 0.10714274999999418,
          "durationTicks": 96,
          "midi": 58,
          "name": "A#3",
          "ticks": 86976,
          "time": 97.07133150000001,
          "velocity": 0.3937007874015748
        },
        {
          "duration": 0.10714275000000839,
          "durationTicks": 96,
          "midi": 68,
          "name": "G#4",
          "ticks": 87168,
          "time": 97.285617,
          "velocity": 0.3937007874015748
        },
        {
          "duration": 0.10714274999999418,
          "durationTicks": 96,
          "midi": 62,
          "name": "D4",
          "ticks": 87264,
          "time": 97.39275975000001,
          "velocity": 0.3937007874015748
        },
        {
          "duration": 0.10714275000000839,
          "durationTicks": 96,
          "midi": 74,
          "name": "D5",
          "ticks": 87360,
          "time": 97.4999025,
          "velocity": 0.3937007874015748
        },
        {
          "duration": 0.10714274999999418,
          "durationTicks": 96,
          "midi": 75,
          "name": "D#5",
          "ticks": 87552,
          "time": 97.71418800000001,
          "velocity": 0.3937007874015748
        },
        {
          "duration": 0.10714274999999418,
          "durationTicks": 96,
          "midi": 60,
          "name": "C4",
          "ticks": 87552,
          "time": 97.71418800000001,
          "velocity": 0.3937007874015748
        },
        {
          "duration": 0.21428550000000257,
          "durationTicks": 192,
          "midi": 58,
          "name": "A#3",
          "ticks": 87552,
          "time": 97.71418800000001,
          "velocity": 0.3937007874015748
        },
        {
          "duration": 0.10714274999999418,
          "durationTicks": 96,
          "midi": 68,
          "name": "G#4",
          "ticks": 87744,
          "time": 97.92847350000001,
          "velocity": 0.3937007874015748
        },
        {
          "duration": 0.10714275000000839,
          "durationTicks": 96,
          "midi": 63,
          "name": "D#4",
          "ticks": 87840,
          "time": 98.03561625,
          "velocity": 0.3937007874015748
        },
        {
          "duration": 0.10714274999999418,
          "durationTicks": 96,
          "midi": 75,
          "name": "D#5",
          "ticks": 87936,
          "time": 98.14275900000001,
          "velocity": 0.3937007874015748
        },
        {
          "duration": 0.10714274999999418,
          "durationTicks": 96,
          "midi": 68,
          "name": "G#4",
          "ticks": 88128,
          "time": 98.35704450000001,
          "velocity": 0.3937007874015748
        },
        {
          "duration": 0.10714274999999418,
          "durationTicks": 96,
          "midi": 60,
          "name": "C4",
          "ticks": 88128,
          "time": 98.35704450000001,
          "velocity": 0.3937007874015748
        },
        {
          "duration": 0.10714275000000839,
          "durationTicks": 96,
          "midi": 75,
          "name": "D#5",
          "ticks": 88320,
          "time": 98.57133,
          "velocity": 0.3937007874015748
        },
        {
          "duration": 0.10714274999999418,
          "durationTicks": 96,
          "midi": 63,
          "name": "D#4",
          "ticks": 88416,
          "time": 98.67847275000001,
          "velocity": 0.3937007874015748
        },
        {
          "duration": 0.10714275000000839,
          "durationTicks": 96,
          "midi": 68,
          "name": "G#4",
          "ticks": 88512,
          "time": 98.7856155,
          "velocity": 0.3937007874015748
        },
        {
          "duration": 0.10714274999999418,
          "durationTicks": 96,
          "midi": 75,
          "name": "D#5",
          "ticks": 88704,
          "time": 98.99990100000001,
          "velocity": 0.3937007874015748
        },
        {
          "duration": 0.10714274999999418,
          "durationTicks": 96,
          "midi": 60,
          "name": "C4",
          "ticks": 88704,
          "time": 98.99990100000001,
          "velocity": 0.3937007874015748
        },
        {
          "duration": 0.10714274999999418,
          "durationTicks": 96,
          "midi": 68,
          "name": "G#4",
          "ticks": 88896,
          "time": 99.21418650000001,
          "velocity": 0.3937007874015748
        },
        {
          "duration": 0.10714275000000839,
          "durationTicks": 96,
          "midi": 63,
          "name": "D#4",
          "ticks": 88992,
          "time": 99.32132925,
          "velocity": 0.3937007874015748
        },
        {
          "duration": 0.10714274999999418,
          "durationTicks": 96,
          "midi": 75,
          "name": "D#5",
          "ticks": 89088,
          "time": 99.42847200000001,
          "velocity": 0.3937007874015748
        },
        {
          "duration": 0.10714275000000839,
          "durationTicks": 96,
          "midi": 60,
          "name": "C4",
          "ticks": 89280,
          "time": 99.6427575,
          "velocity": 0.3937007874015748
        },
        {
          "duration": 0.10714275000000839,
          "durationTicks": 96,
          "midi": 68,
          "name": "G#4",
          "ticks": 89280,
          "time": 99.6427575,
          "velocity": 0.3937007874015748
        },
        {
          "duration": 0.10714275000000839,
          "durationTicks": 96,
          "midi": 75,
          "name": "D#5",
          "ticks": 89472,
          "time": 99.857043,
          "velocity": 0.3937007874015748
        },
        {
          "duration": 0.10714274999999418,
          "durationTicks": 96,
          "midi": 63,
          "name": "D#4",
          "ticks": 89568,
          "time": 99.96418575000001,
          "velocity": 0.3937007874015748
        },
        {
          "duration": 0.10714274999999418,
          "durationTicks": 96,
          "midi": 68,
          "name": "G#4",
          "ticks": 89664,
          "time": 100.0713285,
          "velocity": 0.3937007874015748
        },
        {
          "duration": 0.21428550000000257,
          "durationTicks": 192,
          "midi": 58,
          "name": "A#3",
          "ticks": 89856,
          "time": 100.28561400000001,
          "velocity": 0.3937007874015748
        },
        {
          "duration": 0.10714274999999418,
          "durationTicks": 96,
          "midi": 75,
          "name": "D#5",
          "ticks": 89856,
          "time": 100.28561400000001,
          "velocity": 0.3937007874015748
        },
        {
          "duration": 0.10714274999999418,
          "durationTicks": 96,
          "midi": 60,
          "name": "C4",
          "ticks": 89856,
          "time": 100.28561400000001,
          "velocity": 0.3937007874015748
        },
        {
          "duration": 0.10714274999999418,
          "durationTicks": 96,
          "midi": 68,
          "name": "G#4",
          "ticks": 90048,
          "time": 100.49989950000001,
          "velocity": 0.3937007874015748
        },
        {
          "duration": 0.10714275000000839,
          "durationTicks": 96,
          "midi": 63,
          "name": "D#4",
          "ticks": 90144,
          "time": 100.60704225,
          "velocity": 0.3937007874015748
        },
        {
          "duration": 0.10714274999999418,
          "durationTicks": 96,
          "midi": 75,
          "name": "D#5",
          "ticks": 90240,
          "time": 100.71418500000001,
          "velocity": 0.3937007874015748
        },
        {
          "duration": 0.10714275000000839,
          "durationTicks": 96,
          "midi": 68,
          "name": "G#4",
          "ticks": 90432,
          "time": 100.9284705,
          "velocity": 0.3937007874015748
        },
        {
          "duration": 0.10714275000000839,
          "durationTicks": 96,
          "midi": 60,
          "name": "C4",
          "ticks": 90432,
          "time": 100.9284705,
          "velocity": 0.3937007874015748
        },
        {
          "duration": 0.10714275000000839,
          "durationTicks": 96,
          "midi": 75,
          "name": "D#5",
          "ticks": 90624,
          "time": 101.142756,
          "velocity": 0.3937007874015748
        },
        {
          "duration": 0.10714274999999418,
          "durationTicks": 96,
          "midi": 63,
          "name": "D#4",
          "ticks": 90720,
          "time": 101.24989875000001,
          "velocity": 0.3937007874015748
        },
        {
          "duration": 0.10714274999999418,
          "durationTicks": 96,
          "midi": 68,
          "name": "G#4",
          "ticks": 90816,
          "time": 101.35704150000001,
          "velocity": 0.3937007874015748
        },
        {
          "duration": 0.10714274999999418,
          "durationTicks": 96,
          "midi": 75,
          "name": "D#5",
          "ticks": 91008,
          "time": 101.57132700000001,
          "velocity": 0.3937007874015748
        },
        {
          "duration": 0.10714274999999418,
          "durationTicks": 96,
          "midi": 60,
          "name": "C4",
          "ticks": 91008,
          "time": 101.57132700000001,
          "velocity": 0.3937007874015748
        },
        {
          "duration": 0.10714274999999418,
          "durationTicks": 96,
          "midi": 68,
          "name": "G#4",
          "ticks": 91200,
          "time": 101.78561250000001,
          "velocity": 0.3937007874015748
        },
        {
          "duration": 0.10714274999999418,
          "durationTicks": 96,
          "midi": 63,
          "name": "D#4",
          "ticks": 91296,
          "time": 101.89275525000001,
          "velocity": 0.3937007874015748
        },
        {
          "duration": 0.10714275000000839,
          "durationTicks": 96,
          "midi": 75,
          "name": "D#5",
          "ticks": 91392,
          "time": 101.999898,
          "velocity": 0.3937007874015748
        },
        {
          "duration": 0.10714275000000839,
          "durationTicks": 96,
          "midi": 60,
          "name": "C4",
          "ticks": 91584,
          "time": 102.2141835,
          "velocity": 0.3937007874015748
        },
        {
          "duration": 0.10714275000000839,
          "durationTicks": 96,
          "midi": 68,
          "name": "G#4",
          "ticks": 91584,
          "time": 102.2141835,
          "velocity": 0.3937007874015748
        },
        {
          "duration": 0.10714275000000839,
          "durationTicks": 96,
          "midi": 75,
          "name": "D#5",
          "ticks": 91776,
          "time": 102.428469,
          "velocity": 0.3937007874015748
        },
        {
          "duration": 0.10714274999999418,
          "durationTicks": 96,
          "midi": 63,
          "name": "D#4",
          "ticks": 91872,
          "time": 102.53561175000002,
          "velocity": 0.3937007874015748
        },
        {
          "duration": 0.10714274999999418,
          "durationTicks": 96,
          "midi": 68,
          "name": "G#4",
          "ticks": 91968,
          "time": 102.64275450000001,
          "velocity": 0.3937007874015748
        },
        {
          "duration": 0.21428550000000257,
          "durationTicks": 192,
          "midi": 53,
          "name": "F3",
          "ticks": 92160,
          "time": 102.85704000000001,
          "velocity": 0.3937007874015748
        },
        {
          "duration": 0.10714274999999418,
          "durationTicks": 96,
          "midi": 58,
          "name": "A#3",
          "ticks": 92160,
          "time": 102.85704000000001,
          "velocity": 0.3937007874015748
        },
        {
          "duration": 0.10714274999999418,
          "durationTicks": 96,
          "midi": 74,
          "name": "D5",
          "ticks": 92160,
          "time": 102.85704000000001,
          "velocity": 0.3937007874015748
        },
        {
          "duration": 0.10714274999999418,
          "durationTicks": 96,
          "midi": 65,
          "name": "F4",
          "ticks": 92352,
          "time": 103.07132550000001,
          "velocity": 0.3937007874015748
        },
        {
          "duration": 0.10714274999999418,
          "durationTicks": 96,
          "midi": 62,
          "name": "D4",
          "ticks": 92448,
          "time": 103.17846825000001,
          "velocity": 0.3937007874015748
        },
        {
          "duration": 0.10714275000000839,
          "durationTicks": 96,
          "midi": 74,
          "name": "D5",
          "ticks": 92544,
          "time": 103.285611,
          "velocity": 0.3937007874015748
        },
        {
          "duration": 0.10714275000000839,
          "durationTicks": 96,
          "midi": 65,
          "name": "F4",
          "ticks": 92736,
          "time": 103.4998965,
          "velocity": 0.3937007874015748
        },
        {
          "duration": 0.10714275000000839,
          "durationTicks": 96,
          "midi": 58,
          "name": "A#3",
          "ticks": 92736,
          "time": 103.4998965,
          "velocity": 0.3937007874015748
        },
        {
          "duration": 0.10714274999999418,
          "durationTicks": 96,
          "midi": 74,
          "name": "D5",
          "ticks": 92928,
          "time": 103.71418200000001,
          "velocity": 0.3937007874015748
        },
        {
          "duration": 0.10714275000000839,
          "durationTicks": 96,
          "midi": 62,
          "name": "D4",
          "ticks": 93024,
          "time": 103.82132475,
          "velocity": 0.3937007874015748
        },
        {
          "duration": 0.10714274999999418,
          "durationTicks": 96,
          "midi": 65,
          "name": "F4",
          "ticks": 93120,
          "time": 103.92846750000001,
          "velocity": 0.3937007874015748
        },
        {
          "duration": 0.10714274999999418,
          "durationTicks": 96,
          "midi": 58,
          "name": "A#3",
          "ticks": 93312,
          "time": 104.14275300000001,
          "velocity": 0.3937007874015748
        },
        {
          "duration": 0.10714274999999418,
          "durationTicks": 96,
          "midi": 74,
          "name": "D5",
          "ticks": 93312,
          "time": 104.14275300000001,
          "velocity": 0.3937007874015748
        },
        {
          "duration": 0.10714275000000839,
          "durationTicks": 96,
          "midi": 65,
          "name": "F4",
          "ticks": 93504,
          "time": 104.3570385,
          "velocity": 0.3937007874015748
        },
        {
          "duration": 0.10714274999999418,
          "durationTicks": 96,
          "midi": 62,
          "name": "D4",
          "ticks": 93600,
          "time": 104.46418125000001,
          "velocity": 0.3937007874015748
        },
        {
          "duration": 0.10714275000000839,
          "durationTicks": 96,
          "midi": 74,
          "name": "D5",
          "ticks": 93696,
          "time": 104.571324,
          "velocity": 0.3937007874015748
        },
        {
          "duration": 0.10714275000000839,
          "durationTicks": 96,
          "midi": 58,
          "name": "A#3",
          "ticks": 93888,
          "time": 104.7856095,
          "velocity": 0.3937007874015748
        },
        {
          "duration": 0.10714275000000839,
          "durationTicks": 96,
          "midi": 65,
          "name": "F4",
          "ticks": 93888,
          "time": 104.7856095,
          "velocity": 0.3937007874015748
        },
        {
          "duration": 0.10714274999999418,
          "durationTicks": 96,
          "midi": 74,
          "name": "D5",
          "ticks": 94080,
          "time": 104.99989500000001,
          "velocity": 0.3937007874015748
        },
        {
          "duration": 0.10714275000000839,
          "durationTicks": 96,
          "midi": 62,
          "name": "D4",
          "ticks": 94176,
          "time": 105.10703775,
          "velocity": 0.3937007874015748
        },
        {
          "duration": 0.10714274999999418,
          "durationTicks": 96,
          "midi": 65,
          "name": "F4",
          "ticks": 94272,
          "time": 105.21418050000001,
          "velocity": 0.3937007874015748
        },
        {
          "duration": 0.10714274999999418,
          "durationTicks": 96,
          "midi": 68,
          "name": "G#4",
          "ticks": 94464,
          "time": 105.42846600000001,
          "velocity": 0.3937007874015748
        },
        {
          "duration": 0.21428549999998836,
          "durationTicks": 192,
          "midi": 53,
          "name": "F3",
          "ticks": 94464,
          "time": 105.42846600000001,
          "velocity": 0.3937007874015748
        },
        {
          "duration": 0.10714274999999418,
          "durationTicks": 96,
          "midi": 58,
          "name": "A#3",
          "ticks": 94464,
          "time": 105.42846600000001,
          "velocity": 0.3937007874015748
        },
        {
          "duration": 0.10714275000000839,
          "durationTicks": 96,
          "midi": 74,
          "name": "D5",
          "ticks": 94656,
          "time": 105.6427515,
          "velocity": 0.3937007874015748
        },
        {
          "duration": 0.10714274999999418,
          "durationTicks": 96,
          "midi": 62,
          "name": "D4",
          "ticks": 94752,
          "time": 105.74989425000001,
          "velocity": 0.3937007874015748
        },
        {
          "duration": 0.10714275000000839,
          "durationTicks": 96,
          "midi": 68,
          "name": "G#4",
          "ticks": 94848,
          "time": 105.857037,
          "velocity": 0.3937007874015748
        },
        {
          "duration": 0.10714274999999418,
          "durationTicks": 96,
          "midi": 58,
          "name": "A#3",
          "ticks": 95040,
          "time": 106.07132250000001,
          "velocity": 0.3937007874015748
        },
        {
          "duration": 0.10714274999999418,
          "durationTicks": 96,
          "midi": 74,
          "name": "D5",
          "ticks": 95040,
          "time": 106.07132250000001,
          "velocity": 0.3937007874015748
        },
        {
          "duration": 0.10714274999999418,
          "durationTicks": 96,
          "midi": 68,
          "name": "G#4",
          "ticks": 95232,
          "time": 106.28560800000001,
          "velocity": 0.3937007874015748
        },
        {
          "duration": 0.10714275000000839,
          "durationTicks": 96,
          "midi": 62,
          "name": "D4",
          "ticks": 95328,
          "time": 106.39275075,
          "velocity": 0.3937007874015748
        },
        {
          "duration": 0.10714274999999418,
          "durationTicks": 96,
          "midi": 74,
          "name": "D5",
          "ticks": 95424,
          "time": 106.49989350000001,
          "velocity": 0.3937007874015748
        },
        {
          "duration": 0.10714274999999418,
          "durationTicks": 96,
          "midi": 58,
          "name": "A#3",
          "ticks": 95616,
          "time": 106.71417900000002,
          "velocity": 0.3937007874015748
        },
        {
          "duration": 0.10714274999999418,
          "durationTicks": 96,
          "midi": 68,
          "name": "G#4",
          "ticks": 95616,
          "time": 106.71417900000002,
          "velocity": 0.3937007874015748
        },
        {
          "duration": 0.10714275000000839,
          "durationTicks": 96,
          "midi": 74,
          "name": "D5",
          "ticks": 95808,
          "time": 106.9284645,
          "velocity": 0.3937007874015748
        },
        {
          "duration": 0.10714274999999418,
          "durationTicks": 96,
          "midi": 62,
          "name": "D4",
          "ticks": 95904,
          "time": 107.03560725000001,
          "velocity": 0.3937007874015748
        },
        {
          "duration": 0.10714275000000839,
          "durationTicks": 96,
          "midi": 68,
          "name": "G#4",
          "ticks": 96000,
          "time": 107.14275,
          "velocity": 0.3937007874015748
        },
        {
          "duration": 0.10714274999999418,
          "durationTicks": 96,
          "midi": 58,
          "name": "A#3",
          "ticks": 96192,
          "time": 107.35703550000001,
          "velocity": 0.3937007874015748
        },
        {
          "duration": 0.10714274999999418,
          "durationTicks": 96,
          "midi": 74,
          "name": "D5",
          "ticks": 96192,
          "time": 107.35703550000001,
          "velocity": 0.3937007874015748
        },
        {
          "duration": 0.10714274999999418,
          "durationTicks": 96,
          "midi": 68,
          "name": "G#4",
          "ticks": 96384,
          "time": 107.57132100000001,
          "velocity": 0.3937007874015748
        },
        {
          "duration": 0.10714275000000839,
          "durationTicks": 96,
          "midi": 62,
          "name": "D4",
          "ticks": 96480,
          "time": 107.67846375,
          "velocity": 0.3937007874015748
        },
        {
          "duration": 0.10714274999999418,
          "durationTicks": 96,
          "midi": 74,
          "name": "D5",
          "ticks": 96576,
          "time": 107.78560650000001,
          "velocity": 0.3937007874015748
        },
        {
          "duration": 0.10714275000000839,
          "durationTicks": 96,
          "midi": 60,
          "name": "C4",
          "ticks": 96768,
          "time": 107.999892,
          "velocity": 0.3937007874015748
        },
        {
          "duration": 0.10714275000000839,
          "durationTicks": 96,
          "midi": 75,
          "name": "D#5",
          "ticks": 96768,
          "time": 107.999892,
          "velocity": 0.3937007874015748
        },
        {
          "duration": 0.21428550000000257,
          "durationTicks": 192,
          "midi": 58,
          "name": "A#3",
          "ticks": 96768,
          "time": 107.999892,
          "velocity": 0.3937007874015748
        },
        {
          "duration": 0.10714275000000839,
          "durationTicks": 96,
          "midi": 68,
          "name": "G#4",
          "ticks": 96960,
          "time": 108.2141775,
          "velocity": 0.3937007874015748
        },
        {
          "duration": 0.10714274999999418,
          "durationTicks": 96,
          "midi": 63,
          "name": "D#4",
          "ticks": 97056,
          "time": 108.32132025000001,
          "velocity": 0.3937007874015748
        },
        {
          "duration": 0.10714274999999418,
          "durationTicks": 96,
          "midi": 75,
          "name": "D#5",
          "ticks": 97152,
          "time": 108.42846300000001,
          "velocity": 0.3937007874015748
        },
        {
          "duration": 0.10714274999999418,
          "durationTicks": 96,
          "midi": 60,
          "name": "C4",
          "ticks": 97344,
          "time": 108.64274850000001,
          "velocity": 0.3937007874015748
        },
        {
          "duration": 0.10714274999999418,
          "durationTicks": 96,
          "midi": 68,
          "name": "G#4",
          "ticks": 97344,
          "time": 108.64274850000001,
          "velocity": 0.3937007874015748
        },
        {
          "duration": 0.10714274999999418,
          "durationTicks": 96,
          "midi": 75,
          "name": "D#5",
          "ticks": 97536,
          "time": 108.85703400000001,
          "velocity": 0.3937007874015748
        },
        {
          "duration": 0.10714275000000839,
          "durationTicks": 96,
          "midi": 63,
          "name": "D#4",
          "ticks": 97632,
          "time": 108.96417675000001,
          "velocity": 0.3937007874015748
        },
        {
          "duration": 0.10714274999999418,
          "durationTicks": 96,
          "midi": 68,
          "name": "G#4",
          "ticks": 97728,
          "time": 109.07131950000002,
          "velocity": 0.3937007874015748
        },
        {
          "duration": 0.10714275000000839,
          "durationTicks": 96,
          "midi": 75,
          "name": "D#5",
          "ticks": 97920,
          "time": 109.285605,
          "velocity": 0.3937007874015748
        },
        {
          "duration": 0.10714275000000839,
          "durationTicks": 96,
          "midi": 60,
          "name": "C4",
          "ticks": 97920,
          "time": 109.285605,
          "velocity": 0.3937007874015748
        },
        {
          "duration": 0.10714275000000839,
          "durationTicks": 96,
          "midi": 68,
          "name": "G#4",
          "ticks": 98112,
          "time": 109.4998905,
          "velocity": 0.3937007874015748
        },
        {
          "duration": 0.10714274999999418,
          "durationTicks": 96,
          "midi": 63,
          "name": "D#4",
          "ticks": 98208,
          "time": 109.60703325000001,
          "velocity": 0.3937007874015748
        },
        {
          "duration": 0.10714274999999418,
          "durationTicks": 96,
          "midi": 75,
          "name": "D#5",
          "ticks": 98304,
          "time": 109.71417600000001,
          "velocity": 0.3937007874015748
        },
        {
          "duration": 0.10714274999999418,
          "durationTicks": 96,
          "midi": 68,
          "name": "G#4",
          "ticks": 98496,
          "time": 109.92846150000001,
          "velocity": 0.3937007874015748
        },
        {
          "duration": 0.10714274999999418,
          "durationTicks": 96,
          "midi": 60,
          "name": "C4",
          "ticks": 98496,
          "time": 109.92846150000001,
          "velocity": 0.3937007874015748
        },
        {
          "duration": 0.10714274999999418,
          "durationTicks": 96,
          "midi": 75,
          "name": "D#5",
          "ticks": 98688,
          "time": 110.14274700000001,
          "velocity": 0.3937007874015748
        },
        {
          "duration": 0.10714274999999418,
          "durationTicks": 96,
          "midi": 63,
          "name": "D#4",
          "ticks": 98784,
          "time": 110.24988975000001,
          "velocity": 0.3937007874015748
        },
        {
          "duration": 0.10714275000000839,
          "durationTicks": 96,
          "midi": 68,
          "name": "G#4",
          "ticks": 98880,
          "time": 110.3570325,
          "velocity": 0.3937007874015748
        },
        {
          "duration": 0.21428550000000257,
          "durationTicks": 192,
          "midi": 58,
          "name": "A#3",
          "ticks": 99072,
          "time": 110.571318,
          "velocity": 0.3937007874015748
        },
        {
          "duration": 0.10714275000000839,
          "durationTicks": 96,
          "midi": 75,
          "name": "D#5",
          "ticks": 99072,
          "time": 110.571318,
          "velocity": 0.3937007874015748
        },
        {
          "duration": 0.10714275000000839,
          "durationTicks": 96,
          "midi": 60,
          "name": "C4",
          "ticks": 99072,
          "time": 110.571318,
          "velocity": 0.3937007874015748
        },
        {
          "duration": 0.10714275000000839,
          "durationTicks": 96,
          "midi": 68,
          "name": "G#4",
          "ticks": 99264,
          "time": 110.78560350000001,
          "velocity": 0.3937007874015748
        },
        {
          "duration": 0.10714274999999418,
          "durationTicks": 96,
          "midi": 63,
          "name": "D#4",
          "ticks": 99360,
          "time": 110.89274625000002,
          "velocity": 0.3937007874015748
        },
        {
          "duration": 0.10714274999999418,
          "durationTicks": 96,
          "midi": 75,
          "name": "D#5",
          "ticks": 99456,
          "time": 110.99988900000001,
          "velocity": 0.3937007874015748
        },
        {
          "duration": 0.10714274999999418,
          "durationTicks": 96,
          "midi": 68,
          "name": "G#4",
          "ticks": 99648,
          "time": 111.21417450000001,
          "velocity": 0.3937007874015748
        },
        {
          "duration": 0.10714274999999418,
          "durationTicks": 96,
          "midi": 60,
          "name": "C4",
          "ticks": 99648,
          "time": 111.21417450000001,
          "velocity": 0.3937007874015748
        },
        {
          "duration": 0.10714274999999418,
          "durationTicks": 96,
          "midi": 75,
          "name": "D#5",
          "ticks": 99840,
          "time": 111.42846000000002,
          "velocity": 0.3937007874015748
        },
        {
          "duration": 0.10714274999999418,
          "durationTicks": 96,
          "midi": 63,
          "name": "D#4",
          "ticks": 99936,
          "time": 111.53560275000001,
          "velocity": 0.3937007874015748
        },
        {
          "duration": 0.10714275000000839,
          "durationTicks": 96,
          "midi": 68,
          "name": "G#4",
          "ticks": 100032,
          "time": 111.6427455,
          "velocity": 0.3937007874015748
        },
        {
          "duration": 0.21428550000000257,
          "durationTicks": 192,
          "midi": 56,
          "name": "G#3",
          "ticks": 100224,
          "time": 111.857031,
          "velocity": 0.3937007874015748
        },
        {
          "duration": 0.10714275000000839,
          "durationTicks": 96,
          "midi": 75,
          "name": "D#5",
          "ticks": 100224,
          "time": 111.857031,
          "velocity": 0.3937007874015748
        },
        {
          "duration": 0.10714275000000839,
          "durationTicks": 96,
          "midi": 60,
          "name": "C4",
          "ticks": 100224,
          "time": 111.857031,
          "velocity": 0.3937007874015748
        },
        {
          "duration": 0.10714274999999418,
          "durationTicks": 96,
          "midi": 68,
          "name": "G#4",
          "ticks": 100416,
          "time": 112.07131650000001,
          "velocity": 0.3937007874015748
        },
        {
          "duration": 0.10714275000000839,
          "durationTicks": 96,
          "midi": 63,
          "name": "D#4",
          "ticks": 100512,
          "time": 112.17845925,
          "velocity": 0.3937007874015748
        },
        {
          "duration": 0.10714274999999418,
          "durationTicks": 96,
          "midi": 75,
          "name": "D#5",
          "ticks": 100608,
          "time": 112.28560200000001,
          "velocity": 0.3937007874015748
        },
        {
          "duration": 0.10714274999999418,
          "durationTicks": 96,
          "midi": 68,
          "name": "G#4",
          "ticks": 100800,
          "time": 112.49988750000001,
          "velocity": 0.3937007874015748
        },
        {
          "duration": 0.10714274999999418,
          "durationTicks": 96,
          "midi": 60,
          "name": "C4",
          "ticks": 100800,
          "time": 112.49988750000001,
          "velocity": 0.3937007874015748
        },
        {
          "duration": 0.10714275000000839,
          "durationTicks": 96,
          "midi": 75,
          "name": "D#5",
          "ticks": 100992,
          "time": 112.714173,
          "velocity": 0.3937007874015748
        },
        {
          "duration": 0.10714274999999418,
          "durationTicks": 96,
          "midi": 63,
          "name": "D#4",
          "ticks": 101088,
          "time": 112.82131575000001,
          "velocity": 0.3937007874015748
        },
        {
          "duration": 0.10714275000000839,
          "durationTicks": 96,
          "midi": 68,
          "name": "G#4",
          "ticks": 101184,
          "time": 112.9284585,
          "velocity": 0.3937007874015748
        },
        {
          "duration": 0.10714275000000839,
          "durationTicks": 96,
          "midi": 74,
          "name": "D5",
          "ticks": 101376,
          "time": 113.14274400000001,
          "velocity": 0.3937007874015748
        },
        {
          "duration": 0.21428550000000257,
          "durationTicks": 192,
          "midi": 55,
          "name": "G3",
          "ticks": 101376,
          "time": 113.14274400000001,
          "velocity": 0.3937007874015748
        },
        {
          "duration": 0.10714275000000839,
          "durationTicks": 96,
          "midi": 58,
          "name": "A#3",
          "ticks": 101376,
          "time": 113.14274400000001,
          "velocity": 0.3937007874015748
        },
        {
          "duration": 0.10714274999999418,
          "durationTicks": 96,
          "midi": 67,
          "name": "G4",
          "ticks": 101568,
          "time": 113.35702950000001,
          "velocity": 0.3937007874015748
        },
        {
          "duration": 0.10714275000000839,
          "durationTicks": 96,
          "midi": 62,
          "name": "D4",
          "ticks": 101664,
          "time": 113.46417225,
          "velocity": 0.3937007874015748
        },
        {
          "duration": 0.10714274999999418,
          "durationTicks": 96,
          "midi": 74,
          "name": "D5",
          "ticks": 101760,
          "time": 113.57131500000001,
          "velocity": 0.3937007874015748
        },
        {
          "duration": 0.10714274999999418,
          "durationTicks": 96,
          "midi": 58,
          "name": "A#3",
          "ticks": 101952,
          "time": 113.78560050000002,
          "velocity": 0.3937007874015748
        },
        {
          "duration": 0.10714274999999418,
          "durationTicks": 96,
          "midi": 67,
          "name": "G4",
          "ticks": 101952,
          "time": 113.78560050000002,
          "velocity": 0.3937007874015748
        },
        {
          "duration": 0.10714275000000839,
          "durationTicks": 96,
          "midi": 74,
          "name": "D5",
          "ticks": 102144,
          "time": 113.999886,
          "velocity": 0.3937007874015748
        },
        {
          "duration": 0.10714274999999418,
          "durationTicks": 96,
          "midi": 62,
          "name": "D4",
          "ticks": 102240,
          "time": 114.10702875000001,
          "velocity": 0.3937007874015748
        },
        {
          "duration": 0.10714275000000839,
          "durationTicks": 96,
          "midi": 67,
          "name": "G4",
          "ticks": 102336,
          "time": 114.2141715,
          "velocity": 0.3937007874015748
        },
        {
          "duration": 0.10714274999999418,
          "durationTicks": 96,
          "midi": 58,
          "name": "A#3",
          "ticks": 102528,
          "time": 114.42845700000001,
          "velocity": 0.3937007874015748
        },
        {
          "duration": 0.10714274999999418,
          "durationTicks": 96,
          "midi": 74,
          "name": "D5",
          "ticks": 102528,
          "time": 114.42845700000001,
          "velocity": 0.3937007874015748
        },
        {
          "duration": 0.10714274999999418,
          "durationTicks": 96,
          "midi": 67,
          "name": "G4",
          "ticks": 102720,
          "time": 114.64274250000001,
          "velocity": 0.3937007874015748
        },
        {
          "duration": 0.10714275000000839,
          "durationTicks": 96,
          "midi": 62,
          "name": "D4",
          "ticks": 102816,
          "time": 114.74988525,
          "velocity": 0.3937007874015748
        },
        {
          "duration": 0.10714274999999418,
          "durationTicks": 96,
          "midi": 74,
          "name": "D5",
          "ticks": 102912,
          "time": 114.85702800000001,
          "velocity": 0.3937007874015748
        },
        {
          "duration": 0.10714274999999418,
          "durationTicks": 96,
          "midi": 67,
          "name": "G4",
          "ticks": 103104,
          "time": 115.07131350000002,
          "velocity": 0.3937007874015748
        },
        {
          "duration": 0.10714274999999418,
          "durationTicks": 96,
          "midi": 58,
          "name": "A#3",
          "ticks": 103104,
          "time": 115.07131350000002,
          "velocity": 0.3937007874015748
        },
        {
          "duration": 0.10714275000000839,
          "durationTicks": 96,
          "midi": 74,
          "name": "D5",
          "ticks": 103296,
          "time": 115.285599,
          "velocity": 0.3937007874015748
        },
        {
          "duration": 0.10714274999999418,
          "durationTicks": 96,
          "midi": 62,
          "name": "D4",
          "ticks": 103392,
          "time": 115.39274175000001,
          "velocity": 0.3937007874015748
        },
        {
          "duration": 0.10714275000000839,
          "durationTicks": 96,
          "midi": 67,
          "name": "G4",
          "ticks": 103488,
          "time": 115.49988450000001,
          "velocity": 0.3937007874015748
        },
        {
          "duration": 0.21428550000000257,
          "durationTicks": 192,
          "midi": 55,
          "name": "G3",
          "ticks": 103680,
          "time": 115.71417000000001,
          "velocity": 0.3937007874015748
        },
        {
          "duration": 0.10714274999999418,
          "durationTicks": 96,
          "midi": 58,
          "name": "A#3",
          "ticks": 103680,
          "time": 115.71417000000001,
          "velocity": 0.3937007874015748
        },
        {
          "duration": 0.10714274999999418,
          "durationTicks": 96,
          "midi": 74,
          "name": "D5",
          "ticks": 103680,
          "time": 115.71417000000001,
          "velocity": 0.3937007874015748
        },
        {
          "duration": 0.10714274999999418,
          "durationTicks": 96,
          "midi": 67,
          "name": "G4",
          "ticks": 103872,
          "time": 115.92845550000001,
          "velocity": 0.3937007874015748
        },
        {
          "duration": 0.10714275000000839,
          "durationTicks": 96,
          "midi": 62,
          "name": "D4",
          "ticks": 103968,
          "time": 116.03559825,
          "velocity": 0.3937007874015748
        },
        {
          "duration": 0.10714274999999418,
          "durationTicks": 96,
          "midi": 74,
          "name": "D5",
          "ticks": 104064,
          "time": 116.14274100000002,
          "velocity": 0.3937007874015748
        },
        {
          "duration": 0.10714275000000839,
          "durationTicks": 96,
          "midi": 67,
          "name": "G4",
          "ticks": 104256,
          "time": 116.3570265,
          "velocity": 0.3937007874015748
        },
        {
          "duration": 0.10714275000000839,
          "durationTicks": 96,
          "midi": 58,
          "name": "A#3",
          "ticks": 104256,
          "time": 116.3570265,
          "velocity": 0.3937007874015748
        },
        {
          "duration": 0.10714275000000839,
          "durationTicks": 96,
          "midi": 74,
          "name": "D5",
          "ticks": 104448,
          "time": 116.571312,
          "velocity": 0.3937007874015748
        },
        {
          "duration": 0.10714274999999418,
          "durationTicks": 96,
          "midi": 62,
          "name": "D4",
          "ticks": 104544,
          "time": 116.67845475000001,
          "velocity": 0.3937007874015748
        },
        {
          "duration": 0.10714274999999418,
          "durationTicks": 96,
          "midi": 67,
          "name": "G4",
          "ticks": 104640,
          "time": 116.78559750000001,
          "velocity": 0.3937007874015748
        },
        {
          "duration": 0.10714274999999418,
          "durationTicks": 96,
          "midi": 74,
          "name": "D5",
          "ticks": 104832,
          "time": 116.99988300000001,
          "velocity": 0.3937007874015748
        },
        {
          "duration": 0.10714274999999418,
          "durationTicks": 96,
          "midi": 58,
          "name": "A#3",
          "ticks": 104832,
          "time": 116.99988300000001,
          "velocity": 0.3937007874015748
        },
        {
          "duration": 0.10714274999999418,
          "durationTicks": 96,
          "midi": 67,
          "name": "G4",
          "ticks": 105024,
          "time": 117.21416850000001,
          "velocity": 0.3937007874015748
        },
        {
          "duration": 0.10714275000000839,
          "durationTicks": 96,
          "midi": 62,
          "name": "D4",
          "ticks": 105120,
          "time": 117.32131125000001,
          "velocity": 0.3937007874015748
        },
        {
          "duration": 0.10714274999999418,
          "durationTicks": 96,
          "midi": 74,
          "name": "D5",
          "ticks": 105216,
          "time": 117.42845400000002,
          "velocity": 0.3937007874015748
        },
        {
          "duration": 0.10714275000000839,
          "durationTicks": 96,
          "midi": 58,
          "name": "A#3",
          "ticks": 105408,
          "time": 117.6427395,
          "velocity": 0.3937007874015748
        },
        {
          "duration": 0.10714275000000839,
          "durationTicks": 96,
          "midi": 67,
          "name": "G4",
          "ticks": 105408,
          "time": 117.6427395,
          "velocity": 0.3937007874015748
        },
        {
          "duration": 0.10714275000000839,
          "durationTicks": 96,
          "midi": 74,
          "name": "D5",
          "ticks": 105600,
          "time": 117.85702500000001,
          "velocity": 0.3937007874015748
        },
        {
          "duration": 0.10714274999999418,
          "durationTicks": 96,
          "midi": 62,
          "name": "D4",
          "ticks": 105696,
          "time": 117.96416775000002,
          "velocity": 0.3937007874015748
        },
        {
          "duration": 0.10714274999999418,
          "durationTicks": 96,
          "midi": 67,
          "name": "G4",
          "ticks": 105792,
          "time": 118.07131050000001,
          "velocity": 0.3937007874015748
        },
        {
          "duration": 0.10714274999999418,
          "durationTicks": 96,
          "midi": 58,
          "name": "A#3",
          "ticks": 105984,
          "time": 118.28559600000001,
          "velocity": 0.3937007874015748
        },
        {
          "duration": 0.21428550000000257,
          "durationTicks": 192,
          "midi": 53,
          "name": "F3",
          "ticks": 105984,
          "time": 118.28559600000001,
          "velocity": 0.3937007874015748
        },
        {
          "duration": 0.10714274999999418,
          "durationTicks": 96,
          "midi": 74,
          "name": "D5",
          "ticks": 105984,
          "time": 118.28559600000001,
          "velocity": 0.3937007874015748
        },
        {
          "duration": 0.10714274999999418,
          "durationTicks": 96,
          "midi": 68,
          "name": "G#4",
          "ticks": 106176,
          "time": 118.49988150000001,
          "velocity": 0.3937007874015748
        },
        {
          "duration": 0.10714274999999418,
          "durationTicks": 96,
          "midi": 62,
          "name": "D4",
          "ticks": 106272,
          "time": 118.60702425000001,
          "velocity": 0.3937007874015748
        },
        {
          "duration": 0.10714275000000839,
          "durationTicks": 96,
          "midi": 74,
          "name": "D5",
          "ticks": 106368,
          "time": 118.714167,
          "velocity": 0.3937007874015748
        },
        {
          "duration": 0.10714275000000839,
          "durationTicks": 96,
          "midi": 58,
          "name": "A#3",
          "ticks": 106560,
          "time": 118.9284525,
          "velocity": 0.3937007874015748
        },
        {
          "duration": 0.10714275000000839,
          "durationTicks": 96,
          "midi": 68,
          "name": "G#4",
          "ticks": 106560,
          "time": 118.9284525,
          "velocity": 0.3937007874015748
        },
        {
          "duration": 0.10714275000000839,
          "durationTicks": 96,
          "midi": 74,
          "name": "D5",
          "ticks": 106752,
          "time": 119.14273800000001,
          "velocity": 0.3937007874015748
        },
        {
          "duration": 0.10714274999999418,
          "durationTicks": 96,
          "midi": 62,
          "name": "D4",
          "ticks": 106848,
          "time": 119.24988075000002,
          "velocity": 0.3937007874015748
        },
        {
          "duration": 0.10714274999999418,
          "durationTicks": 96,
          "midi": 68,
          "name": "G#4",
          "ticks": 106944,
          "time": 119.35702350000001,
          "velocity": 0.3937007874015748
        },
        {
          "duration": 0.10714274999999418,
          "durationTicks": 96,
          "midi": 74,
          "name": "D5",
          "ticks": 107136,
          "time": 119.57130900000001,
          "velocity": 0.3937007874015748
        },
        {
          "duration": 0.10714274999999418,
          "durationTicks": 96,
          "midi": 58,
          "name": "A#3",
          "ticks": 107136,
          "time": 119.57130900000001,
          "velocity": 0.3937007874015748
        },
        {
          "duration": 0.10714274999999418,
          "durationTicks": 96,
          "midi": 68,
          "name": "G#4",
          "ticks": 107328,
          "time": 119.78559450000002,
          "velocity": 0.3937007874015748
        },
        {
          "duration": 0.10714274999999418,
          "durationTicks": 96,
          "midi": 62,
          "name": "D4",
          "ticks": 107424,
          "time": 119.89273725000001,
          "velocity": 0.3937007874015748
        },
        {
          "duration": 0.10714275000000839,
          "durationTicks": 96,
          "midi": 74,
          "name": "D5",
          "ticks": 107520,
          "time": 119.99988,
          "velocity": 0.3937007874015748
        },
        {
          "duration": 0.10714275000000839,
          "durationTicks": 96,
          "midi": 68,
          "name": "G#4",
          "ticks": 107712,
          "time": 120.21416550000001,
          "velocity": 0.3937007874015748
        },
        {
          "duration": 0.10714275000000839,
          "durationTicks": 96,
          "midi": 58,
          "name": "A#3",
          "ticks": 107712,
          "time": 120.21416550000001,
          "velocity": 0.3937007874015748
        },
        {
          "duration": 0.10714274999999418,
          "durationTicks": 96,
          "midi": 74,
          "name": "D5",
          "ticks": 107904,
          "time": 120.42845100000001,
          "velocity": 0.3937007874015748
        },
        {
          "duration": 0.10714275000000839,
          "durationTicks": 96,
          "midi": 62,
          "name": "D4",
          "ticks": 108000,
          "time": 120.53559375,
          "velocity": 0.3937007874015748
        },
        {
          "duration": 0.10714274999999418,
          "durationTicks": 96,
          "midi": 68,
          "name": "G#4",
          "ticks": 108096,
          "time": 120.64273650000001,
          "velocity": 0.3937007874015748
        },
        {
          "duration": 0.21428549999998836,
          "durationTicks": 192,
          "midi": 53,
          "name": "F3",
          "ticks": 108288,
          "time": 120.85702200000001,
          "velocity": 0.3937007874015748
        },
        {
          "duration": 0.10714274999999418,
          "durationTicks": 96,
          "midi": 58,
          "name": "A#3",
          "ticks": 108288,
          "time": 120.85702200000001,
          "velocity": 0.3937007874015748
        },
        {
          "duration": 0.10714274999999418,
          "durationTicks": 96,
          "midi": 74,
          "name": "D5",
          "ticks": 108288,
          "time": 120.85702200000001,
          "velocity": 0.3937007874015748
        },
        {
          "duration": 0.10714275000000839,
          "durationTicks": 96,
          "midi": 70,
          "name": "A#4",
          "ticks": 108480,
          "time": 121.0713075,
          "velocity": 0.3937007874015748
        },
        {
          "duration": 0.10714274999999418,
          "durationTicks": 96,
          "midi": 62,
          "name": "D4",
          "ticks": 108576,
          "time": 121.17845025000001,
          "velocity": 0.3937007874015748
        },
        {
          "duration": 0.10714275000000839,
          "durationTicks": 96,
          "midi": 74,
          "name": "D5",
          "ticks": 108672,
          "time": 121.285593,
          "velocity": 0.3937007874015748
        },
        {
          "duration": 0.10714275000000839,
          "durationTicks": 96,
          "midi": 70,
          "name": "A#4",
          "ticks": 108864,
          "time": 121.49987850000001,
          "velocity": 0.3937007874015748
        },
        {
          "duration": 0.10714275000000839,
          "durationTicks": 96,
          "midi": 58,
          "name": "A#3",
          "ticks": 108864,
          "time": 121.49987850000001,
          "velocity": 0.3937007874015748
        },
        {
          "duration": 0.10714274999999418,
          "durationTicks": 96,
          "midi": 74,
          "name": "D5",
          "ticks": 109056,
          "time": 121.71416400000001,
          "velocity": 0.3937007874015748
        },
        {
          "duration": 0.10714275000000839,
          "durationTicks": 96,
          "midi": 62,
          "name": "D4",
          "ticks": 109152,
          "time": 121.82130675,
          "velocity": 0.3937007874015748
        },
        {
          "duration": 0.10714274999999418,
          "durationTicks": 96,
          "midi": 70,
          "name": "A#4",
          "ticks": 109248,
          "time": 121.92844950000001,
          "velocity": 0.3937007874015748
        },
        {
          "duration": 0.10714274999999418,
          "durationTicks": 96,
          "midi": 58,
          "name": "A#3",
          "ticks": 109440,
          "time": 122.14273500000002,
          "velocity": 0.3937007874015748
        },
        {
          "duration": 0.10714274999999418,
          "durationTicks": 96,
          "midi": 74,
          "name": "D5",
          "ticks": 109440,
          "time": 122.14273500000002,
          "velocity": 0.3937007874015748
        },
        {
          "duration": 0.10714275000000839,
          "durationTicks": 96,
          "midi": 70,
          "name": "A#4",
          "ticks": 109632,
          "time": 122.3570205,
          "velocity": 0.3937007874015748
        },
        {
          "duration": 0.10714274999999418,
          "durationTicks": 96,
          "midi": 62,
          "name": "D4",
          "ticks": 109728,
          "time": 122.46416325000001,
          "velocity": 0.3937007874015748
        },
        {
          "duration": 0.10714275000000839,
          "durationTicks": 96,
          "midi": 74,
          "name": "D5",
          "ticks": 109824,
          "time": 122.571306,
          "velocity": 0.3937007874015748
        },
        {
          "duration": 0.10714274999999418,
          "durationTicks": 96,
          "midi": 70,
          "name": "A#4",
          "ticks": 110016,
          "time": 122.78559150000001,
          "velocity": 0.3937007874015748
        },
        {
          "duration": 0.10714274999999418,
          "durationTicks": 96,
          "midi": 58,
          "name": "A#3",
          "ticks": 110016,
          "time": 122.78559150000001,
          "velocity": 0.3937007874015748
        },
        {
          "duration": 0.10714274999999418,
          "durationTicks": 96,
          "midi": 74,
          "name": "D5",
          "ticks": 110208,
          "time": 122.99987700000001,
          "velocity": 0.3937007874015748
        },
        {
          "duration": 0.10714275000000839,
          "durationTicks": 96,
          "midi": 62,
          "name": "D4",
          "ticks": 110304,
          "time": 123.10701975,
          "velocity": 0.3937007874015748
        },
        {
          "duration": 0.10714274999999418,
          "durationTicks": 96,
          "midi": 70,
          "name": "A#4",
          "ticks": 110400,
          "time": 123.21416250000001,
          "velocity": 0.3937007874015748
        }
      ],
      "endOfTrackTicks": 110496
    }
  ]
}
